<?xml version="1.0" encoding="UTF-8" standalone="no"?>
<svg width="14px" height="16px" viewBox="0 0 14 16" version="1.1" xmlns="http://www.w3.org/2000/svg" xmlns:xlink="http://www.w3.org/1999/xlink" xmlns:sketch="http://www.bohemiancoding.com/sketch/ns">
    <!-- Generator: Sketch 3.3.3 (12081) - http://www.bohemiancoding.com/sketch -->
    <title>Imported Layers</title>
    <desc>Created with Sketch.</desc>
    <defs></defs>
    <g id="Page-1" stroke="none" stroke-width="1" fill="none" fill-rule="evenodd" sketch:type="MSPage">
        <g id="Home" sketch:type="MSArtboardGroup" transform="translate(-1301.000000, -11.000000)" fill="#17213D">
            <path d="M1313.998,15.455 C1313.9745,15.1975 1313.7595,15 1313.5,15 L1311,15 L1311,14 C1311,12.3455 1309.655,11 1308,11 C1306.3455,11 1305,12.3455 1305,14 L1305,15 L1302.5,15 C1302.241,15 1302.0255,15.1975 1302.002,15.455 L1301.002,26.455 C1300.9895,26.5945 1301.036,26.7335 1301.131,26.837 C1301.2255,26.941 1301.3595,27 1301.5,27 L1314.5,27 C1314.6405,27 1314.7745,26.941 1314.869,26.837 C1314.963,26.7335 1315.0105,26.595 1314.998,26.455 L1313.998,15.455 L1313.998,15.455 Z M1306,14 C1306,12.897 1306.8975,12 1308,12 C1309.1025,12 1310,12.897 1310,14 L1310,15 L1306,15 L1306,14 L1306,14 Z M1302.048,26 L1302.9565,16 L1305,16 L1305,17.1385 C1304.702,17.312 1304.5,17.631 1304.5,18 C1304.5,18.552 1304.948,19 1305.5,19 C1306.052,19 1306.5,18.552 1306.5,18 C1306.5,17.631 1306.298,17.312 1306,17.1385 L1306,16 L1310,16 L1310,17.1385 C1309.702,17.312 1309.5,17.6305 1309.5,18 C1309.5,18.552 1309.948,19 1310.5,19 C1311.052,19 1311.5,18.552 1311.5,18 C1311.5,17.631 1311.2985,17.312 1311,17.1385 L1311,16 L1313.0435,16 L1313.952,26 L1302.048,26 L1302.048,26 Z" id="Imported-Layers" sketch:type="MSShapeGroup" transform="translate(1308.000000, 19.000000) scale(-1, 1) translate(-1308.000000, -19.000000) "></path>
        </g>
    </g>
</svg>