<?xml version="1.0" standalone="no"?>
<!DOCTYPE svg PUBLIC "-//W3C//DTD SVG 1.1//EN" "http://www.w3.org/Graphics/SVG/1.1/DTD/svg11.dtd" >
<svg xmlns="http://www.w3.org/2000/svg">
<metadata></metadata>
<defs>
<font id="bryant_probold_italic" horiz-adv-x="1060" >
<font-face units-per-em="2048" ascent="1536" descent="-512" />
<missing-glyph horiz-adv-x="573" />
<glyph unicode="&#xfb01;" horiz-adv-x="1314" d="M72 768q0 56 36.5 88.5t86.5 32.5h104l25 137q30 167 127 256.5t284 89.5h70q47 0 73.5 -24t26.5 -66q0 -45 -32.5 -80t-86.5 -35h-55q-65 0 -107.5 -36t-54.5 -103l-24 -139h168q38 0 62 -23.5t24 -60.5q0 -51 -34.5 -86t-88.5 -35h-168l-100 -578q-22 -122 -142 -122 q-52 0 -79 27.5t-27 70.5q0 11 4 35l98 567h-104q-38 0 -62 24t-24 60zM854 82q0 11 4 35l117 663q21 125 143 125q48 0 76.5 -26.5t28.5 -73.5q0 -13 -4 -37l-117 -662q-22 -122 -141 -122q-52 0 -79.5 27.5t-27.5 70.5zM1026 1147q0 78 44.5 122t119.5 44q54 0 86.5 -32 t32.5 -85q0 -67 -45.5 -114.5t-118.5 -47.5q-52 0 -85.5 31.5t-33.5 81.5z" />
<glyph unicode="&#xfb02;" horiz-adv-x="1314" d="M72 768q0 56 36.5 88.5t86.5 32.5h104l25 137q30 167 127 256.5t284 89.5h70q47 0 73.5 -24t26.5 -66q0 -45 -32.5 -80t-86.5 -35h-55q-65 0 -107.5 -36t-54.5 -103l-24 -139h168q38 0 62 -23.5t24 -60.5q0 -51 -34.5 -86t-88.5 -35h-168l-100 -578q-22 -122 -142 -122 q-52 0 -79 27.5t-27 70.5q0 11 4 35l98 567h-104q-38 0 -62 24t-24 60zM854 82q0 11 4 35l201 1138q21 125 143 125q48 0 76.5 -26.5t28.5 -73.5q0 -13 -4 -37l-201 -1137q-22 -122 -141 -122q-52 0 -79.5 27.5t-27.5 70.5z" />
<glyph horiz-adv-x="0" />
<glyph horiz-adv-x="682" />
<glyph unicode=" "  horiz-adv-x="573" />
<glyph unicode="&#x09;" horiz-adv-x="573" />
<glyph unicode="&#xa0;" horiz-adv-x="573" />
<glyph unicode="!" horiz-adv-x="610" d="M94 104q0 67 47 114.5t117 47.5q53 0 87 -33t34 -83q0 -64 -45 -114t-117 -50q-58 0 -90.5 32.5t-32.5 85.5zM231 780l84 477q22 123 144 123q47 0 75.5 -28.5t28.5 -71.5q0 -9 -4 -33l-82 -467l-121 -319q-18 -58 -69 -58q-24 0 -36.5 16t-12.5 42z" />
<glyph unicode="&#x22;" horiz-adv-x="837" d="M195 901q0 13 4 33l59 342q18 104 121 104q41 0 65.5 -24.5t24.5 -61.5q0 -10 -4 -30l-59 -342q-8 -46 -38.5 -75.5t-82.5 -29.5q-41 0 -65.5 23.5t-24.5 60.5zM578 901q0 13 4 33l59 342q18 104 121 104q41 0 65.5 -24.5t24.5 -61.5q0 -10 -4 -30l-60 -342 q-8 -47 -38 -76t-82 -29q-41 0 -65.5 23.5t-24.5 60.5z" />
<glyph unicode="#" horiz-adv-x="1505" d="M78 430q0 55 36 81t85 26h166l86 307h-150q-35 0 -60.5 23t-25.5 59q0 48 34 75t89 27h166l71 252q13 50 39 75t80 25q37 0 60.5 -20.5t23.5 -54.5q0 -16 -6 -37l-67 -240h370l72 252q15 51 42 75.5t81 24.5q35 0 58.5 -20.5t23.5 -52.5q0 -7 -9 -39l-67 -240h154 q38 0 60.5 -22t22.5 -56q0 -55 -35.5 -80.5t-84.5 -25.5h-170l-86 -307h151q36 0 61 -22t25 -60q0 -48 -34 -75.5t-89 -27.5h-168l-75 -268q-26 -100 -119 -100q-37 0 -60.5 20.5t-23.5 54.5q0 16 6 37l72 256h-371l-76 -268q-14 -50 -42 -75t-81 -25q-34 0 -58 20.5 t-24 52.5q0 8 9 39l71 256h-149q-38 0 -61 24t-23 54zM565 537h371l86 307h-371z" />
<glyph unicode="$" horiz-adv-x="1212" d="M70 266q0 44 30.5 73.5t73.5 29.5q38 0 80 -31q150 -117 324 -117q129 0 198.5 46.5t69.5 129.5q0 60 -52 99.5t-180 91.5q-206 86 -296.5 169t-90.5 204q0 173 114 268.5t337 109.5l27 150q16 94 110 94q36 0 58 -20.5t22 -57.5q0 -6 -4 -30l-27 -148q66 -9 133 -32 t107 -52q53 -37 53 -90q0 -41 -29 -70.5t-77 -29.5q-27 0 -64 16q-144 72 -262 72q-136 0 -197 -37t-61 -115q0 -54 52 -91.5t200 -102.5q161 -69 220 -109q128 -84 143 -213q3 -21 3 -43q0 -168 -114 -273.5t-334 -129.5l-27 -152q-16 -94 -106 -94q-35 0 -59.5 22 t-24.5 54q0 6 4 30l25 138q-115 24 -192 59.5t-140 89.5q-47 39 -47 92z" />
<glyph unicode="%" horiz-adv-x="1761" d="M182 999q0 164 115 277t295 113q133 0 214 -79t81 -204q0 -161 -119.5 -277t-290.5 -116q-131 0 -213 82.5t-82 203.5zM266 57q0 36 31 70l1094 1221q35 41 82 41q36 0 58.5 -22t22.5 -56q0 -39 -30 -74l-1094 -1221q-35 -41 -84 -41q-36 0 -58 24.5t-22 57.5zM379 1016 q0 -56 32 -93.5t93 -37.5q80 0 133 61t53 139q0 59 -34.5 95.5t-92.5 36.5q-77 0 -130.5 -56t-53.5 -145zM936 262q0 164 115 276.5t295 112.5q133 0 213.5 -78.5t80.5 -203.5q0 -161 -119.5 -277.5t-289.5 -116.5q-131 0 -213 83t-82 204zM1133 279q0 -57 31.5 -94.5 t92.5 -37.5q80 0 133.5 61.5t53.5 139.5q0 59 -34.5 95t-92.5 36q-77 0 -130.5 -55.5t-53.5 -144.5z" />
<glyph unicode="&#x26;" horiz-adv-x="1503" d="M37 297q0 309 444 471q-84 127 -84 254q0 165 106.5 266t291.5 101q132 0 208 -66t76 -186q0 -230 -305 -428l162 -299q109 125 158 194q22 30 42 44t54 14q38 0 61 -22t23 -60q0 -13 -2 -21q-9 -50 -89 -149t-147 -160q14 -38 44.5 -60t72.5 -22q52 0 110.5 27.5 t79.5 27.5q31 0 51.5 -16.5t20.5 -48.5q0 -74 -88.5 -128.5t-210.5 -54.5q-184 0 -262 127q-198 -127 -426 -127q-189 0 -290 90.5t-101 231.5zM291 313q0 -66 43.5 -103.5t132.5 -37.5q143 0 295 88q-22 38 -61.5 107.5t-72 126.5t-61.5 112q-61 -28 -104.5 -54t-86 -61.5 t-64 -80t-21.5 -97.5zM625 1034q0 -81 69 -182q60 39 112 109.5t52 142.5q0 47 -23 73.5t-67 26.5q-66 0 -104.5 -46t-38.5 -124z" />
<glyph unicode="'" horiz-adv-x="454" d="M195 901q0 13 4 33l59 342q18 104 121 104q41 0 65.5 -24.5t24.5 -61.5q0 -10 -4 -30l-59 -342q-8 -46 -38.5 -75.5t-82.5 -29.5q-41 0 -65.5 23.5t-24.5 60.5z" />
<glyph unicode="(" horiz-adv-x="698" d="M154 319q0 290 115 569.5t321 512.5q25 27 49.5 40t62.5 13q37 0 65 -24.5t28 -59.5q0 -32 -29 -74q-86 -123 -146 -225t-113 -222.5t-79.5 -248t-26.5 -262.5t23 -255.5t74 -258.5q14 -32 14 -57q0 -49 -34.5 -82t-92.5 -33q-56 0 -82 51q-149 276 -149 616z" />
<glyph unicode=")" horiz-adv-x="696" d="M-59 -264q0 42 24 76q178 252 273.5 480t95.5 476q0 136 -23 256.5t-73 257.5q-15 34 -15 57q0 49 34.5 82t92.5 33q56 0 82 -51q150 -278 150 -617q0 -289 -115 -568t-322 -513q-25 -27 -49.5 -40t-62.5 -13q-37 0 -64.5 24.5t-27.5 59.5z" />
<glyph unicode="*" horiz-adv-x="815" d="M174 1083q0 30 21 48t51 18h160l-62 133q-8 19 -8 35q0 27 21 45t55 18q35 0 51 -32l67 -142l117 146q22 28 55 28q28 0 44 -16.5t16 -40.5t-14 -41l-109 -133h149q24 0 41 -15.5t17 -39.5q0 -30 -21 -49t-51 -19h-164l66 -135q6 -12 6 -27q0 -28 -21.5 -48.5 t-52.5 -20.5q-37 0 -51 32l-68 140l-122 -144q-24 -28 -58 -28q-27 0 -44 17.5t-17 41.5q0 22 18 43l113 129h-150q-26 0 -40.5 16.5t-14.5 40.5z" />
<glyph unicode="+" horiz-adv-x="1085" d="M113 682q0 41 28.5 69.5t69.5 28.5h254v254q0 44 32 76.5t76 32.5t76.5 -32.5t32.5 -76.5v-254h254q40 0 69 -29t29 -69t-29 -69t-69 -29h-254v-254q0 -44 -32.5 -76.5t-76.5 -32.5t-76 32.5t-32 76.5v254h-254q-41 0 -69.5 29t-28.5 69z" />
<glyph unicode="," horiz-adv-x="509" d="M-33 -203q97 214 127 355q12 60 39.5 87t81.5 27q61 0 83.5 -39t12.5 -98q-38 -203 -139 -403q-39 -74 -109 -74q-56 0 -89 43.5t-7 101.5z" />
<glyph unicode="-" horiz-adv-x="876" d="M121 498q0 54 35.5 85t91.5 31h407q41 0 71 -25.5t30 -72.5q0 -48 -35 -80.5t-92 -32.5h-410q-43 0 -70.5 28.5t-27.5 66.5z" />
<glyph unicode="." horiz-adv-x="526" d="M53 104q0 67 47 114.5t117 47.5q53 0 87 -33t34 -83q0 -64 -45 -114t-117 -50q-58 0 -90.5 32.5t-32.5 85.5z" />
<glyph unicode="/" horiz-adv-x="903" d="M-14 -135q0 34 16 63l764 1483q21 40 45 57t66 17t69 -26t27 -62q0 -20 -15 -54l-770 -1490q-22 -38 -46 -55t-64 -17q-38 0 -65 24.5t-27 59.5z" />
<glyph unicode="0" horiz-adv-x="1380" d="M109 528q0 170 51.5 325.5t144 274.5t233 190t306.5 71q119 0 213.5 -42t154 -116t90.5 -173t31 -216q0 -126 -28.5 -248.5t-88.5 -234.5t-144.5 -197.5t-205.5 -136t-262 -50.5q-117 0 -211.5 43.5t-156 119.5t-94.5 176t-33 214zM356 551q0 -162 76 -258t203 -96 q102 0 188.5 54t142.5 142t87.5 197.5t31.5 222.5q0 167 -72 260.5t-206 93.5q-127 0 -232 -87.5t-162 -228.5t-57 -300z" />
<glyph unicode="1" horiz-adv-x="804" d="M143 1151q0 86 86 111l383 108q30 10 54 10q100 0 100 -94q0 -21 -2 -31l-203 -1149q-29 -122 -141 -122q-51 0 -78 30.5t-27 77.5q0 11 4 35l173 985l-199 -57q-20 -4 -35 -4q-47 0 -81 28t-34 72z" />
<glyph unicode="2" horiz-adv-x="1296" d="M55 92q0 15 2 29q15 89 51.5 165t83.5 132.5t117 109t137 90t158 80.5q31 15 84 39t81.5 37.5t71 35t66 36.5t51.5 37t42 42t24 45t10 52q0 71 -68 108t-184 37q-68 0 -126 -11.5t-96 -25.5t-124 -51q-27 -12 -55 -12q-45 0 -77 30t-32 72q0 39 19.5 64.5t60.5 48.5 q190 107 455 107q102 0 187.5 -20.5t151.5 -60.5t103 -106.5t37 -152.5q0 -72 -20 -130t-55.5 -104.5t-101.5 -94t-139 -87.5t-188 -94q-204 -97 -295.5 -162.5t-115.5 -155.5h657q44 0 76.5 -27.5t32.5 -74.5q0 -48 -35.5 -83.5t-93.5 -35.5h-858q-43 0 -69 26.5t-26 65.5z " />
<glyph unicode="3" horiz-adv-x="1292" d="M36.5 243q-3.5 35 15 60.5t46.5 41.5t65 11t68 -32q80 -71 166.5 -106.5t194.5 -35.5q166 0 251 69t85 189q0 92 -67 133t-195 41h-136q-48 0 -78 29.5t-30 69.5q0 57 35.5 85.5t91.5 28.5h90q147 0 223 61.5t76 160.5q0 65 -49.5 98t-140.5 33q-14 0 -28 -1t-30 -4 t-26.5 -4.5t-28.5 -7t-25.5 -7t-27.5 -9l-24 -9t-26.5 -9.5t-23.5 -9q-81 -30 -130.5 7t-32 100.5t100.5 97.5q156 64 326 64q211 0 315.5 -78.5t104.5 -239.5q0 -100 -62.5 -187t-183.5 -136q102 -30 165 -108.5t63 -201.5q0 -207 -159.5 -335t-434.5 -128q-161 0 -292 53 t-220 148q-28 32 -31.5 67z" />
<glyph unicode="4" horiz-adv-x="1327" d="M33 426q0 51 51 98l877 811q50 45 108 45q49 0 73.5 -25t24.5 -67q0 -19 -4 -39l-123 -702h148q45 0 74.5 -22.5t29.5 -69.5q0 -48 -35.5 -80.5t-91.5 -32.5h-161l-43 -238q-10 -54 -44 -87t-94 -33q-49 0 -77.5 28t-28.5 72q0 11 4 31l41 227h-639q-40 0 -65 23.5 t-25 60.5zM395 547h404l78 454z" />
<glyph unicode="5" horiz-adv-x="1275" d="M47 215q0 55 36 83t85 28q30 0 61 -21q87 -66 159 -92.5t183 -26.5q161 0 256 79.5t95 211.5q0 96 -63 144.5t-175 48.5q-95 0 -166.5 -16.5t-159.5 -57.5q-32 -14 -61 -14q-49 0 -74.5 23t-25.5 59q0 14 6 32l190 568q33 100 135 100h564q46 0 77 -27t31 -73 q0 -54 -34 -88.5t-99 -34.5h-473l-102 -303q98 49 243 49q200 0 319.5 -102.5t119.5 -276.5q0 -113 -40 -209.5t-115 -169t-192 -113.5t-262 -41q-142 0 -272.5 41.5t-214.5 122.5q-31 31 -31 76z" />
<glyph unicode="6" horiz-adv-x="1288" d="M106 403q0 117 30 227t81.5 200.5t123 171.5t149.5 143t167 112q89 51 187.5 87t171.5 36q43 0 74.5 -21.5t31.5 -64.5q0 -51 -36 -79t-123 -64q-406 -169 -547 -440q64 68 172.5 104.5t214.5 36.5q189 0 297 -102.5t108 -278.5q0 -101 -42 -191.5t-117 -158t-187 -107 t-244 -39.5q-252 0 -382 119.5t-130 308.5zM377 373q0 -90 67.5 -140.5t184.5 -50.5q145 0 237 73.5t92 199.5q0 91 -64.5 140.5t-178.5 49.5q-142 0 -240 -73.5t-98 -198.5z" />
<glyph unicode="7" horiz-adv-x="1169" d="M166 1249q0 55 36 85t87 30h878q50 0 78.5 -22t28.5 -62q0 -44 -35 -84q-132 -136 -225 -253.5t-169 -248.5t-126 -274t-84 -316q-22 -120 -135 -120q-54 0 -83.5 30t-29.5 78q0 17 2 29q56 323 189 571.5t340 450.5h-648q-48 0 -76 32t-28 74z" />
<glyph unicode="8" horiz-adv-x="1329" d="M86 336q0 144 87.5 249t236.5 165q-111 94 -111 223q0 181 143.5 298.5t374.5 117.5q184 0 290.5 -84t106.5 -220q0 -196 -206 -335q95 -44 147.5 -117t52.5 -170q0 -216 -171 -352t-459 -136q-229 0 -360.5 103t-131.5 258zM336 371q0 -86 71 -138.5t201 -52.5 q90 0 169.5 30.5t131.5 90.5t52 137q0 81 -72.5 134t-202.5 53q-156 0 -253 -71.5t-97 -182.5zM535 971q0 -72 50.5 -113t135.5 -41q103 0 176.5 61.5t73.5 157.5q0 65 -49.5 106.5t-137.5 41.5q-111 0 -180 -57.5t-69 -155.5z" />
<glyph unicode="9" horiz-adv-x="1277" d="M156 887q0 220 161 356.5t428 136.5q126 0 224.5 -34t159 -93.5t91.5 -137t31 -169.5q0 -152 -44 -285.5t-122.5 -237t-171 -182t-206.5 -143.5q-89 -51 -187.5 -87t-171.5 -36q-43 0 -74.5 21.5t-31.5 64.5q0 51 36.5 79.5t122.5 64.5q178 73 323 182.5t224 257.5 q-64 -68 -172.5 -104.5t-214.5 -36.5q-185 0 -295 104t-110 279zM406 901q0 -91 64.5 -140.5t178.5 -49.5q142 0 240 73.5t98 198.5q0 90 -67.5 140.5t-184.5 50.5q-146 0 -237.5 -71.5t-91.5 -201.5z" />
<glyph unicode=":" horiz-adv-x="526" d="M53 104q0 67 47 114.5t117 47.5q53 0 87 -33t34 -83q0 -64 -45 -114t-117 -50q-58 0 -90.5 32.5t-32.5 85.5zM141 604q0 67 47 114.5t117 47.5q53 0 87 -33.5t34 -83.5q0 -64 -45 -114t-117 -50q-58 0 -90.5 33t-32.5 86z" />
<glyph unicode=";" horiz-adv-x="532" d="M-29 -203q97 214 127 355q12 60 39.5 87t81.5 27q61 0 83.5 -39t12.5 -98q-38 -203 -139 -403q-39 -74 -108 -74q-56 0 -89.5 43.5t-7.5 101.5zM147 604q0 67 47 114.5t117 47.5q53 0 87 -33.5t34 -83.5q0 -64 -45 -114t-117 -50q-58 0 -90.5 33t-32.5 86z" />
<glyph unicode="&#x3c;" horiz-adv-x="1144" d="M104 662q0 61 58 94l708 360q25 14 58 14q45 0 75.5 -30.5t30.5 -75.5q0 -62 -55 -90l-588 -272l588 -273q55 -28 55 -90q0 -45 -30.5 -75.5t-75.5 -30.5q-33 0 -58 14l-708 360q-58 33 -58 95z" />
<glyph unicode="=" horiz-adv-x="1159" d="M211 477q0 40 28 68t68 28h660q40 0 68 -28t28 -68t-28 -68t-68 -28h-660q-40 0 -68 28t-28 68zM211 848q0 40 28 68t68 28h660q40 0 68 -28t28 -68t-28 -68t-68 -28h-660q-40 0 -68 28t-28 68z" />
<glyph unicode="&#x3e;" horiz-adv-x="1144" d="M174 299q0 65 55 90l588 273l-588 272q-30 18 -42.5 37.5t-12.5 52.5q0 45 31 75.5t76 30.5q32 0 57 -14l709 -360q57 -33 57 -94q0 -62 -57 -95l-709 -360q-25 -14 -57 -14q-45 0 -76 30.5t-31 75.5z" />
<glyph unicode="?" horiz-adv-x="985" d="M188 1184q0 49 30 81t87 58q137 66 342 66q169 0 274 -72t105 -211q0 -57 -15 -105t-46 -89t-69 -74.5t-93 -71.5q-19 -13 -51 -34t-43.5 -29.5t-32.5 -24t-28.5 -23.5t-20 -22.5t-17 -27.5t-10 -30.5t-8.5 -39.5l-6 -33q-21 -115 -135 -115q-51 0 -77 28t-26 72 q0 11 4 31l6 33q22 118 65.5 178t141.5 127q22 15 61 40t59.5 39.5t44 36t34 44t10.5 49.5q0 52 -47.5 77t-128.5 25q-73 0 -126.5 -12.5t-135.5 -44.5q-27 -10 -57 -10q-39 0 -65 23t-26 61zM266 104q0 67 47 114.5t117 47.5q53 0 87 -33t34 -83q0 -64 -45 -114t-117 -50 q-58 0 -90.5 32.5t-32.5 85.5z" />
<glyph unicode="@" horiz-adv-x="1560" d="M94 610q0 355 211.5 567t568.5 212q195 0 308.5 -94t113.5 -261q0 -42 -10 -104l-84 -484q-6 -40 -34 -65t-72 -25q-35 0 -56.5 20.5t-21.5 51.5l2 16q-34 -44 -93 -69t-116 -25q-122 0 -193 79t-71 200q0 184 107 298.5t278 114.5q59 0 109 -25.5t71 -70.5q8 47 8 86 q0 105 -67.5 156t-204.5 51q-265 0 -424.5 -169.5t-159.5 -448.5q0 -99 34 -186.5t99.5 -157.5t174 -111t245.5 -41q275 0 539 154q23 14 51 14q29 0 50.5 -22.5t21.5 -53.5q0 -18 -9 -32t-19 -22t-34 -24q-161 -87 -301 -125.5t-325 -38.5q-160 0 -293 50t-220.5 136.5 t-135.5 202t-48 246.5zM731 657q0 -63 36 -103t101 -40q84 0 141.5 67.5t57.5 155.5q0 65 -34.5 103.5t-100.5 38.5q-87 0 -144 -64t-57 -158z" />
<glyph unicode="A" horiz-adv-x="1419" d="M0 86q0 38 35 90l706 1118q26 42 57.5 64t84.5 22q47 0 73 -26t39 -76l305 -1131q9 -32 9 -49q0 -50 -39.5 -82t-95.5 -32q-49 0 -71.5 23t-35.5 65l-66 229h-606l-157 -248q-17 -24 -28 -36t-33.5 -22.5t-53.5 -10.5q-50 0 -86.5 31t-36.5 71zM524 520h426l-123 512z " />
<glyph unicode="B" horiz-adv-x="1353" d="M96 104q0 17 4 33l195 1102q9 55 48.5 90t98.5 35h473q181 0 279 -74t98 -205q0 -120 -74 -213t-200 -139q108 -27 171.5 -98t63.5 -178q0 -91 -37.5 -173t-106.5 -145.5t-176 -101t-237 -37.5h-493q-49 0 -78 29.5t-29 74.5zM367 223h389q118 0 184 68.5t66 161.5 q0 71 -47.5 113t-137.5 42h-387zM473 831h358q88 0 143.5 57t55.5 130q0 59 -36.5 91t-106.5 32h-359z" />
<glyph unicode="C" horiz-adv-x="1376" d="M109 551q0 249 98.5 438.5t285 294.5t435.5 105q129 0 249 -45.5t193 -129.5q27 -34 27 -65q0 -53 -34 -88t-89 -35q-38 0 -78 29q-67 50 -133 77t-160 27q-231 0 -383.5 -161t-152.5 -418q0 -171 94 -273t274 -102q95 0 169.5 29t152.5 85q45 29 86 29q45 0 75.5 -30.5 t30.5 -73.5q0 -58 -57 -105q-99 -84 -226 -124t-259 -40q-133 0 -245.5 44t-189.5 121t-120 183t-43 228z" />
<glyph unicode="D" horiz-adv-x="1433" d="M96 104q0 17 4 33l195 1102q9 55 48 90t101 35h357q274 0 432 -149.5t158 -407.5q0 -132 -33 -252t-100.5 -221.5t-164 -175.5t-230 -116t-290.5 -42h-366q-49 0 -80 29.5t-31 74.5zM367 231h239q105 0 194 32t150.5 85.5t104.5 125t63.5 150t20.5 160.5q0 169 -95.5 259 t-277.5 90h-240z" />
<glyph unicode="E" horiz-adv-x="1245" d="M96 102q0 19 4 35l195 1102q9 55 48.5 90t100.5 35h736q44 0 72 -27t28 -73q0 -53 -38.5 -92t-100.5 -39h-615l-57 -326h336q45 0 72.5 -25.5t27.5 -74.5q0 -53 -38.5 -92.5t-100.5 -39.5h-338l-61 -344h645q44 0 72 -27t28 -73q0 -53 -38.5 -92t-100.5 -39h-768 q-47 0 -78 29t-31 73z" />
<glyph unicode="F" horiz-adv-x="1171" d="M92 88q0 11 2 23l199 1128q9 55 47.5 90t99.5 35h744q50 0 77 -28.5t27 -75.5q0 -52 -39 -92t-100 -40h-625l-57 -319h348q42 0 69 -28t27 -74q0 -53 -39 -93.5t-98 -40.5h-348l-82 -462q-11 -60 -48 -93.5t-99 -33.5q-48 0 -76.5 30t-28.5 74z" />
<glyph unicode="G" horiz-adv-x="1482" d="M109 551q0 251 103.5 441.5t290 293.5t429.5 103q130 0 248.5 -44.5t187.5 -130.5q31 -39 31 -73q0 -53 -34.5 -88t-88.5 -35q-15 0 -29 4.5t-21.5 9.5t-20.5 15t-19 14q-67 48 -132.5 72t-152.5 24q-154 0 -276 -71t-192.5 -206t-70.5 -311q0 -172 96.5 -274t282.5 -102 q189 0 357 114l32 187h-276q-44 0 -73 27.5t-29 70.5q0 65 38.5 96t96.5 31h397q53 0 82 -28t29 -75q0 -18 -4 -34l-56 -314q-10 -58 -49 -94q-113 -102 -264 -150.5t-315 -48.5q-116 0 -214 30t-168 83t-119.5 125.5t-73 157.5t-23.5 180z" />
<glyph unicode="H" horiz-adv-x="1474" d="M92 88q0 11 2 23l201 1142q21 127 143 127q50 0 79.5 -29t29.5 -73q0 -15 -2 -25l-76 -434h647l76 434q21 127 143 127q50 0 79.5 -29t29.5 -73q0 -17 -2 -27l-201 -1140q-23 -127 -147 -127q-48 0 -76.5 30t-28.5 74q0 11 2 23l84 475h-647l-84 -475q-11 -60 -48 -93.5 t-99 -33.5q-48 0 -76.5 30t-28.5 74z" />
<glyph unicode="I" horiz-adv-x="598" d="M102 88q0 11 2 23l201 1142q21 127 144 127q50 0 79 -29t29 -73q0 -15 -2 -25l-201 -1142q-11 -60 -48 -93.5t-99 -33.5q-48 0 -76.5 30t-28.5 74z" />
<glyph unicode="J" horiz-adv-x="1245" d="M33 383q0 65 32.5 106t94.5 41q56 0 82.5 -25t31.5 -79q9 -114 64.5 -171.5t175.5 -57.5q82 0 142 23t98.5 69t61 102t36.5 133l127 729q21 127 143 127q50 0 79.5 -29t29.5 -73q0 -15 -2 -25l-131 -747q-24 -132 -67 -228t-114 -165.5t-176 -103.5t-247 -34 q-205 0 -333 113t-128 295z" />
<glyph unicode="K" horiz-adv-x="1363" d="M92 88q0 19 4 35l199 1130q21 127 143 127q51 0 80 -27.5t29 -74.5q0 -15 -2 -25l-82 -473l686 563q18 13 27.5 19t27.5 12t39 6q41 0 76 -35.5t35 -78.5q0 -31 -15.5 -55t-48.5 -52l-387 -336l291 -649q14 -28 14 -61q0 -50 -39.5 -89.5t-99.5 -39.5q-74 0 -111 84 l-264 596l-295 -244l-55 -309q-22 -127 -145 -127q-49 0 -78 29.5t-29 74.5z" />
<glyph unicode="L" horiz-adv-x="1173" d="M96 104q0 13 4 37l197 1112q21 127 143 127q50 0 79.5 -29t29.5 -73q0 -15 -2 -25l-178 -1017h592q44 0 74 -29t30 -78q0 -57 -37 -93t-102 -36h-721q-47 0 -78 30t-31 74z" />
<glyph unicode="M" horiz-adv-x="1724" d="M92 90q0 9 4 33l201 1141q11 61 43 88.5t94 27.5q46 0 74 -21.5t43 -68.5l287 -940l628 957q49 73 117 73q50 0 81.5 -28.5t31.5 -75.5q0 -11 -4 -35l-201 -1141q-23 -116 -139 -116q-54 0 -80.5 28.5t-26.5 73.5q0 21 4 37l105 614l-453 -676q-26 -39 -52.5 -58 t-74.5 -19q-76 0 -100 77l-213 721l-119 -669q-21 -129 -137 -129q-54 0 -83.5 31t-29.5 75z" />
<glyph unicode="N" horiz-adv-x="1488" d="M92 90q0 11 4 31l201 1136q21 123 135 123q76 0 121 -77l516 -867l143 826q9 59 42 88.5t96 29.5q52 0 80 -30t28 -76q0 -13 -4 -37l-201 -1137q-8 -51 -43.5 -83.5t-99.5 -32.5q-39 0 -61.5 17t-40.5 48l-523 881l-145 -830q-20 -116 -137 -116q-53 0 -82 31t-29 75z " />
<glyph unicode="O" horiz-adv-x="1585" d="M111 553q0 175 62.5 329.5t171.5 266t264 176t333 64.5q266 0 430 -159.5t164 -416.5q0 -167 -63 -320t-172 -267.5t-266 -182.5t-335 -68q-131 0 -242 44t-186.5 121t-118 183.5t-42.5 229.5zM367 584q0 -171 93 -277t279 -106q115 0 216.5 47.5t172.5 127t112.5 186.5 t41.5 222q0 169 -98 274t-275 105q-152 0 -277 -79t-195 -212t-70 -288z" />
<glyph unicode="P" horiz-adv-x="1339" d="M92 88q0 11 2 23l199 1128q9 58 46.5 91.5t100.5 33.5h514q108 0 190.5 -26.5t132.5 -74.5t74.5 -109t24.5 -134q0 -229 -141.5 -360.5t-425.5 -131.5h-391l-74 -417q-23 -127 -147 -127q-48 0 -76.5 30t-28.5 74zM459 760h426q116 0 175.5 65t59.5 154q0 72 -44.5 114 t-131.5 42h-420z" />
<glyph unicode="Q" horiz-adv-x="1585" d="M111 553q0 175 62.5 329.5t171.5 266t264 176t333 64.5q266 0 430 -159.5t164 -416.5q0 -212 -98.5 -396.5t-268.5 -299.5l76 -195q6 -18 6 -37q0 -49 -36.5 -83.5t-84.5 -34.5q-35 0 -63.5 19.5t-40.5 53.5l-68 174q-125 -39 -258 -39q-131 0 -242 44t-186.5 121 t-118 183.5t-42.5 229.5zM367 584q0 -171 93 -277t279 -106q77 0 144 18l-60 156q-10 30 -10 47q0 47 32.5 80t86.5 33q80 0 108 -78l47 -127q93 82 144 200.5t51 253.5q0 169 -98 274t-275 105q-152 0 -277 -79t-195 -212t-70 -288z" />
<glyph unicode="R" horiz-adv-x="1415" d="M92 86q0 9 4 33l197 1120q21 125 147 125h527q211 0 317.5 -93t106.5 -253q0 -309 -301 -428l135 -428q10 -33 10 -53q0 -61 -45 -93t-107 -32q-79 0 -104 88l-148 473h-411l-76 -436q-10 -56 -46.5 -90.5t-100.5 -34.5q-49 0 -77 28.5t-28 73.5zM459 760h436 q101 0 168 62.5t67 164.5q0 68 -41.5 108t-127.5 40h-437z" />
<glyph unicode="S" horiz-adv-x="1280" d="M70 242q0 53 32 84.5t84 31.5q11 0 21 -2t16 -3.5t15 -6.5t12.5 -7.5t13 -10t12.5 -9.5q159 -122 349 -122q136 0 214.5 51t78.5 135q0 69 -60 107t-229 92q-122 39 -204 81t-128 92t-65 103.5t-19 122.5q0 201 143.5 304.5t401.5 103.5q178 0 327 -64q183 -78 183 -178 q0 -52 -29 -79.5t-82 -27.5q-28 0 -51 13q-55 34 -95 54t-109.5 40t-139.5 20q-134 0 -212.5 -40t-78.5 -126q0 -62 60 -98t233 -96q164 -56 229 -92q153 -85 178 -234q5 -31 5 -65q0 -200 -150 -320.5t-426 -120.5q-283 0 -479 166q-51 42 -51 101z" />
<glyph unicode="T" horiz-adv-x="1265" d="M166 1229q0 61 39 98t102 37h940q47 0 80 -28.5t33 -78.5q0 -54 -38 -91.5t-103 -37.5h-351l-180 -1017q-11 -59 -48.5 -93t-96.5 -34q-51 0 -79 29.5t-28 74.5q0 11 2 23l180 1017h-348q-42 0 -73 30.5t-31 70.5z" />
<glyph unicode="U" horiz-adv-x="1486" d="M156 424q0 60 12 127l123 702q21 127 143 127q50 0 79.5 -29t29.5 -73q0 -15 -2 -25l-127 -729q-8 -41 -8 -86q0 -237 284 -237q168 0 265.5 86.5t125.5 236.5l127 729q21 127 144 127q50 0 79 -29t29 -73q0 -15 -2 -25l-125 -723q-47 -273 -211 -414t-473 -141 q-232 0 -362.5 119.5t-130.5 329.5z" />
<glyph unicode="V" horiz-adv-x="1353" d="M188 1260q0 55 35 87.5t94 32.5q90 0 113 -98l229 -911l545 942q22 36 44 51.5t69 15.5q50 0 81.5 -29.5t31.5 -76.5q0 -36 -21 -70l-664 -1128q-17 -27 -30 -43.5t-43 -32.5t-68 -16q-47 0 -76.5 28.5t-38.5 65.5l-294 1136q-7 28 -7 46z" />
<glyph unicode="W" horiz-adv-x="1986" d="M182 1262q0 53 36.5 85.5t94.5 32.5q48 0 75 -23t36 -75l151 -858l441 876q21 41 48 60.5t77 19.5q85 0 98 -90l147 -846l435 854q30 46 55.5 64t69.5 18q42 0 75 -31t33 -79q0 -25 -16 -62l-584 -1134q-25 -47 -57 -68.5t-80 -21.5q-50 0 -77 27t-34 67l-135 842 l-432 -844q-49 -92 -139 -92t-105 96l-209 1147q-4 16 -4 35z" />
<glyph unicode="X" horiz-adv-x="1366" d="M37 94q0 51 39 90l508 521l-297 493q-19 30 -19 57q0 55 41 90t103 35q26 0 45.5 -11t28.5 -22.5t22 -33.5l256 -434l422 458q40 43 94 43q44 0 76.5 -32t32.5 -78q0 -44 -39 -86l-471 -502l309 -518q14 -25 14 -53q0 -53 -39 -90t-92 -37q-64 0 -96 59l-273 459 l-452 -471q-44 -47 -103 -47q-43 0 -76.5 33.5t-33.5 76.5z" />
<glyph unicode="Y" horiz-adv-x="1191" d="M143 1266q0 53 41.5 83.5t96.5 30.5q60 0 88 -51l286 -498l445 494q19 20 30 29.5t30.5 17.5t43.5 8q42 0 78.5 -32t36.5 -72q0 -46 -37 -86l-534 -590l-86 -489q-10 -57 -46.5 -92t-101.5 -35q-47 0 -75.5 29.5t-28.5 74.5q0 11 4 35l84 477l-342 614q-13 26 -13 52z " />
<glyph unicode="Z" horiz-adv-x="1314" d="M61 90q0 52 41 90l854 959h-577q-49 0 -82 32.5t-33 75.5q0 53 36.5 85t96.5 32h842q44 0 71 -23t27 -65q0 -50 -39 -92l-856 -959h590q48 0 81.5 -26t33.5 -82q0 -45 -37 -81t-102 -36h-846q-44 0 -72.5 24.5t-28.5 65.5z" />
<glyph unicode="[" horiz-adv-x="776" d="M61 -205q0 6 5 31l258 1458q9 55 45 88t90 33h272q39 0 66.5 -26t27.5 -66q0 -50 -33.5 -82.5t-89.5 -32.5h-151l-229 -1296h141q41 0 69.5 -26t28.5 -73q0 -44 -35.5 -76t-89.5 -32h-278q-43 0 -70 29.5t-27 70.5z" />
<glyph unicode="\" horiz-adv-x="905" d="M266 1378q0 53 30 80t81 27q85 0 98 -80l242 -1475q4 -20 4 -39q0 -51 -32.5 -80.5t-86.5 -29.5q-39 0 -62 24.5t-28 59.5l-242 1472q-4 28 -4 41z" />
<glyph unicode="]" horiz-adv-x="774" d="M-33 -213q0 50 33.5 82.5t89.5 32.5h152l229 1296h-141q-41 0 -70 25.5t-29 72.5q0 44 35.5 76.5t89.5 32.5h279q47 0 71.5 -28.5t24.5 -71.5q0 -11 -4 -31l-258 -1458q-9 -56 -43.5 -88.5t-91.5 -32.5h-273q-39 0 -66.5 26t-27.5 66z" />
<glyph unicode="^" horiz-adv-x="917" d="M121 780q0 27 14 49l285 500q29 51 88 51t84 -49l289 -502q14 -28 14 -49q0 -42 -28 -70t-72 -28q-58 0 -86 49l-201 359l-201 -359q-13 -23 -37 -36t-51 -13q-45 0 -71.5 28t-26.5 70z" />
<glyph unicode="_" horiz-adv-x="925" d="M-2 -27h930v-131h-930v131z" />
<glyph unicode="`" horiz-adv-x="659" d="M276 1264q0 41 30.5 70.5t74.5 29.5q58 0 88 -51l82 -142q16 -29 16 -57q0 -43 -33.5 -73.5t-80.5 -30.5q-49 0 -80 55l-84 149q-13 26 -13 50z" />
<glyph unicode="a" d="M66 213q0 155 105 239.5t267 84.5q76 0 141 -28.5t101 -80.5l12 80q4 28 4 55q0 74 -43 108t-135 34q-69 0 -151 -23t-101 -23q-39 0 -63.5 23t-24.5 59q0 43 33 76t79 50t105.5 28.5t102.5 14.5t80 3q179 0 274.5 -79.5t95.5 -231.5q0 -39 -12 -113l-68 -383 q-9 -53 -42 -87.5t-97 -34.5q-48 0 -76 27.5t-28 70.5q0 14 2 24q-107 -131 -289 -131q-127 0 -199.5 67.5t-72.5 170.5zM311 238q0 -46 37 -72.5t107 -26.5q82 0 139 37.5t57 91.5q0 50 -43.5 77.5t-113.5 27.5q-87 0 -135 -35t-48 -100z" />
<glyph unicode="b" horiz-adv-x="1159" d="M72 80q0 17 4 37l200 1138q21 125 144 125q48 0 76 -26.5t28 -73.5q0 -13 -4 -37l-84 -475q52 70 133 107.5t164 37.5q166 0 255 -104t89 -266q0 -147 -59.5 -275t-176.5 -210.5t-268 -82.5q-91 0 -159.5 38.5t-100.5 107.5l-2 -10q-15 -64 -49 -95.5t-92 -31.5 q-48 0 -73 26.5t-25 69.5zM373 383q0 -87 47 -143t133 -56q118 0 196 93t78 227q0 90 -49.5 145.5t-138.5 55.5q-83 0 -145 -47.5t-91.5 -119.5t-29.5 -155z" />
<glyph unicode="c" horiz-adv-x="987" d="M63 354q0 129 42.5 235.5t116.5 176.5t173 108.5t213 38.5q107 0 189 -39.5t123 -95.5q24 -31 24 -67q0 -48 -31 -82.5t-84 -34.5q-49 0 -77 31q-24 25 -38.5 38t-48.5 27.5t-75 14.5q-129 0 -204 -89.5t-75 -228.5q0 -90 50 -146.5t149 -56.5q97 0 176 72q38 35 84 35 q40 0 70 -27t30 -67q0 -60 -51 -103q-144 -119 -348 -119q-190 0 -299 111t-109 268z" />
<glyph unicode="d" horiz-adv-x="1159" d="M61 352q0 154 58.5 281t171.5 203.5t258 76.5q88 0 159 -37t109 -106l86 485q21 125 144 125q48 0 76 -26.5t28 -73.5q0 -13 -4 -37l-201 -1134q-10 -61 -47.5 -93t-95.5 -32q-47 0 -71.5 26t-24.5 74q0 21 4 37q-52 -69 -136.5 -107.5t-168.5 -38.5q-111 0 -191 52 t-117 136t-37 189zM311 385q0 -92 48 -146.5t141 -54.5q78 0 140 47t94 120t32 155q0 92 -50 145.5t-138 53.5q-123 0 -195 -94.5t-72 -225.5z" />
<glyph unicode="e" d="M61 350q0 160 66.5 288t187 201.5t273.5 73.5q171 0 270.5 -107.5t99.5 -277.5q0 -40 -6 -84q-5 -33 -30 -56t-72 -23h-539v-17q0 -79 48.5 -127.5t136.5 -48.5q113 0 198 59q21 15 33 22t31 14t37 7q42 0 69 -25.5t27 -64.5q0 -29 -20.5 -57t-41.5 -43.5t-53 -34.5 q-130 -74 -311 -74q-182 0 -293 107t-111 268zM346 541h395q-2 76 -43 126t-118 50q-162 0 -234 -176z" />
<glyph unicode="f" horiz-adv-x="782" d="M72 768q0 56 36.5 88.5t86.5 32.5h104l25 137q30 167 127 256.5t284 89.5h70q47 0 73.5 -24t26.5 -66q0 -45 -32.5 -80t-86.5 -35h-55q-65 0 -107.5 -36t-54.5 -103l-24 -139h168q38 0 62 -23.5t24 -60.5q0 -51 -34.5 -86t-88.5 -35h-168l-100 -578q-22 -122 -142 -122 q-52 0 -79 27.5t-27 70.5q0 11 4 35l98 567h-104q-38 0 -62 24t-24 60z" />
<glyph unicode="g" horiz-adv-x="1161" d="M12 -231q0 52 29 78t74 26q14 0 30 -4t24.5 -7t32 -13.5t29.5 -12.5q92 -39 187 -39q130 0 192.5 62t83.5 176l21 119q-51 -69 -135.5 -105.5t-169.5 -36.5q-167 0 -255.5 98.5t-88.5 258.5q0 155 58.5 278.5t170.5 194.5t258 71q87 0 162 -41t112 -110l2 14 q8 62 39.5 95.5t96.5 33.5q50 0 77 -26.5t27 -69.5q0 -17 -4 -37l-129 -737q-18 -105 -54 -181.5t-97.5 -135t-155.5 -88t-221 -29.5q-98 0 -189 23.5t-156 62.5q-51 31 -51 82zM315 401q0 -180 189 -180q118 0 192 88t74 213q0 86 -49.5 134.5t-138.5 48.5 q-125 0 -196 -86.5t-71 -217.5z" />
<glyph unicode="h" horiz-adv-x="1146" d="M72 82q0 11 4 35l200 1138q21 125 144 125q48 0 76 -26.5t28 -73.5q0 -13 -4 -37l-86 -483q45 71 121.5 112t169.5 41q143 0 220 -85t77 -230q0 -44 -10 -106l-68 -386q-10 -54 -45.5 -88t-95.5 -34q-52 0 -79.5 27.5t-27.5 70.5q0 11 4 35l64 362q4 24 4 56 q0 73 -38.5 115t-115.5 42q-100 0 -156.5 -58.5t-72.5 -154.5l-66 -373q-22 -122 -141 -122q-52 0 -79 27.5t-27 70.5z" />
<glyph unicode="i" horiz-adv-x="532" d="M72 82q0 11 4 35l117 663q21 125 143 125q48 0 76 -26.5t28 -73.5q0 -13 -4 -37l-117 -662q-22 -122 -141 -122q-52 0 -79 27.5t-27 70.5zM244 1147q0 78 44.5 122t119.5 44q54 0 86 -32t32 -85q0 -67 -45.5 -114.5t-118.5 -47.5q-52 0 -85 31.5t-33 81.5z" />
<glyph unicode="j" horiz-adv-x="532" d="M-236 -313q0 55 37 86.5t88 31.5h9q64 0 98.5 25t44.5 86l152 864q21 125 143 125q48 0 76 -26.5t28 -73.5q0 -13 -4 -37l-151 -862q-14 -77 -39.5 -131t-71.5 -94.5t-118 -60t-173 -19.5h-28q-40 0 -65.5 25t-25.5 61zM244 1147q0 78 44.5 122t119.5 44q54 0 86 -32 t32 -85q0 -67 -45.5 -114.5t-118.5 -47.5q-52 0 -85 31.5t-33 81.5z" />
<glyph unicode="k" horiz-adv-x="1036" d="M72 82q0 11 4 35l200 1138q21 125 144 125q48 0 76 -26.5t28 -73.5q0 -13 -4 -37l-110 -625l383 259q44 28 77 28q45 0 77 -34t32 -76q0 -33 -17 -56t-53 -47l-237 -162l211 -366q18 -31 18 -64q0 -53 -38.5 -84.5t-96.5 -31.5q-54 0 -84 55l-203 360l-125 -86l-35 -207 q-10 -54 -45.5 -88t-95.5 -34q-52 0 -79 27.5t-27 70.5z" />
<glyph unicode="l" horiz-adv-x="532" d="M72 82q0 11 4 35l200 1138q21 125 144 125q48 0 76 -26.5t28 -73.5q0 -13 -4 -37l-201 -1137q-22 -122 -141 -122q-52 0 -79 27.5t-27 70.5z" />
<glyph unicode="m" horiz-adv-x="1738" d="M72 82q0 11 4 35l117 663q21 125 143 125q48 0 76 -26.5t28 -73.5q0 -9 -4 -33l-4 -18q42 73 117 116t168 43q96 0 163 -42.5t99 -116.5q122 159 342 159q143 0 218 -85t75 -230q0 -44 -10 -106l-68 -386q-10 -54 -45.5 -88t-95.5 -34q-52 0 -79.5 27.5t-27.5 70.5 q0 11 4 35l64 362q4 24 4 56q0 157 -146 157q-96 0 -151 -57t-70 -150l-65 -379q-10 -54 -46 -88t-96 -34q-52 0 -79 27.5t-27 70.5q0 11 4 35l64 362q4 24 4 56q0 157 -146 157q-96 0 -150.5 -58.5t-70.5 -154.5l-66 -373q-22 -122 -141 -122q-52 0 -79 27.5t-27 70.5z" />
<glyph unicode="n" horiz-adv-x="1146" d="M72 82q0 11 4 35l117 663q21 125 143 125q48 0 76 -26.5t28 -73.5q0 -9 -4 -33l-4 -18q42 72 120.5 115.5t172.5 43.5q143 0 220 -85t77 -230q0 -44 -10 -106l-68 -386q-10 -54 -45.5 -88t-95.5 -34q-52 0 -79.5 27.5t-27.5 70.5q0 11 4 35l64 362q4 24 4 56 q0 73 -38.5 115t-115.5 42q-100 0 -156.5 -58.5t-72.5 -154.5l-66 -373q-22 -122 -141 -122q-52 0 -79 27.5t-27 70.5z" />
<glyph unicode="o" horiz-adv-x="1107" d="M70 360q0 237 155 395t404 158q178 0 286.5 -110t108.5 -273q0 -83 -22 -162.5t-68 -150.5t-111 -125t-158 -85.5t-202 -31.5q-179 0 -286 109t-107 276zM315 389q0 -89 48.5 -145t138.5 -56q88 0 153 49.5t94 119t29 143.5q0 94 -49 147t-139 53q-120 0 -197.5 -89 t-77.5 -222z" />
<glyph unicode="p" horiz-adv-x="1159" d="M4 -299q0 13 4 37l185 1042q10 61 47.5 93t95.5 32q47 0 71.5 -26t24.5 -74q0 -21 -4 -37q52 69 136.5 107t168.5 38t150.5 -29.5t108.5 -81.5t63.5 -119.5t21.5 -145.5q0 -154 -58.5 -281.5t-171 -204t-257.5 -76.5q-88 0 -159 37.5t-109 106.5l-70 -393 q-21 -125 -143 -125q-48 0 -76.5 26.5t-28.5 73.5zM373 383q0 -92 50 -145.5t138 -53.5q123 0 194.5 94.5t71.5 225.5q0 92 -47.5 146.5t-140.5 54.5q-78 0 -140 -47t-94 -120t-32 -155z" />
<glyph unicode="q" horiz-adv-x="1161" d="M63 346q0 109 35.5 210.5t98.5 181t159.5 127.5t210.5 48q91 0 159.5 -38t100.5 -107l2 10q31 127 142 127q48 0 73 -26.5t25 -69.5q0 -17 -4 -37l-184 -1046q-21 -125 -144 -125q-48 0 -76 26.5t-28 73.5q0 13 4 37l68 383q-52 -70 -133 -108t-164 -38 q-166 0 -255.5 104.5t-89.5 266.5zM313 385q0 -90 50 -145.5t139 -55.5q83 0 145 47.5t91.5 119.5t29.5 155q0 87 -47 143t-133 56q-118 0 -196.5 -93t-78.5 -227z" />
<glyph unicode="r" horiz-adv-x="761" d="M72 82q0 11 4 35l117 663q9 57 46.5 91t98.5 34q46 0 75 -30t29 -74q0 -18 -6 -47q81 159 250 159q109 0 109 -100q0 -54 -33.5 -89.5t-108.5 -35.5q-117 0 -186.5 -75.5t-93.5 -209.5l-54 -297q-22 -122 -141 -122q-52 0 -79 27.5t-27 70.5z" />
<glyph unicode="s" horiz-adv-x="940" d="M43 176q0 41 28.5 69.5t71.5 28.5q40 0 78 -28q56 -40 104.5 -60t108.5 -20q62 0 101.5 17.5t39.5 56.5q0 29 -31 47.5t-118 48.5q-157 54 -225 120.5t-68 155.5q0 139 97.5 220t291.5 81q88 0 170 -25t137 -69q45 -36 45 -86q0 -38 -27 -67t-67 -29q-29 0 -59 18 q-114 64 -209 64q-139 0 -139 -74q0 -8 2 -15t7 -13.5t10 -11.5t15 -10.5t17 -9.5t22 -9.5t24 -9t28 -10.5t30 -11q47 -17 67.5 -25t59 -25t56.5 -29t43 -32.5t36.5 -41t20 -48.5t8.5 -61q0 -141 -106.5 -224.5t-278.5 -83.5q-205 0 -338 105q-53 42 -53 96z" />
<glyph unicode="t" horiz-adv-x="776" d="M68 772q0 50 34 83.5t86 33.5h138l45 252q21 125 143 125q48 0 76 -27t28 -74q0 -13 -4 -37l-43 -239h160q38 0 62 -24t24 -64q0 -50 -34 -83.5t-89 -33.5h-159l-101 -578q-22 -122 -141 -122q-52 0 -79.5 27.5t-27.5 70.5q0 11 4 35l99 567h-137q-41 0 -62.5 25 t-21.5 63z" />
<glyph unicode="u" horiz-adv-x="1142" d="M100 291q0 38 11 106l67 385q10 55 45.5 89t95.5 34q52 0 79.5 -27.5t27.5 -70.5q0 -11 -4 -35l-64 -362q-4 -24 -4 -56q0 -73 38.5 -115t115.5 -42q100 0 156.5 58.5t72.5 154.5l66 372q22 123 141 123q52 0 79.5 -27.5t27.5 -70.5q0 -11 -4 -35l-117 -663 q-21 -125 -144 -125q-48 0 -76 26.5t-28 73.5q0 9 4 33l4 18q-42 -72 -120.5 -116t-172.5 -44q-143 0 -220 85.5t-77 230.5z" />
<glyph unicode="v" horiz-adv-x="940" d="M84 791q0 56 36.5 85t92.5 29q41 0 64 -21.5t34 -64.5l127 -481l273 502q19 34 43 49.5t67 15.5q44 0 77.5 -30.5t33.5 -71.5q0 -24 -21 -62l-407 -688q-43 -69 -119 -69q-36 0 -60 17.5t-32 47.5l-205 715q-4 16 -4 27z" />
<glyph unicode="w" horiz-adv-x="1357" d="M109 799q0 46 34.5 76t87.5 30q42 0 68 -24t31 -60l59 -461l244 471q41 74 112 74q76 0 89 -74l90 -469l198 467q19 41 43 58.5t62 17.5q48 0 76 -27t28 -69q0 -29 -16 -61l-299 -662q-24 -51 -54.5 -76.5t-80.5 -25.5q-89 0 -107 94l-86 424l-242 -434q-16 -27 -28 -42 t-36.5 -28.5t-57.5 -13.5q-45 0 -70.5 22t-30.5 57l-110 697q-4 32 -4 39z" />
<glyph unicode="x" horiz-adv-x="1044" d="M53 88q0 47 41 88l277 275l-183 278q-16 24 -16 55q0 56 36 88.5t89 32.5q57 0 88 -49l164 -252l254 264q34 37 84 37q47 0 78.5 -30t31.5 -72q0 -47 -41 -88l-292 -285l174 -258q24 -34 24 -63q0 -55 -40 -90t-89 -35q-55 0 -84 47l-151 233l-248 -244q-39 -36 -90 -36 q-40 0 -73.5 32t-33.5 72z" />
<glyph unicode="y" horiz-adv-x="948" d="M-31 -301q0 28 12.5 50t26 34t43.5 33q148 105 225 198l-170 738q-4 24 -4 30q0 123 131 123q48 0 69.5 -26.5t31.5 -69.5l123 -563l282 592q30 67 109 67q44 0 75 -27t31 -69q0 -29 -18 -66t-69.5 -145t-81 -169t-76.5 -150.5t-88 -157.5q-100 -167 -212.5 -289 t-275.5 -213q-32 -18 -67 -18q-39 0 -68 31t-29 67z" />
<glyph unicode="z" horiz-adv-x="980" d="M29 86q0 47 41 88l503 516h-333q-40 0 -66.5 24.5t-26.5 61.5q0 52 34 82.5t87 30.5h582q42 0 66 -22.5t24 -61.5q0 -49 -41 -90l-504 -516h342q41 0 65.5 -25t24.5 -65q0 -47 -33 -78t-87 -31h-592q-38 0 -62 25t-24 61z" />
<glyph unicode="{" horiz-adv-x="765" d="M68 528q0 57 36.5 90t90.5 33h12q53 0 78.5 23t33.5 69l76 431q19 111 74.5 171t171.5 60h129q36 0 62 -24t26 -64q0 -41 -32.5 -70.5t-80.5 -29.5h-53q-49 0 -57 -54l-68 -379q-41 -236 -276 -241q99 -1 147.5 -50.5t48.5 -134.5q0 -26 -6 -61l-65 -371q-2 -10 -2 -20 q0 -39 45 -39h43q36 0 61 -21.5t25 -60.5q0 -46 -30 -75t-83 -29h-137q-174 0 -174 157q0 28 8 74l74 418q4 20 4 39q0 34 -18.5 48.5t-63.5 14.5h-8q-39 0 -65.5 28.5t-26.5 67.5z" />
<glyph unicode="|" horiz-adv-x="647" d="M246 -328v1755q0 32 23 55t55 23t54.5 -23t22.5 -55v-1755q0 -32 -22.5 -55t-54.5 -23t-55 23t-23 55z" />
<glyph unicode="}" horiz-adv-x="763" d="M-80 -231q0 41 32.5 70.5t80.5 29.5h53q49 0 57 53l68 379q41 237 276 242q-99 1 -147.5 50t-48.5 134q0 27 6 61l65 371q3 15 3 21q0 39 -46 39h-43q-36 0 -61 21t-25 60q0 46 30 75.5t83 29.5h137q174 0 174 -158q0 -27 -8 -73l-74 -418q-4 -20 -4 -39q0 -34 18.5 -49 t63.5 -15h8q39 0 66 -28.5t27 -67.5q0 -57 -36.5 -90t-90.5 -33h-13q-53 0 -78.5 -23t-33.5 -69l-76 -430q-19 -111 -74.5 -171t-171.5 -60h-129q-36 0 -62 24t-26 64z" />
<glyph unicode="~" horiz-adv-x="1042" d="M90 471q0 21 6 39q31 86 100 135t160 49q40 0 82.5 -11.5t69 -24t65.5 -33.5q78 -47 129 -47q36 0 53.5 13t32.5 38q29 57 89 57q41 0 66.5 -26.5t25.5 -65.5q0 -17 -8 -41q-33 -79 -101 -127.5t-151 -48.5q-34 0 -68 10t-55.5 20.5t-55.5 30.5q-95 58 -159 58 q-32 0 -54 -10.5t-30 -21.5t-19 -30q-13 -27 -30.5 -41t-53.5 -14q-41 0 -67.5 25.5t-26.5 66.5z" />
<glyph unicode="&#xa1;" horiz-adv-x="610" d="M39 -299q0 9 4 33l80 452l108 252q18 58 70 58q24 0 36.5 -16t12.5 -42l19 -252l-82 -462q-22 -123 -144 -123q-47 0 -75.5 28.5t-28.5 71.5zM209 750q0 64 45 113.5t117 49.5q58 0 90.5 -32.5t32.5 -85.5q0 -67 -47 -114.5t-117 -47.5q-53 0 -87 33.5t-34 83.5z" />
<glyph unicode="&#xa2;" horiz-adv-x="1120" d="M168 592q0 236 131.5 383.5t339.5 171.5l27 147q17 95 110 95q38 0 59 -21t21 -55q0 -11 -4 -31l-27 -145q128 -31 199 -121q25 -32 25 -68q0 -48 -31 -82.5t-84 -34.5q-50 0 -78 31q-24 25 -38.5 38t-48.5 27.5t-75 14.5q-129 0 -203.5 -89t-74.5 -228 q0 -90 49.5 -146.5t148.5 -56.5q98 0 177 72q21 19 38.5 26.5t44.5 7.5q40 0 70.5 -27t30.5 -67q0 -59 -51 -102q-113 -95 -260 -115l-27 -147q-7 -42 -34.5 -68.5t-76.5 -26.5q-35 0 -57.5 21t-22.5 55q0 1 5 31l26 139q-147 28 -228 132t-81 239z" />
<glyph unicode="&#xa3;" horiz-adv-x="1357" d="M39 92q0 60 37.5 86.5t91.5 26.5h225l66 368h-203q-39 0 -66.5 28t-27.5 69q0 52 35 80t90 28h209l28 162q41 235 162 342t348 107q133 0 240 -43q94 -38 94 -115q0 -40 -31.5 -70.5t-83.5 -30.5q-17 0 -41 7q-14 3 -43 10.5t-45 11t-42.5 7t-51.5 3.5q-125 0 -182 -52 t-78 -173l-29 -166h342q42 0 72.5 -24.5t30.5 -69.5q0 -51 -35 -81t-90 -30h-356l-66 -368h422q41 0 68.5 -24t27.5 -68q0 -52 -36.5 -82.5t-86.5 -30.5h-897q-39 0 -68.5 26.5t-29.5 65.5z" />
<glyph unicode="&#xa4;" horiz-adv-x="1329" d="M90 227q0 43 43 78l148 125q-35 78 -35 180q0 205 125 330l-105 127q-22 28 -22 59q0 37 29 64t71 27q47 0 82 -43l88 -109q128 72 274 72q137 0 232 -70l143 121q36 29 70 29t61 -25t27 -57q0 -43 -41 -78l-147 -123q38 -74 38 -170q0 -103 -36 -194.5t-93 -149.5 l97 -119q22 -25 22 -57q0 -38 -30.5 -67.5t-67.5 -29.5q-40 0 -66 33l-98 121q-49 -36 -122 -55t-148 -19q-141 0 -242 72l-139 -121q-36 -31 -76 -31q-35 0 -58.5 23.5t-23.5 56.5zM483 631q0 -88 48.5 -142.5t142.5 -54.5q113 0 187.5 88.5t74.5 214.5q0 88 -49 140.5 t-137 52.5q-125 0 -196 -84t-71 -215z" />
<glyph unicode="&#xa5;" horiz-adv-x="1249" d="M133 434q0 35 24 57.5t64 22.5h283l14 86l-24 53h-240q-33 0 -51.5 20.5t-18.5 49.5q0 35 24.5 56.5t61.5 21.5h154l-182 403q-15 34 -15 60q0 54 38.5 86t88.5 32q71 0 101 -71l221 -498l356 508q24 33 49 46t64 13q42 0 75 -27t33 -71q0 -39 -36 -84l-291 -397h147 q30 0 51 -18.5t21 -51.5q0 -35 -24 -56.5t-64 -21.5h-250l-43 -53l-14 -86h270q32 0 53 -20t21 -52q0 -35 -24.5 -55t-63.5 -20h-283l-45 -256q-22 -127 -141 -127q-50 0 -78.5 29t-28.5 73q0 11 4 35l43 246h-272q-29 0 -50.5 18.5t-21.5 48.5z" />
<glyph unicode="&#xa6;" horiz-adv-x="645" d="M246 -328v725q0 32 22 54t54 22t54.5 -22t22.5 -54v-725q0 -32 -22.5 -55t-54.5 -23t-54 23t-22 55zM246 705v722q0 32 22 55t54 23t54.5 -23t22.5 -55v-722q0 -32 -22.5 -55t-54.5 -23t-54 23t-22 55z" />
<glyph unicode="&#xa7;" horiz-adv-x="1263" d="M82 -18q0 48 30 76t85 28q44 0 106 -41q110 -70 242 -70q90 0 144 31t54 92q0 51 -57.5 85.5t-214.5 95.5q-176 69 -247.5 139t-71.5 172q0 96 48.5 163t151.5 124q-45 60 -45 161q0 167 123 259t352 92q104 0 199 -30t162 -77q51 -36 51 -84q0 -44 -27.5 -72t-79.5 -28 q-15 0 -31.5 6t-42 18.5t-34.5 16.5q-107 49 -229 49q-84 0 -137.5 -33t-53.5 -98q0 -14 3 -25.5t10.5 -22t15 -19t24 -18t28 -16t36.5 -17.5t41 -17.5t49.5 -20t54.5 -22.5q165 -69 216 -100q91 -57 109 -141q5 -26 5 -56q0 -181 -203 -297q45 -54 45 -144 q0 -167 -123 -266.5t-348 -99.5q-117 0 -219.5 36t-173.5 87q-47 34 -47 84zM397 633q0 -49 49 -79.5t201 -90.5q115 -48 154 -68q102 55 102 140q0 12 -2.5 22.5t-10 20t-14.5 17t-22 16.5t-27 15.5t-35 16t-39.5 16.5t-47 19.5t-52.5 21.5q-16 7 -73 29t-82 35 q-101 -46 -101 -131z" />
<glyph unicode="&#xa8;" horiz-adv-x="880" d="M233 1139q0 60 39.5 99.5t106.5 39.5q45 0 75.5 -29t30.5 -75q0 -59 -38 -101.5t-105 -42.5q-50 0 -79.5 32t-29.5 77zM621 1139q0 60 39 99.5t106 39.5q45 0 75.5 -29t30.5 -75q0 -59 -38 -101.5t-105 -42.5q-50 0 -79 32t-29 77z" />
<glyph unicode="&#xa9;" horiz-adv-x="1599" d="M115 682q0 195 91 357t254 256t363 94t362.5 -94t253.5 -255.5t91 -357.5t-91 -357.5t-253.5 -255.5t-362.5 -94t-363 94t-254 256t-91 357zM248 682q0 -254 162.5 -419t412.5 -165t412 165t162 419t-162 419t-412 165t-412.5 -165t-162.5 -419zM494 682 q0 159 98.5 257.5t257.5 98.5q69 0 139.5 -29.5t118.5 -84.5q18 -21 16.5 -45.5t-18 -38.5t-39.5 -17t-49 19q-27 23 -42.5 34t-50.5 24t-75 13q-97 0 -157 -64t-60 -167t60 -167t157 -64q40 0 75 13t50.5 24t42.5 34q23 20 49 19t40 -17t17.5 -38.5t-16.5 -45.5 q-48 -55 -118.5 -84.5t-139.5 -29.5q-159 0 -257.5 98.5t-98.5 257.5z" />
<glyph unicode="&#xaa;" horiz-adv-x="800" d="M199 928q0 94 68 151.5t177 57.5q118 0 166 -64l11 55q4 24 4 35q0 44 -28.5 65t-94.5 21q-48 0 -102.5 -15t-67.5 -15q-26 0 -42 15t-16 40q0 35 31 60t79 35.5t86 15t71 4.5q121 0 185.5 -51.5t64.5 -149.5q0 -25 -9 -70l-47 -268q-7 -39 -27.5 -60.5t-66.5 -21.5 q-30 0 -49 19t-19 47v16v2q-71 -90 -188 -90q-88 0 -137 47.5t-49 118.5zM362 938q0 -31 27.5 -48.5t71.5 -17.5q54 0 91.5 26.5t37.5 64.5q0 31 -29 48t-74 17q-55 0 -90 -24.5t-35 -65.5z" />
<glyph unicode="&#xab;" horiz-adv-x="1214" d="M90 428q0 44 45 80l336 268q42 29 72 29q37 0 64.5 -26.5t27.5 -65.5q0 -51 -45 -84l-262 -209l178 -195q22 -28 22 -55q0 -40 -31.5 -69t-72.5 -29q-47 0 -76 32l-235 265q-23 26 -23 59zM598 428q0 44 45 80l336 268q42 29 72 29q37 0 64.5 -26.5t27.5 -65.5 q0 -51 -45 -84l-262 -209l178 -195q22 -28 22 -55q0 -40 -31.5 -69t-72.5 -29q-47 0 -76 32l-235 265q-23 26 -23 59z" />
<glyph unicode="&#xac;" horiz-adv-x="1228" d="M123 627q0 41 28.5 69.5t69.5 28.5h725q40 0 69 -29t29 -69v-353q0 -44 -32 -76t-76 -32t-76.5 32t-32.5 76v254h-606q-41 0 -69.5 29.5t-28.5 69.5z" />
<glyph unicode="&#xad;" horiz-adv-x="876" d="M121 498q0 54 35.5 85t91.5 31h407q41 0 71 -25.5t30 -72.5q0 -48 -35 -80.5t-92 -32.5h-410q-43 0 -70.5 28.5t-27.5 66.5z" />
<glyph unicode="&#xae;" horiz-adv-x="823" d="M174 1047q0 146 93.5 244t248.5 98t246.5 -98t91.5 -244t-91.5 -242t-246.5 -96q-156 0 -249 96.5t-93 241.5zM254 1047q0 -111 70 -188t192 -77t190 76.5t68 188.5t-68 190t-190 78t-192 -78t-70 -190zM410 920v268q0 12 8 20.5t20 8.5h90q60 0 88.5 -27.5t28.5 -73.5 q0 -68 -53 -88l55 -96q9 -14 2 -28.5t-26 -14.5q-15 0 -25 14l-63 113h-68v-96q0 -13 -8.5 -22t-20.5 -9t-20 9t-8 22zM467 1067h70q51 0 51 49t-51 49h-70v-98z" />
<glyph unicode="&#xaf;" horiz-adv-x="790" d="M205 1143q0 42 27.5 63t64.5 21h440q29 0 52.5 -21t23.5 -53q0 -84 -102 -84h-428q-35 0 -56.5 22.5t-21.5 51.5z" />
<glyph unicode="&#xb0;" horiz-adv-x="757" d="M217 1081q0 138 87.5 223t227.5 85q102 0 164 -63.5t62 -158.5q0 -130 -83.5 -220.5t-230.5 -90.5q-103 0 -165 63.5t-62 161.5zM348 1092q0 -53 28 -85t87 -32q78 0 121 53t43 127q0 50 -29 81.5t-84 31.5q-72 0 -119 -51.5t-47 -124.5z" />
<glyph unicode="&#xb1;" horiz-adv-x="1310" d="M197 92q0 41 28 66.5t70 25.5h766q40 0 69 -26.5t29 -65.5t-29 -65.5t-69 -26.5h-766q-42 0 -70 26t-28 66zM197 707q0 41 28.5 69.5t69.5 28.5h274v229q0 44 32.5 76.5t76.5 32.5t76 -32.5t32 -76.5v-229h275q40 0 69 -29t29 -69t-29 -69.5t-69 -29.5h-275v-237 q0 -44 -32 -76.5t-76 -32.5t-76.5 32.5t-32.5 76.5v237h-274q-41 0 -69.5 29.5t-28.5 69.5z" />
<glyph unicode="&#xb2;" horiz-adv-x="964" d="M184 625q9 56 33 103t52 78.5t75 63.5t81.5 50t92.5 45q17 8 54.5 24.5t54 24.5t45 22.5t41 25t28 25.5t21.5 30.5t6 33.5q0 76 -137 76q-94 0 -180 -37q-44 -18 -77.5 6.5t-33.5 63.5q0 56 66 81q119 48 245 48q128 0 208.5 -60t80.5 -162q0 -25 -3.5 -47t-12.5 -42.5 t-17 -36.5t-25.5 -33.5t-28.5 -29t-36 -27.5t-38.5 -24.5t-44.5 -24.5t-45 -23.5t-50 -24.5q-15 -7 -41 -19.5t-39.5 -19t-34.5 -17.5t-32 -17t-27 -15.5t-25 -16.5t-19 -15.5t-16 -16.5t-10 -17h381q34 0 56 -20.5t22 -52.5q0 -36 -24 -59t-68 -23h-510q-34 0 -53.5 23.5 t-14.5 56.5z" />
<glyph unicode="&#xb3;" horiz-adv-x="929" d="M168 702q0 30 22 52t54 22q30 0 65 -24q95 -74 205 -74q75 0 117.5 31.5t42.5 85.5q0 58 -43.5 83t-128.5 25h-47q-34 0 -59 17t-25 55q0 33 23.5 54.5t70.5 21.5h67q80 0 124 30t44 80q0 82 -106 82q-22 0 -44 -3t-33 -5t-37 -9t-34 -9q-43 -11 -71.5 10.5t-28.5 54.5 q0 23 15.5 43.5t46.5 30.5q97 33 210 33q118 0 188.5 -50.5t70.5 -146.5q0 -76 -45.5 -130t-126.5 -81q62 -14 101.5 -61t39.5 -115q0 -113 -87 -193t-249 -80q-170 0 -301 99q-41 33 -41 71z" />
<glyph unicode="&#xb4;" horiz-adv-x="647" d="M283 1102q0 39 36 78l150 155q32 35 78 35q39 0 68.5 -26t29.5 -64q0 -42 -37 -82l-137 -147q-38 -41 -86 -41q-40 0 -71 27t-31 65z" />
<glyph unicode="&#xb5;" horiz-adv-x="1146" d="M-6 -299q0 11 4 35l184 1046q10 54 46 88.5t96 34.5q52 0 79 -27.5t27 -70.5q0 -11 -4 -35l-64 -362q-4 -24 -4 -56q0 -73 38.5 -115t115.5 -42q100 0 156.5 58.5t72.5 154.5l66 372q22 123 141 123q52 0 79.5 -27.5t27.5 -70.5q0 -11 -4 -35l-117 -663 q-21 -125 -143 -125q-48 0 -76.5 26.5t-28.5 73.5q0 9 4 33l4 18q-42 -72 -120.5 -116t-172.5 -44q-60 0 -112 19l-47 -268q-22 -123 -142 -123q-52 0 -79 27.5t-27 70.5z" />
<glyph unicode="&#xb6;" horiz-adv-x="1198" d="M166 893q0 215 128 343t355 128h436q37 0 57.5 -19.5t20.5 -50.5q0 -8 -4 -28l-213 -1196q-14 -86 -96 -86q-37 0 -57.5 19.5t-20.5 49.5q0 9 4 29l201 1126h-182l-269 -1521q-15 -86 -98 -86q-35 0 -54.5 21.5t-19.5 53.5q0 11 4 31l148 846q-149 0 -244.5 96.5 t-95.5 243.5z" />
<glyph unicode="&#xb7;" horiz-adv-x="526" d="M137 575q0 67 47 114.5t117 47.5q53 0 87 -33t34 -83q0 -64 -45 -114t-117 -50q-58 0 -90.5 32.5t-32.5 85.5z" />
<glyph unicode="&#xb8;" horiz-adv-x="622" d="M-43 -326q0 25 14.5 42.5t42.5 17.5q20 0 62 -11.5t84 -11.5q45 0 68.5 15t23.5 38q0 41 -70 41q-16 0 -46 -5t-48 -5q-21 0 -31.5 13t-5.5 32q2 10 6.5 20t13.5 26.5t16 28t24 39.5t28 46h119l-63 -111q27 9 57 9q76 0 118 -31t42 -94q0 -76 -64 -124t-184 -48 q-207 0 -207 73z" />
<glyph unicode="&#xb9;" horiz-adv-x="737" d="M225 1221q0 58 64 75l256 76q24 8 47 8q39 0 59 -23.5t13 -64.5l-119 -665q-7 -37 -31.5 -61.5t-67.5 -24.5q-38 0 -58.5 25t-14.5 61l100 563l-147 -41q-16 -4 -25 -4q-33 0 -54.5 23t-21.5 53z" />
<glyph unicode="&#xba;" horiz-adv-x="811" d="M186 1030q0 153 99 256t268 103q127 0 199.5 -74.5t72.5 -190.5q0 -69 -24.5 -133t-69.5 -115.5t-117.5 -82.5t-160.5 -31q-122 0 -194.5 78t-72.5 190zM350 1032q0 -59 32.5 -94t92.5 -35q87 0 137 63.5t50 145.5q0 59 -33 97t-92 38q-80 0 -133.5 -61.5t-53.5 -153.5z " />
<glyph unicode="&#xbb;" horiz-adv-x="1214" d="M51 164q0 51 45 84l262 209l-178 194q-22 28 -22 56q0 40 31.5 69t72.5 29q46 0 76 -33l235 -264q23 -26 23 -59q0 -44 -45 -80l-336 -269q-40 -28 -72 -28q-37 0 -64.5 26.5t-27.5 65.5zM559 164q0 51 45 84l262 209l-178 194q-22 28 -22 56q0 40 31.5 69t72.5 29 q46 0 76 -33l235 -264q23 -26 23 -59q0 -44 -45 -80l-336 -269q-40 -28 -72 -28q-37 0 -64.5 26.5t-27.5 65.5z" />
<glyph unicode="&#xbc;" horiz-adv-x="1828" d="M262 1221q0 58 64 75l256 76q24 8 47 8q39 0 58.5 -23.5t12.5 -64.5l-118 -665q-7 -37 -31.5 -61.5t-67.5 -24.5q-38 0 -58.5 25t-14.5 61l100 563l-148 -41q-16 -4 -24 -4q-33 0 -54.5 23t-21.5 53zM291 51q0 26 20 49l1055 1252q30 37 72 37q30 0 51.5 -20.5 t21.5 -49.5t-24 -59l-1055 -1252q-26 -33 -63 -33q-31 0 -54.5 22.5t-23.5 53.5zM903 270q0 36 37 70l516 463q39 33 78 33q37 0 54 -24.5t11 -63.5l-71 -400h82q31 0 50 -17.5t19 -45.5q0 -33 -22.5 -52.5t-65.5 -19.5h-86l-24 -137q-6 -36 -31.5 -60t-67.5 -24 q-37 0 -55 24.5t-12 59.5l24 137h-370q-28 0 -47 16t-19 41zM1137 348h225l45 248z" />
<glyph unicode="&#xbd;" horiz-adv-x="1927" d="M262 1221q0 58 64 75l256 76q24 8 47 8q39 0 58.5 -23.5t12.5 -64.5l-118 -665q-7 -37 -31.5 -61.5t-67.5 -24.5q-38 0 -58.5 25t-14.5 61l100 563l-148 -41q-16 -4 -24 -4q-33 0 -54.5 23t-21.5 53zM291 51q0 26 20 49l1055 1252q30 37 72 37q30 0 51.5 -20.5 t21.5 -49.5t-24 -59l-1055 -1252q-26 -33 -63 -33q-31 0 -54.5 22.5t-23.5 53.5zM1051 80q9 56 33 103t52 79t74.5 63.5t81 49.5t92.5 45q17 8 54.5 24.5t54 24.5t45 22.5t41 25t28 25.5t21.5 30.5t6 33.5q0 76 -137 76q-94 0 -180 -37q-44 -18 -77.5 6.5t-33.5 63.5 q0 57 66 82q117 47 246 47q128 0 208 -59.5t80 -161.5q0 -35 -9 -66.5t-20.5 -54.5t-37 -47.5t-44.5 -40t-58 -37.5t-61.5 -33t-70.5 -35q-16 -8 -46 -22.5t-43.5 -21t-37 -18.5t-35 -18.5t-27.5 -17t-24.5 -18.5t-16.5 -17.5t-13 -19.5h380q34 0 56 -21t22 -53 q0 -36 -24 -59t-68 -23h-510q-34 0 -53 23.5t-14 56.5z" />
<glyph unicode="&#xbe;" horiz-adv-x="2019" d="M182 702q0 30 22 52t54 22t66 -24q95 -74 204 -74q75 0 117.5 31.5t42.5 85.5q0 58 -43.5 83t-128.5 25h-47q-34 0 -59 17t-25 55q0 33 23.5 54.5t70.5 21.5h68q80 0 124 30t44 80q0 82 -107 82q-22 0 -43.5 -3t-33 -5.5t-36.5 -9t-34 -8.5q-43 -11 -72 10.5t-29 54.5 q0 23 15.5 43.5t46.5 30.5q97 33 211 33q118 0 188 -50.5t70 -146.5q0 -76 -45.5 -130t-126.5 -81q62 -14 101.5 -61t39.5 -115q0 -113 -87 -193t-249 -80q-170 0 -301 99q-41 33 -41 71zM481 51q0 25 21 49l1054 1252q30 37 72 37q30 0 52 -20.5t22 -49.5q0 -28 -25 -59 l-1054 -1252q-26 -33 -64 -33q-31 0 -54.5 22.5t-23.5 53.5zM1094 270q0 37 36 70l517 463q39 33 77 33q37 0 54.5 -24.5t11.5 -63.5l-72 -400h82q31 0 50.5 -17.5t19.5 -45.5q0 -33 -22.5 -52.5t-65.5 -19.5h-86l-25 -137q-7 -37 -31.5 -60.5t-66.5 -23.5q-37 0 -55.5 24.5 t-12.5 59.5l25 137h-371q-28 0 -46.5 16t-18.5 41zM1327 348h225l45 248z" />
<glyph unicode="&#xbf;" horiz-adv-x="968" d="M-45 -127q0 57 13 102t43 83.5t64 68.5t91 70q25 18 66.5 45.5t60.5 41.5t43 35t36 42t17 47l2 10q10 54 41 84t94 30q53 0 78 -27.5t25 -72.5q0 -11 -4 -31l-2 -10q-19 -92 -65.5 -148t-145.5 -128q-22 -16 -61 -42.5t-58.5 -41.5t-42.5 -36t-33 -41.5t-10 -43.5 q0 -50 45.5 -69t130.5 -19q69 0 125.5 13t136.5 44q27 10 57 10q39 0 65 -23t26 -61q0 -49 -30 -81t-87 -58q-135 -65 -342 -65q-172 0 -275.5 67t-103.5 205zM420 752q0 67 47 114t117 47q53 0 87 -33t34 -83q0 -64 -45 -114t-117 -50q-58 0 -90.5 33t-32.5 86z" />
<glyph unicode="&#xc0;" horiz-adv-x="1419" d="M0 86q0 38 35 90l706 1118q26 42 57.5 64t84.5 22q47 0 73 -26t39 -76l305 -1131q9 -32 9 -49q0 -50 -39.5 -82t-95.5 -32q-49 0 -71.5 23t-35.5 65l-66 229h-606l-157 -248q-17 -24 -28 -36t-33.5 -22.5t-53.5 -10.5q-50 0 -86.5 31t-36.5 71zM524 520h426l-123 512z M674 1712q0 41 29.5 65.5t68.5 24.5q58 0 88 -51l68 -115q16 -29 16 -57q0 -42 -30.5 -70t-75.5 -28q-49 0 -80 55l-72 127q-12 24 -12 49z" />
<glyph unicode="&#xc1;" horiz-adv-x="1419" d="M0 86q0 38 35 90l706 1118q26 42 57.5 64t84.5 22q47 0 73 -26t39 -76l305 -1131q9 -32 9 -49q0 -50 -39.5 -82t-95.5 -32q-49 0 -71.5 23t-35.5 65l-66 229h-606l-157 -248q-17 -24 -28 -36t-33.5 -22.5t-53.5 -10.5q-50 0 -86.5 31t-36.5 71zM524 520h426l-123 512z M801 1571q0 39 30 69l132 136q29 26 67 26q37 0 65.5 -26t28.5 -62q0 -34 -22 -61l-123 -131q-38 -41 -84 -41q-38 0 -66 26.5t-28 63.5z" />
<glyph unicode="&#xc2;" horiz-adv-x="1419" d="M0 86q0 38 35 90l706 1118q26 42 57.5 64t84.5 22q47 0 73 -26t39 -76l305 -1131q9 -32 9 -49q0 -50 -39.5 -82t-95.5 -32q-49 0 -71.5 23t-35.5 65l-66 229h-606l-157 -248q-17 -24 -28 -36t-33.5 -22.5t-53.5 -10.5q-50 0 -86.5 31t-36.5 71zM524 520h426l-123 512z M604 1546q0 43 35 64l235 149q35 21 58 21q27 0 51 -21l164 -145q31 -31 31 -66q0 -33 -26.5 -56.5t-59.5 -23.5q-28 0 -64 29l-119 100l-168 -106q-33 -23 -61 -23q-31 0 -53.5 24t-22.5 54z" />
<glyph unicode="&#xc3;" horiz-adv-x="1419" d="M0 86q0 38 35 90l706 1118q26 42 57.5 64t84.5 22q47 0 73 -26t39 -76l305 -1131q9 -32 9 -49q0 -50 -39.5 -82t-95.5 -32q-49 0 -71.5 23t-35.5 65l-66 229h-606l-157 -248q-17 -24 -28 -36t-33.5 -22.5t-53.5 -10.5q-50 0 -86.5 31t-36.5 71zM524 520h426l-123 512z M571 1575q0 69 66 120.5t156 51.5q47 0 132 -30.5t113 -30.5q29 0 72.5 23.5t63.5 23.5q27 0 46 -17t19 -45q0 -62 -56 -113t-143 -51q-42 0 -128 33t-119 33q-40 0 -84 -30t-70 -30q-30 0 -49 17.5t-19 44.5z" />
<glyph unicode="&#xc4;" horiz-adv-x="1419" d="M0 86q0 38 35 90l706 1118q26 42 57.5 64t84.5 22q47 0 73 -26t39 -76l305 -1131q9 -32 9 -49q0 -50 -39.5 -82t-95.5 -32q-49 0 -71.5 23t-35.5 65l-66 229h-606l-157 -248q-17 -24 -28 -36t-33.5 -22.5t-53.5 -10.5q-50 0 -86.5 31t-36.5 71zM524 520h426l-123 512z M565 1612q0 60 39.5 99.5t106.5 39.5q45 0 75.5 -29t30.5 -75q0 -59 -38 -101.5t-105 -42.5q-50 0 -79.5 32t-29.5 77zM995 1612q0 60 39.5 99.5t106.5 39.5q45 0 75.5 -29t30.5 -75q0 -59 -38 -101.5t-105 -42.5q-50 0 -79.5 32t-29.5 77z" />
<glyph unicode="&#xc5;" horiz-adv-x="1419" d="M0 86q0 38 35 90l706 1118q13 23 25 35q-47 41 -47 111q0 84 53.5 136t142.5 52q70 0 114 -41t44 -106q0 -114 -92 -164q7 -13 14 -39l305 -1131q9 -32 9 -49q0 -50 -39.5 -82t-95.5 -32q-49 0 -71.5 23t-35.5 65l-66 229h-606l-157 -248q-17 -24 -28 -36t-33.5 -22.5 t-53.5 -10.5q-50 0 -86.5 31t-36.5 71zM524 520h426l-123 512zM823 1448q0 -27 16.5 -43t47.5 -16q40 0 63 23t23 58q0 28 -18 45t-48 17q-37 0 -60.5 -23.5t-23.5 -60.5z" />
<glyph unicode="&#xc6;" horiz-adv-x="1961" d="M0 86q0 38 35 90l704 1102q26 42 57.5 64t84.5 22h1009q45 0 76 -27.5t31 -76.5q0 -53 -38 -90t-101 -37h-830l90 -326h402q45 0 72.5 -25.5t27.5 -74.5q0 -53 -38.5 -92.5t-100.5 -39.5h-299l96 -344h451q44 0 72 -27t28 -73q0 -53 -38.5 -92t-100.5 -39h-521 q-49 0 -71 22.5t-35 65.5l-62 213h-606l-157 -248q-17 -24 -28 -36t-33.5 -22.5t-53.5 -10.5q-50 0 -86.5 31t-36.5 71zM524 520h426l-125 496z" />
<glyph unicode="&#xc7;" horiz-adv-x="1376" d="M109 551q0 249 98.5 438.5t285 294.5t435.5 105q129 0 249 -45.5t193 -129.5q27 -34 27 -65q0 -53 -34 -88t-89 -35q-38 0 -78 29q-67 50 -133 77t-160 27q-231 0 -383.5 -161t-152.5 -418q0 -171 94 -273t274 -102q95 0 169.5 29t152.5 85q45 29 86 29q45 0 75.5 -30.5 t30.5 -73.5q0 -58 -57 -105q-185 -154 -453 -164l-49 -86q27 9 58 9q76 0 117.5 -31t41.5 -94q0 -76 -64 -124t-184 -48q-206 0 -206 73q0 25 14.5 42.5t42.5 17.5q20 0 61.5 -11.5t83.5 -11.5q45 0 69 15t24 38q0 41 -70 41q-16 0 -46 -5t-48 -5q-21 0 -31.5 13t-5.5 32 q2 9 5.5 18.5t11.5 24t14 24.5t21 34t24 39q-234 26 -374 184t-140 387z" />
<glyph unicode="&#xc8;" horiz-adv-x="1245" d="M96 102q0 19 4 35l195 1102q9 55 48.5 90t100.5 35h736q44 0 72 -27t28 -73q0 -53 -38.5 -92t-100.5 -39h-615l-57 -326h336q45 0 72.5 -25.5t27.5 -74.5q0 -53 -38.5 -92.5t-100.5 -39.5h-338l-61 -344h645q44 0 72 -27t28 -73q0 -53 -38.5 -92t-100.5 -39h-768 q-47 0 -78 29t-31 73zM637 1712q0 41 29.5 65.5t68.5 24.5q58 0 88 -51l68 -115q16 -29 16 -57q0 -42 -30.5 -70t-75.5 -28q-49 0 -80 55l-72 127q-12 24 -12 49z" />
<glyph unicode="&#xc9;" horiz-adv-x="1245" d="M96 102q0 19 4 35l195 1102q9 55 48.5 90t100.5 35h736q44 0 72 -27t28 -73q0 -53 -38.5 -92t-100.5 -39h-615l-57 -326h336q45 0 72.5 -25.5t27.5 -74.5q0 -53 -38.5 -92.5t-100.5 -39.5h-338l-61 -344h645q44 0 72 -27t28 -73q0 -53 -38.5 -92t-100.5 -39h-768 q-47 0 -78 29t-31 73zM713 1571q0 39 30 69l131 136q29 26 68 26q37 0 65.5 -26t28.5 -62q0 -34 -22 -61l-123 -131q-38 -41 -84 -41q-38 0 -66 26.5t-28 63.5z" />
<glyph unicode="&#xca;" horiz-adv-x="1245" d="M96 102q0 19 4 35l195 1102q9 55 48.5 90t100.5 35h736q44 0 72 -27t28 -73q0 -53 -38.5 -92t-100.5 -39h-615l-57 -326h336q45 0 72.5 -25.5t27.5 -74.5q0 -53 -38.5 -92.5t-100.5 -39.5h-338l-61 -344h645q44 0 72 -27t28 -73q0 -53 -38.5 -92t-100.5 -39h-768 q-47 0 -78 29t-31 73zM537 1546q0 44 34 64l236 149q35 21 57 21q27 0 51 -21l164 -145q31 -31 31 -66q0 -33 -26.5 -56.5t-59.5 -23.5q-27 0 -63 29l-119 100l-168 -106q-33 -23 -62 -23q-31 0 -53 24t-22 54z" />
<glyph unicode="&#xcb;" horiz-adv-x="1245" d="M96 102q0 19 4 35l195 1102q9 55 48.5 90t100.5 35h736q44 0 72 -27t28 -73q0 -53 -38.5 -92t-100.5 -39h-615l-57 -326h336q45 0 72.5 -25.5t27.5 -74.5q0 -53 -38.5 -92.5t-100.5 -39.5h-338l-61 -344h645q44 0 72 -27t28 -73q0 -53 -38.5 -92t-100.5 -39h-768 q-47 0 -78 29t-31 73zM498 1612q0 60 39 99.5t106 39.5q45 0 76 -29t31 -75q0 -59 -38.5 -101.5t-105.5 -42.5q-50 0 -79 32t-29 77zM928 1612q0 60 39 99.5t106 39.5q45 0 76 -29t31 -75q0 -59 -38.5 -101.5t-105.5 -42.5q-50 0 -79 32t-29 77z" />
<glyph unicode="&#xcc;" horiz-adv-x="598" d="M102 88q0 11 2 23l201 1142q21 127 144 127q50 0 79 -29t29 -73q0 -15 -2 -25l-201 -1142q-11 -60 -48 -93.5t-99 -33.5q-48 0 -76.5 30t-28.5 74zM276 1712q0 41 30 65.5t69 24.5q58 0 88 -51l67 -115q17 -31 17 -57q0 -42 -31 -70t-76 -28q-49 0 -80 55l-71 127 q-13 26 -13 49z" />
<glyph unicode="&#xcd;" horiz-adv-x="598" d="M102 88q0 11 2 23l201 1142q21 127 144 127q50 0 79 -29t29 -73q0 -15 -2 -25l-201 -1142q-11 -60 -48 -93.5t-99 -33.5q-48 0 -76.5 30t-28.5 74zM365 1571q0 39 30 69l131 136q29 26 68 26q37 0 65.5 -26t28.5 -62q0 -34 -22 -61l-123 -131q-38 -41 -84 -41 q-38 0 -66 26.5t-28 63.5z" />
<glyph unicode="&#xce;" horiz-adv-x="598" d="M102 88q0 11 2 23l201 1142q21 127 144 127q50 0 79 -29t29 -73q0 -15 -2 -25l-201 -1142q-11 -60 -48 -93.5t-99 -33.5q-48 0 -76.5 30t-28.5 74zM182 1546q0 43 35 64l236 149q35 21 57 21q27 0 51 -21l164 -145q31 -31 31 -66q0 -33 -26.5 -56.5t-59.5 -23.5 q-28 0 -64 29l-119 100l-168 -106q-33 -23 -61 -23q-31 0 -53.5 24t-22.5 54z" />
<glyph unicode="&#xcf;" horiz-adv-x="598" d="M102 88q0 11 2 23l201 1142q21 127 144 127q50 0 79 -29t29 -73q0 -15 -2 -25l-201 -1142q-11 -60 -48 -93.5t-99 -33.5q-48 0 -76.5 30t-28.5 74zM154 1612q0 60 39 99.5t106 39.5q45 0 76 -29t31 -75q0 -59 -38.5 -101.5t-105.5 -42.5q-50 0 -79 32t-29 77zM584 1612 q0 60 39 99.5t106 39.5q45 0 76 -29t31 -75q0 -59 -38.5 -101.5t-105.5 -42.5q-50 0 -79 32t-29 77z" />
<glyph unicode="&#xd0;" horiz-adv-x="1527" d="M66 672q0 56 37 87.5t94 31.5h112l80 448q9 55 48.5 90t101.5 35h356q274 0 432 -149.5t158 -407.5q0 -132 -33 -252t-100.5 -221.5t-163.5 -175.5t-229.5 -116t-290.5 -42h-367q-49 0 -80 29.5t-31 74.5q0 13 5 33l77 438h-104q-47 0 -74.5 29t-27.5 68zM461 231h239 q105 0 194 32t150.5 85.5t104.5 125t63.5 150t20.5 160.5q0 169 -95.5 259t-277.5 90h-239l-62 -342h193q41 0 70.5 -28.5t29.5 -72.5q0 -49 -36.5 -82t-92.5 -33h-201z" />
<glyph unicode="&#xd1;" horiz-adv-x="1488" d="M92 90q0 11 4 31l201 1136q21 123 135 123q76 0 121 -77l516 -867l143 826q9 59 42 88.5t96 29.5q52 0 80 -30t28 -76q0 -13 -4 -37l-201 -1137q-8 -51 -43.5 -83.5t-99.5 -32.5q-39 0 -61.5 17t-40.5 48l-523 881l-145 -830q-20 -116 -137 -116q-53 0 -82 31t-29 75z M575 1575q0 69 66 120.5t156 51.5q47 0 132 -30.5t113 -30.5q29 0 72.5 23.5t63.5 23.5q27 0 46 -17t19 -45q0 -62 -56 -113t-143 -51q-42 0 -128 33t-119 33q-40 0 -84 -30t-70 -30q-30 0 -49 17.5t-19 44.5z" />
<glyph unicode="&#xd2;" horiz-adv-x="1585" d="M111 553q0 175 62.5 329.5t171.5 266t264 176t333 64.5q266 0 430 -159.5t164 -416.5q0 -167 -63 -320t-172 -267.5t-266 -182.5t-335 -68q-131 0 -242 44t-186.5 121t-118 183.5t-42.5 229.5zM367 584q0 -171 93 -277t279 -106q115 0 216.5 47.5t172.5 127t112.5 186.5 t41.5 222q0 169 -98 274t-275 105q-152 0 -277 -79t-195 -212t-70 -288zM725 1712q0 41 29.5 65.5t68.5 24.5q58 0 88 -51l68 -115q16 -29 16 -57q0 -42 -30.5 -70t-75.5 -28q-49 0 -80 55l-72 127q-12 24 -12 49z" />
<glyph unicode="&#xd3;" horiz-adv-x="1585" d="M111 553q0 175 62.5 329.5t171.5 266t264 176t333 64.5q266 0 430 -159.5t164 -416.5q0 -167 -63 -320t-172 -267.5t-266 -182.5t-335 -68q-131 0 -242 44t-186.5 121t-118 183.5t-42.5 229.5zM367 584q0 -171 93 -277t279 -106q115 0 216.5 47.5t172.5 127t112.5 186.5 t41.5 222q0 169 -98 274t-275 105q-152 0 -277 -79t-195 -212t-70 -288zM782 1571q0 38 31 69l131 136q29 26 68 26q37 0 65.5 -26t28.5 -62q0 -32 -23 -61l-122 -131q-38 -41 -84 -41q-38 0 -66.5 26.5t-28.5 63.5z" />
<glyph unicode="&#xd4;" horiz-adv-x="1585" d="M111 553q0 175 62.5 329.5t171.5 266t264 176t333 64.5q266 0 430 -159.5t164 -416.5q0 -167 -63 -320t-172 -267.5t-266 -182.5t-335 -68q-131 0 -242 44t-186.5 121t-118 183.5t-42.5 229.5zM367 584q0 -171 93 -277t279 -106q115 0 216.5 47.5t172.5 127t112.5 186.5 t41.5 222q0 169 -98 274t-275 105q-152 0 -277 -79t-195 -212t-70 -288zM696 1546q0 43 35 64l236 149q35 21 57 21q27 0 51 -21l164 -145q31 -31 31 -66q0 -33 -26.5 -56.5t-59.5 -23.5q-28 0 -64 29l-119 100l-167 -106q-33 -23 -62 -23q-31 0 -53.5 24t-22.5 54z" />
<glyph unicode="&#xd5;" horiz-adv-x="1585" d="M111 553q0 175 62.5 329.5t171.5 266t264 176t333 64.5q266 0 430 -159.5t164 -416.5q0 -167 -63 -320t-172 -267.5t-266 -182.5t-335 -68q-131 0 -242 44t-186.5 121t-118 183.5t-42.5 229.5zM367 584q0 -171 93 -277t279 -106q115 0 216.5 47.5t172.5 127t112.5 186.5 t41.5 222q0 169 -98 274t-275 105q-152 0 -277 -79t-195 -212t-70 -288zM633 1575q0 69 65.5 120.5t155.5 51.5q47 0 132.5 -30.5t113.5 -30.5q29 0 72 23.5t63 23.5q27 0 46 -17t19 -45q0 -62 -55.5 -113t-142.5 -51q-42 0 -129 33t-119 33q-40 0 -84 -30t-70 -30 q-29 0 -48 17t-19 45z" />
<glyph unicode="&#xd6;" horiz-adv-x="1585" d="M111 553q0 175 62.5 329.5t171.5 266t264 176t333 64.5q266 0 430 -159.5t164 -416.5q0 -167 -63 -320t-172 -267.5t-266 -182.5t-335 -68q-131 0 -242 44t-186.5 121t-118 183.5t-42.5 229.5zM367 584q0 -171 93 -277t279 -106q115 0 216.5 47.5t172.5 127t112.5 186.5 t41.5 222q0 169 -98 274t-275 105q-152 0 -277 -79t-195 -212t-70 -288zM635 1612q0 60 39 99.5t106 39.5q45 0 76 -29t31 -75q0 -59 -38.5 -101.5t-105.5 -42.5q-50 0 -79 32t-29 77zM1065 1612q0 60 39 99.5t106 39.5q45 0 76 -29t31 -75q0 -59 -38 -101.5t-105 -42.5 q-50 0 -79.5 32t-29.5 77z" />
<glyph unicode="&#xd7;" horiz-adv-x="1003" d="M182 354q0 41 29 70l190 190l-190 191q-29 29 -29 69q0 41 29 71t70 30q40 0 69 -29l191 -190l190 190q29 29 70 29t69.5 -28.5t28.5 -69.5q0 -43 -29 -72l-190 -191l190 -190q29 -29 29 -70q0 -40 -29 -69t-69 -29q-41 0 -70 29l-190 190l-191 -190q-29 -29 -69 -29 t-69.5 29t-29.5 69z" />
<glyph unicode="&#xd8;" horiz-adv-x="1585" d="M-8 -76q0 33 28 58l211 204q-120 151 -120 367q0 175 62.5 329.5t171.5 266t264 176t333 64.5q235 0 395 -129l217 210q21 21 50 21q23 0 39 -15t16 -36q0 -26 -25 -51l-217 -211q119 -150 119 -365q0 -167 -63 -320t-172 -267.5t-266 -182.5t-335 -68q-235 0 -389 129 l-215 -208q-26 -23 -53 -23q-22 0 -36.5 14.5t-14.5 36.5zM367 584q0 -126 49 -217l739 716q-96 80 -246 80q-152 0 -277 -79t-195 -212t-70 -288zM489 279q94 -78 250 -78q115 0 216.5 47.5t172.5 127t112.5 186.5t41.5 222q0 122 -53 211z" />
<glyph unicode="&#xd9;" horiz-adv-x="1486" d="M156 424q0 60 12 127l123 702q21 127 143 127q50 0 79.5 -29t29.5 -73q0 -15 -2 -25l-127 -729q-8 -41 -8 -86q0 -237 284 -237q168 0 265.5 86.5t125.5 236.5l127 729q21 127 144 127q50 0 79 -29t29 -73q0 -15 -2 -25l-125 -723q-47 -273 -211 -414t-473 -141 q-232 0 -362.5 119.5t-130.5 329.5zM721 1712q0 41 29.5 65.5t68.5 24.5q58 0 88 -51l68 -115q16 -29 16 -57q0 -42 -30.5 -70t-75.5 -28q-49 0 -80 55l-72 127q-12 24 -12 49z" />
<glyph unicode="&#xda;" horiz-adv-x="1486" d="M156 424q0 60 12 127l123 702q21 127 143 127q50 0 79.5 -29t29.5 -73q0 -15 -2 -25l-127 -729q-8 -41 -8 -86q0 -237 284 -237q168 0 265.5 86.5t125.5 236.5l127 729q21 127 144 127q50 0 79 -29t29 -73q0 -15 -2 -25l-125 -723q-47 -273 -211 -414t-473 -141 q-232 0 -362.5 119.5t-130.5 329.5zM791 1571q0 39 30 69l131 136q29 26 68 26q37 0 65.5 -26t28.5 -62q0 -34 -22 -61l-123 -131q-38 -41 -84 -41q-38 0 -66 26.5t-28 63.5z" />
<glyph unicode="&#xdb;" horiz-adv-x="1486" d="M156 424q0 60 12 127l123 702q21 127 143 127q50 0 79.5 -29t29.5 -73q0 -15 -2 -25l-127 -729q-8 -41 -8 -86q0 -237 284 -237q168 0 265.5 86.5t125.5 236.5l127 729q21 127 144 127q50 0 79 -29t29 -73q0 -15 -2 -25l-125 -723q-47 -273 -211 -414t-473 -141 q-232 0 -362.5 119.5t-130.5 329.5zM629 1546q0 43 35 64l235 149q35 21 57 21q28 0 52 -21l163 -145q31 -31 31 -66q0 -33 -26.5 -56.5t-59.5 -23.5q-27 0 -63 29l-119 100l-168 -106q-33 -23 -61 -23q-31 0 -53.5 24t-22.5 54z" />
<glyph unicode="&#xdc;" horiz-adv-x="1486" d="M156 424q0 60 12 127l123 702q21 127 143 127q50 0 79.5 -29t29.5 -73q0 -15 -2 -25l-127 -729q-8 -41 -8 -86q0 -237 284 -237q168 0 265.5 86.5t125.5 236.5l127 729q21 127 144 127q50 0 79 -29t29 -73q0 -15 -2 -25l-125 -723q-47 -273 -211 -414t-473 -141 q-232 0 -362.5 119.5t-130.5 329.5zM590 1612q0 60 39 99.5t106 39.5q45 0 76 -29t31 -75q0 -59 -38.5 -101.5t-105.5 -42.5q-50 0 -79 32t-29 77zM1020 1612q0 60 39 99.5t106 39.5q45 0 76 -29t31 -75q0 -59 -38.5 -101.5t-105.5 -42.5q-50 0 -79 32t-29 77z" />
<glyph unicode="&#xdd;" horiz-adv-x="1191" d="M143 1266q0 53 41.5 83.5t96.5 30.5q60 0 88 -51l286 -498l445 494q19 20 30 29.5t30.5 17.5t43.5 8q42 0 78.5 -32t36.5 -72q0 -46 -37 -86l-534 -590l-86 -489q-10 -57 -46.5 -92t-101.5 -35q-47 0 -75.5 29.5t-28.5 74.5q0 11 4 35l84 477l-342 614q-13 26 -13 52z M657 1571q0 38 31 69l131 136q29 26 68 26q37 0 65.5 -26t28.5 -62q0 -32 -23 -61l-122 -131q-38 -41 -84 -41q-38 0 -66.5 26.5t-28.5 63.5z" />
<glyph unicode="&#xde;" horiz-adv-x="1351" d="M92 88q0 11 2 23l203 1142q21 127 143 127q50 0 79.5 -29t29.5 -73q0 -15 -2 -25l-27 -151h389q108 0 190.5 -26.5t132.5 -74.5t74.5 -109t24.5 -134q0 -229 -141.5 -360.5t-425.5 -131.5h-391l-29 -155q-23 -127 -147 -127q-48 0 -76.5 30t-28.5 74zM414 498h426 q116 0 175.5 65t59.5 154q0 71 -44.5 113t-131.5 42h-420z" />
<glyph unicode="&#xdf;" horiz-adv-x="1312" d="M74 92q0 19 4 35l145 831q37 214 157.5 321t360.5 107q182 0 284.5 -77t102.5 -201q0 -82 -32 -141t-92 -123q-20 -21 -47 -48t-42.5 -43.5t-31.5 -35t-23.5 -33t-7.5 -27.5q0 -21 20 -35.5t87 -47.5q32 -15 51 -25q97 -49 144.5 -106t47.5 -142q0 -143 -96 -234.5 t-293 -91.5q-169 0 -297 78q-53 31 -53 86q0 47 26.5 74t75.5 27q15 0 28 -4.5t34.5 -17t23.5 -13.5q78 -45 162 -45q74 0 111 27t37 75q0 32 -29.5 57t-102.5 56q-129 56 -179 110.5t-50 141.5q0 27 3.5 50t14.5 46.5t17.5 37t27 37.5t27 31.5t35 35t33.5 32.5q8 8 34 33 t36.5 36.5t27 31.5t23 37t6.5 34q0 54 -44.5 83.5t-121.5 29.5q-209 0 -246 -211l-151 -865q-9 -56 -45 -89t-95 -33q-51 0 -79.5 31t-28.5 77z" />
<glyph unicode="&#xe0;" d="M66 213q0 155 105 239.5t267 84.5q76 0 141 -28.5t101 -80.5l12 80q4 28 4 55q0 74 -43 108t-135 34q-69 0 -151 -23t-101 -23q-39 0 -63.5 23t-24.5 59q0 43 33 76t79 50.5t105.5 28.5t102.5 14t80 3q179 0 274.5 -79.5t95.5 -231.5q0 -39 -12 -113l-68 -383 q-9 -53 -42 -87.5t-97 -34.5q-48 0 -76 27.5t-28 70.5q0 14 2 24q-107 -131 -289 -131q-127 0 -199.5 67.5t-72.5 170.5zM311 238q0 -46 37 -72.5t107 -26.5q82 0 139 37.5t57 91.5q0 50 -43.5 77.5t-113.5 27.5q-87 0 -135 -35t-48 -100zM406 1264q0 42 30 71t74 29 q58 0 88 -51l82 -142q16 -29 16 -57q0 -43 -33.5 -73.5t-80.5 -30.5q-49 0 -80 55l-84 149q-12 24 -12 50z" />
<glyph unicode="&#xe1;" d="M66 213q0 155 105 239.5t267 84.5q76 0 141 -28.5t101 -80.5l12 80q4 28 4 55q0 74 -43 108t-135 34q-69 0 -151 -23t-101 -23q-39 0 -63.5 23t-24.5 59q0 43 33 76t79 50.5t105.5 28.5t102.5 14t80 3q179 0 274.5 -79.5t95.5 -231.5q0 -39 -12 -113l-68 -383 q-9 -53 -42 -87.5t-97 -34.5q-48 0 -76 27.5t-28 70.5q0 14 2 24q-107 -131 -289 -131q-127 0 -199.5 67.5t-72.5 170.5zM311 238q0 -46 37 -72.5t107 -26.5q82 0 139 37.5t57 91.5q0 50 -43.5 77.5t-113.5 27.5q-87 0 -135 -35t-48 -100zM463 1102q0 38 37 78l149 155 q32 35 78 35q39 0 68.5 -26t29.5 -64q0 -42 -37 -82l-137 -147q-38 -41 -86 -41q-40 0 -71 27t-31 65z" />
<glyph unicode="&#xe2;" d="M66 213q0 155 105 239.5t267 84.5q76 0 141 -28.5t101 -80.5l12 80q4 28 4 55q0 74 -43 108t-135 34q-69 0 -151 -23t-101 -23q-39 0 -63.5 23t-24.5 59q0 43 33 76t79 50.5t105.5 28.5t102.5 14t80 3q179 0 274.5 -79.5t95.5 -231.5q0 -39 -12 -113l-68 -383 q-9 -53 -42 -87.5t-97 -34.5q-48 0 -76 27.5t-28 70.5q0 14 2 24q-107 -131 -289 -131q-127 0 -199.5 67.5t-72.5 170.5zM311 238q0 -46 37 -72.5t107 -26.5q82 0 139 37.5t57 91.5q0 50 -43.5 77.5t-113.5 27.5q-87 0 -135 -35t-48 -100zM326 1087q0 39 30 62l238 180 q27 21 57 21t51 -21l166 -174q29 -33 29 -65q0 -33 -25.5 -56.5t-58.5 -23.5q-38 0 -63 28l-119 123l-170 -129q-31 -22 -60 -22q-31 0 -53 23.5t-22 53.5z" />
<glyph unicode="&#xe3;" horiz-adv-x="1081" d="M66 213q0 155 105 239.5t267 84.5q76 0 141 -28.5t101 -80.5l12 80q4 28 4 55q0 74 -43 108t-135 34q-69 0 -151 -23t-101 -23q-39 0 -63.5 23t-24.5 59q0 43 33 76t79 50.5t105.5 28.5t102.5 14t80 3q179 0 274.5 -79.5t95.5 -231.5q0 -39 -12 -113l-68 -383 q-9 -53 -42 -87.5t-97 -34.5q-48 0 -76 27.5t-28 70.5q0 14 2 24q-107 -131 -289 -131q-127 0 -199.5 67.5t-72.5 170.5zM297 1083q0 67 70.5 117.5t156.5 50.5q47 0 115 -30.5t96 -30.5q29 0 72 25.5t63 25.5q28 0 47 -16.5t19 -44.5q0 -60 -59.5 -110t-147.5 -50 q-41 0 -110 32.5t-101 32.5q-40 0 -83.5 -31.5t-69.5 -31.5q-30 0 -49 17t-19 44zM311 238q0 -46 37 -72.5t107 -26.5q82 0 139 37.5t57 91.5q0 50 -43.5 77.5t-113.5 27.5q-87 0 -135 -35t-48 -100z" />
<glyph unicode="&#xe4;" horiz-adv-x="1095" d="M66 213q0 155 105 239.5t267 84.5q76 0 141 -28.5t101 -80.5l12 80q4 28 4 55q0 74 -43 108t-135 34q-69 0 -151 -23t-101 -23q-39 0 -63.5 23t-24.5 59q0 43 33 76t79 50.5t105.5 28.5t102.5 14t80 3q179 0 274.5 -79.5t95.5 -231.5q0 -39 -12 -113l-68 -383 q-9 -53 -42 -87.5t-97 -34.5q-48 0 -76 27.5t-28 70.5q0 14 2 24q-107 -131 -289 -131q-127 0 -199.5 67.5t-72.5 170.5zM311 238q0 -46 37 -72.5t107 -26.5q82 0 139 37.5t57 91.5q0 50 -43.5 77.5t-113.5 27.5q-87 0 -135 -35t-48 -100zM319 1139q0 60 39.5 99.5 t106.5 39.5q45 0 75.5 -29t30.5 -75q0 -59 -38 -101.5t-105 -42.5q-50 0 -79.5 32t-29.5 77zM707 1139q0 60 39 99.5t106 39.5q45 0 75.5 -29t30.5 -75q0 -59 -38 -101.5t-105 -42.5q-50 0 -79 32t-29 77z" />
<glyph unicode="&#xe5;" d="M66 213q0 155 105 239.5t267 84.5q76 0 141 -28.5t101 -80.5l12 80q4 28 4 55q0 74 -43 108t-135 34q-69 0 -151 -23t-101 -23q-39 0 -63.5 23t-24.5 59q0 43 33 76t79 50.5t105.5 28.5t102.5 14t80 3q179 0 274.5 -79.5t95.5 -231.5q0 -39 -12 -113l-68 -383 q-9 -53 -42 -87.5t-97 -34.5q-48 0 -76 27.5t-28 70.5q0 14 2 24q-107 -131 -289 -131q-127 0 -199.5 67.5t-72.5 170.5zM311 238q0 -46 37 -72.5t107 -26.5q82 0 139 37.5t57 91.5q0 50 -43.5 77.5t-113.5 27.5q-87 0 -135 -35t-48 -100zM477 1133q0 84 54 136t143 52 q70 0 113.5 -41t43.5 -106q0 -81 -53 -135t-147 -54q-68 0 -111 42.5t-43 105.5zM578 1141q0 -28 17.5 -46t49.5 -18q42 0 66 25t24 61q0 29 -19 47.5t-50 18.5q-38 0 -63 -23.5t-25 -64.5z" />
<glyph unicode="&#xe6;" horiz-adv-x="1675" d="M66 229q0 153 104 230.5t268 77.5q76 0 141 -28.5t101 -80.5l12 80q4 28 4 55q0 74 -43 108t-135 34q-69 0 -151 -23t-101 -23q-39 0 -63.5 23t-24.5 59q0 43 33 76t79 50.5t105.5 28.5t102.5 14t80 3q213 0 301 -135q138 135 323 135q171 0 271 -107.5t100 -277.5 q0 -40 -6 -84q-5 -33 -30.5 -56t-72.5 -23h-538v-17q0 -79 48 -127.5t136 -48.5q114 0 199 59q22 15 33 22t30 14t37 7q42 0 69 -25.5t27 -64.5q0 -68 -114 -135q-130 -74 -312 -74q-199 0 -311 125q-72 -63 -161.5 -94t-219.5 -31q-159 0 -240 70.5t-81 183.5zM311 238 q0 -46 37 -72.5t107 -26.5q82 0 139 37.5t57 91.5q0 50 -43.5 77.5t-113.5 27.5q-87 0 -135 -35t-48 -100zM961 541h395q-2 76 -43 126t-119 50q-85 0 -143 -48.5t-90 -127.5z" />
<glyph unicode="&#xe7;" horiz-adv-x="987" d="M63 354q0 129 42.5 235.5t116.5 176.5t173 108.5t213 38.5q107 0 189 -39.5t123 -95.5q24 -31 24 -67q0 -48 -31 -82.5t-84 -34.5q-49 0 -77 31q-24 25 -38.5 38t-48.5 27.5t-75 14.5q-129 0 -204 -89.5t-75 -228.5q0 -90 50 -146.5t149 -56.5q97 0 176 72q38 35 84 35 q40 0 70 -27t30 -67q0 -60 -51 -103q-132 -107 -301 -117l-49 -88q27 9 57 9q76 0 118 -31t42 -94q0 -76 -64 -124t-184 -48q-207 0 -207 73q0 25 15 42.5t43 17.5q20 0 61.5 -11.5t83.5 -11.5q45 0 68.5 15t23.5 38q0 41 -69 41q-19 0 -49.5 -5t-45.5 -5q-21 0 -31 13 t-5 32q1 7 3.5 13.5t6.5 15t7.5 15.5t11 19.5t12.5 21t16 26t18 29.5q-159 21 -248.5 126.5t-89.5 247.5z" />
<glyph unicode="&#xe8;" d="M61 350q0 160 66.5 288t187 201.5t273.5 73.5q171 0 270.5 -107.5t99.5 -277.5q0 -40 -6 -84q-5 -33 -30 -56t-72 -23h-539v-17q0 -79 48.5 -127.5t136.5 -48.5q113 0 198 59q21 15 33 22t31 14t37 7q42 0 69 -25.5t27 -64.5q0 -29 -20.5 -57t-41.5 -43.5t-53 -34.5 q-130 -74 -311 -74q-182 0 -293 107t-111 268zM346 541h395q-2 76 -43 126t-118 50q-162 0 -234 -176zM395 1264q0 41 30.5 70.5t74.5 29.5q58 0 88 -51l82 -142q16 -29 16 -57q0 -43 -34 -73.5t-81 -30.5q-48 0 -79 55l-84 149q-13 26 -13 50z" />
<glyph unicode="&#xe9;" d="M61 350q0 160 66.5 288t187 201.5t273.5 73.5q171 0 270.5 -107.5t99.5 -277.5q0 -40 -6 -84q-5 -33 -30 -56t-72 -23h-539v-17q0 -79 48.5 -127.5t136.5 -48.5q113 0 198 59q21 15 33 22t31 14t37 7q42 0 69 -25.5t27 -64.5q0 -29 -20.5 -57t-41.5 -43.5t-53 -34.5 q-130 -74 -311 -74q-182 0 -293 107t-111 268zM346 541h395q-2 76 -43 126t-118 50q-162 0 -234 -176zM455 1102q0 38 37 78l149 155q32 35 78 35q39 0 68.5 -26t29.5 -64q0 -42 -37 -82l-137 -147q-38 -41 -86 -41q-40 0 -71 27t-31 65z" />
<glyph unicode="&#xea;" d="M61 350q0 160 66.5 288t187 201.5t273.5 73.5q171 0 270.5 -107.5t99.5 -277.5q0 -40 -6 -84q-5 -33 -30 -56t-72 -23h-539v-17q0 -79 48.5 -127.5t136.5 -48.5q113 0 198 59q21 15 33 22t31 14t37 7q42 0 69 -25.5t27 -64.5q0 -29 -20.5 -57t-41.5 -43.5t-53 -34.5 q-130 -74 -311 -74q-182 0 -293 107t-111 268zM336 1087q0 38 31 62l237 180q27 21 58 21q30 0 51 -21l166 -174q28 -32 28 -65t-25.5 -56.5t-58.5 -23.5q-38 0 -63 28l-119 123l-170 -129q-31 -22 -59 -22q-31 0 -53.5 23.5t-22.5 53.5zM346 541h395q-2 76 -43 126t-118 50 q-162 0 -234 -176z" />
<glyph unicode="&#xeb;" d="M61 350q0 160 66.5 288t187 201.5t273.5 73.5q171 0 270.5 -107.5t99.5 -277.5q0 -40 -6 -84q-5 -33 -30 -56t-72 -23h-539v-17q0 -79 48.5 -127.5t136.5 -48.5q113 0 198 59q21 15 33 22t31 14t37 7q42 0 69 -25.5t27 -64.5q0 -29 -20.5 -57t-41.5 -43.5t-53 -34.5 q-130 -74 -311 -74q-182 0 -293 107t-111 268zM315 1139q0 60 39.5 99.5t106.5 39.5q45 0 75.5 -29t30.5 -75q0 -59 -38 -101.5t-105 -42.5q-50 0 -79.5 32t-29.5 77zM346 541h395q-2 76 -43 126t-118 50q-162 0 -234 -176zM702 1139q0 60 39.5 99.5t106.5 39.5 q45 0 75.5 -29t30.5 -75q0 -59 -38 -101.5t-105 -42.5q-50 0 -79.5 32t-29.5 77z" />
<glyph unicode="&#xec;" horiz-adv-x="532" d="M72 82q0 11 4 35l117 663q21 125 143 125q48 0 76 -26.5t28 -73.5q0 -13 -4 -37l-117 -662q-22 -122 -141 -122q-52 0 -79 27.5t-27 70.5zM133 1264q0 41 30.5 70.5t74.5 29.5q58 0 88 -51l82 -142q16 -29 16 -57q0 -43 -34 -73.5t-81 -30.5q-49 0 -80 55l-84 149 q-12 24 -12 50z" />
<glyph unicode="&#xed;" horiz-adv-x="532" d="M72 82q0 11 4 35l117 663q21 125 143 125q48 0 76 -26.5t28 -73.5q0 -13 -4 -37l-117 -662q-22 -122 -141 -122q-52 0 -79 27.5t-27 70.5zM240 1102q0 39 36 78l150 155q32 35 78 35q39 0 68.5 -26t29.5 -64q0 -42 -37 -82l-137 -147q-38 -41 -86 -41q-40 0 -71 27 t-31 65z" />
<glyph unicode="&#xee;" horiz-adv-x="532" d="M70 1087q0 39 30 62l238 180q27 21 57 21t51 -21l166 -174q29 -33 29 -65q0 -33 -25.5 -56.5t-58.5 -23.5q-38 0 -63 28l-119 123l-170 -129q-31 -22 -60 -22q-31 0 -53 23.5t-22 53.5zM72 82q0 11 4 35l117 663q21 125 143 125q48 0 76 -26.5t28 -73.5q0 -13 -4 -37 l-117 -662q-22 -122 -141 -122q-52 0 -79 27.5t-27 70.5z" />
<glyph unicode="&#xef;" horiz-adv-x="532" d="M49 1139q0 60 39.5 99.5t106.5 39.5q45 0 75.5 -29t30.5 -75q0 -59 -38 -101.5t-105 -42.5q-50 0 -79.5 32t-29.5 77zM72 82q0 11 4 35l117 663q21 125 143 125q48 0 76 -26.5t28 -73.5q0 -13 -4 -37l-117 -662q-22 -122 -141 -122q-52 0 -79 27.5t-27 70.5zM436 1139 q0 60 39.5 99.5t106.5 39.5q45 0 75.5 -29t30.5 -75q0 -59 -38 -101.5t-105 -42.5q-50 0 -79.5 32t-29.5 77z" />
<glyph unicode="&#xf0;" horiz-adv-x="1075" d="M66 352q0 219 124 353.5t359 134.5q59 0 120.5 -20.5t102.5 -57.5q-9 60 -43.5 130t-73.5 114l-71 -62q-30 -24 -64 -24q-29 0 -49 18.5t-20 46.5q0 44 38 74l68 57q-15 14 -50 45.5t-52 48.5q-27 27 -27 60q0 55 36 87t83 32q35 0 80 -35q53 -40 102 -90l74 61 q28 25 63 25q31 0 49.5 -20t18.5 -48q0 -40 -37 -72l-70 -59q170 -231 170 -520q0 -143 -32.5 -261t-97 -207t-167.5 -138.5t-237 -49.5q-180 0 -288.5 111t-108.5 266zM309 365q0 -79 47 -130t129 -51q114 0 184 80t70 201q0 80 -46.5 127t-125.5 47q-123 0 -190.5 -74 t-67.5 -200z" />
<glyph unicode="&#xf1;" horiz-adv-x="1146" d="M72 82q0 11 4 35l117 663q21 125 143 125q48 0 76 -26.5t28 -73.5q0 -9 -4 -33l-4 -18q42 72 120.5 115.5t172.5 43.5q143 0 220 -85t77 -230q0 -44 -10 -106l-68 -386q-10 -54 -45.5 -88t-95.5 -34q-52 0 -79.5 27.5t-27.5 70.5q0 11 4 35l64 362q4 24 4 56 q0 73 -38.5 115t-115.5 42q-100 0 -156.5 -58.5t-72.5 -154.5l-66 -373q-22 -122 -141 -122q-52 0 -79 27.5t-27 70.5zM348 1083q0 67 70.5 117.5t156.5 50.5q47 0 115 -30.5t96 -30.5q29 0 72.5 25.5t63.5 25.5q27 0 46 -16.5t19 -44.5q0 -60 -59.5 -110t-147.5 -50 q-42 0 -110 32.5t-101 32.5q-40 0 -83.5 -31.5t-69.5 -31.5q-30 0 -49 17t-19 44z" />
<glyph unicode="&#xf2;" horiz-adv-x="1107" d="M70 360q0 237 155 395t404 158q178 0 286.5 -110t108.5 -273q0 -83 -22 -162.5t-68 -150.5t-111 -125t-158 -85.5t-202 -31.5q-179 0 -286 109t-107 276zM315 389q0 -89 48.5 -145t138.5 -56q88 0 153 49.5t94 119t29 143.5q0 94 -49 147t-139 53q-120 0 -197.5 -89 t-77.5 -222zM434 1264q0 41 30.5 70.5t74.5 29.5q58 0 88 -51l82 -142q16 -29 16 -57q0 -43 -34 -73.5t-81 -30.5q-49 0 -80 55l-84 149q-12 24 -12 50z" />
<glyph unicode="&#xf3;" horiz-adv-x="1107" d="M70 360q0 237 155 395t404 158q178 0 286.5 -110t108.5 -273q0 -83 -22 -162.5t-68 -150.5t-111 -125t-158 -85.5t-202 -31.5q-179 0 -286 109t-107 276zM315 389q0 -89 48.5 -145t138.5 -56q88 0 153 49.5t94 119t29 143.5q0 94 -49 147t-139 53q-120 0 -197.5 -89 t-77.5 -222zM457 1102q0 38 37 78l149 155q32 35 78 35q39 0 68.5 -26t29.5 -64q0 -42 -37 -82l-137 -147q-38 -41 -86 -41q-40 0 -71 27t-31 65z" />
<glyph unicode="&#xf4;" horiz-adv-x="1107" d="M70 360q0 237 155 395t404 158q178 0 286.5 -110t108.5 -273q0 -83 -22 -162.5t-68 -150.5t-111 -125t-158 -85.5t-202 -31.5q-179 0 -286 109t-107 276zM315 389q0 -89 48.5 -145t138.5 -56q88 0 153 49.5t94 119t29 143.5q0 94 -49 147t-139 53q-120 0 -197.5 -89 t-77.5 -222zM389 1087q0 38 31 62l237 180q27 21 58 21q30 0 51 -21l166 -174q29 -33 29 -65q0 -33 -25.5 -56.5t-58.5 -23.5q-39 0 -64 28l-119 123l-170 -129q-31 -22 -59 -22q-31 0 -53.5 23.5t-22.5 53.5z" />
<glyph unicode="&#xf5;" horiz-adv-x="1107" d="M70 360q0 237 155 395t404 158q178 0 286.5 -110t108.5 -273q0 -83 -22 -162.5t-68 -150.5t-111 -125t-158 -85.5t-202 -31.5q-179 0 -286 109t-107 276zM315 389q0 -89 48.5 -145t138.5 -56q88 0 153 49.5t94 119t29 143.5q0 94 -49 147t-139 53q-120 0 -197.5 -89 t-77.5 -222zM342 1083q0 67 70.5 117.5t156.5 50.5q47 0 115 -30.5t96 -30.5q29 0 72 25.5t63 25.5q28 0 47 -16.5t19 -44.5q0 -60 -59.5 -110t-147.5 -50q-42 0 -110 32.5t-101 32.5q-40 0 -83.5 -31.5t-69.5 -31.5q-30 0 -49 17t-19 44z" />
<glyph unicode="&#xf6;" horiz-adv-x="1107" d="M70 360q0 237 155 395t404 158q178 0 286.5 -110t108.5 -273q0 -83 -22 -162.5t-68 -150.5t-111 -125t-158 -85.5t-202 -31.5q-179 0 -286 109t-107 276zM315 389q0 -89 48.5 -145t138.5 -56q88 0 153 49.5t94 119t29 143.5q0 94 -49 147t-139 53q-120 0 -197.5 -89 t-77.5 -222zM362 1139q0 60 39.5 99.5t106.5 39.5q45 0 75.5 -29t30.5 -75q0 -59 -38 -101.5t-105 -42.5q-50 0 -79.5 32t-29.5 77zM750 1139q0 60 39 99.5t106 39.5q45 0 75.5 -29t30.5 -75q0 -59 -38 -101.5t-105 -42.5q-50 0 -79 32t-29 77z" />
<glyph unicode="&#xf7;" horiz-adv-x="1228" d="M168 645q0 41 28.5 69.5t69.5 28.5h746q40 0 69 -29t29 -69t-29 -69t-69 -29h-746q-41 0 -69.5 29t-28.5 69zM518 297q0 51 35 86t86 35q50 0 85.5 -35t35.5 -86q0 -49 -36 -85t-85 -36q-51 0 -86 35.5t-35 85.5zM518 993q0 51 35 86t86 35q50 0 85.5 -35t35.5 -86 q0 -49 -36 -85t-85 -36q-51 0 -86 35.5t-35 85.5z" />
<glyph unicode="&#xf8;" horiz-adv-x="1107" d="M-16 -80q0 13 16 33l154 156q-84 104 -84 251q0 237 155 395t404 158q140 0 243 -73l156 159q17 17 37 17t32.5 -11.5t12.5 -31.5q0 -21 -18 -39l-154 -156q86 -106 86 -248q0 -83 -22 -162.5t-68 -150.5t-111 -125t-158 -85.5t-202 -31.5q-147 0 -244 72l-151 -156 q-18 -18 -39 -18q-19 0 -32 13.5t-13 33.5zM315 389q0 -52 19 -98l368 377q-46 32 -112 32q-120 0 -197.5 -89t-77.5 -222zM389 219q45 -31 113 -31q88 0 153 49.5t94 119t29 143.5q0 54 -18 98z" />
<glyph unicode="&#xf9;" horiz-adv-x="1142" d="M100 291q0 38 11 106l67 385q10 55 45.5 89t95.5 34q52 0 79.5 -27.5t27.5 -70.5q0 -11 -4 -35l-64 -362q-4 -24 -4 -56q0 -73 38.5 -115t115.5 -42q100 0 156.5 58.5t72.5 154.5l66 372q22 123 141 123q52 0 79.5 -27.5t27.5 -70.5q0 -11 -4 -35l-117 -663 q-21 -125 -144 -125q-48 0 -76 26.5t-28 73.5q0 9 4 33l4 18q-42 -72 -120.5 -116t-172.5 -44q-143 0 -220 85.5t-77 230.5zM463 1264q0 42 30 71t74 29q58 0 88 -51l82 -142q17 -31 17 -57q0 -43 -34 -73.5t-81 -30.5q-49 0 -80 55l-84 149q-12 24 -12 50z" />
<glyph unicode="&#xfa;" horiz-adv-x="1142" d="M100 291q0 38 11 106l67 385q10 55 45.5 89t95.5 34q52 0 79.5 -27.5t27.5 -70.5q0 -11 -4 -35l-64 -362q-4 -24 -4 -56q0 -73 38.5 -115t115.5 -42q100 0 156.5 58.5t72.5 154.5l66 372q22 123 141 123q52 0 79.5 -27.5t27.5 -70.5q0 -11 -4 -35l-117 -663 q-21 -125 -144 -125q-48 0 -76 26.5t-28 73.5q0 9 4 33l4 18q-42 -72 -120.5 -116t-172.5 -44q-143 0 -220 85.5t-77 230.5zM530 1102q0 38 37 78l150 155q32 35 78 35q39 0 68.5 -26t29.5 -64q0 -42 -37 -82l-137 -147q-38 -41 -86 -41q-40 0 -71.5 27t-31.5 65z" />
<glyph unicode="&#xfb;" horiz-adv-x="1142" d="M100 291q0 38 11 106l67 385q10 55 45.5 89t95.5 34q52 0 79.5 -27.5t27.5 -70.5q0 -11 -4 -35l-64 -362q-4 -24 -4 -56q0 -73 38.5 -115t115.5 -42q100 0 156.5 58.5t72.5 154.5l66 372q22 123 141 123q52 0 79.5 -27.5t27.5 -70.5q0 -11 -4 -35l-117 -663 q-21 -125 -144 -125q-48 0 -76 26.5t-28 73.5q0 9 4 33l4 18q-42 -72 -120.5 -116t-172.5 -44q-143 0 -220 85.5t-77 230.5zM381 1087q0 38 31 62l237 180q27 21 58 21q30 0 51 -21l166 -174q28 -32 28 -65t-25.5 -56.5t-58.5 -23.5q-38 0 -63 28l-119 123l-170 -129 q-31 -22 -59 -22q-31 0 -53.5 23.5t-22.5 53.5z" />
<glyph unicode="&#xfc;" horiz-adv-x="1142" d="M100 291q0 38 11 106l67 385q10 55 45.5 89t95.5 34q52 0 79.5 -27.5t27.5 -70.5q0 -11 -4 -35l-64 -362q-4 -24 -4 -56q0 -73 38.5 -115t115.5 -42q100 0 156.5 58.5t72.5 154.5l66 372q22 123 141 123q52 0 79.5 -27.5t27.5 -70.5q0 -11 -4 -35l-117 -663 q-21 -125 -144 -125q-48 0 -76 26.5t-28 73.5q0 9 4 33l4 18q-42 -72 -120.5 -116t-172.5 -44q-143 0 -220 85.5t-77 230.5zM362 1139q0 60 39.5 99.5t106.5 39.5q45 0 75.5 -29t30.5 -75q0 -59 -38 -101.5t-105 -42.5q-50 0 -79.5 32t-29.5 77zM750 1139q0 60 39 99.5 t106 39.5q45 0 75.5 -29t30.5 -75q0 -59 -38 -101.5t-105 -42.5q-50 0 -79 32t-29 77z" />
<glyph unicode="&#xfd;" horiz-adv-x="948" d="M-31 -301q0 28 12.5 50t26 34t43.5 33q148 105 225 198l-170 738q-4 24 -4 30q0 123 131 123q48 0 69.5 -26.5t31.5 -69.5l123 -563l282 592q30 67 109 67q44 0 75 -27t31 -69q0 -29 -18 -66t-69.5 -145t-81 -169t-76.5 -150.5t-88 -157.5q-100 -167 -212.5 -289 t-275.5 -213q-32 -18 -67 -18q-39 0 -68 31t-29 67zM412 1102q0 38 37 78l149 155q32 35 78 35q39 0 68.5 -26t29.5 -64q0 -42 -37 -82l-137 -147q-38 -41 -86 -41q-40 0 -71 27t-31 65z" />
<glyph unicode="&#xfe;" horiz-adv-x="1159" d="M4 -299q0 13 4 37l268 1517q21 125 144 125q48 0 76 -26.5t28 -73.5q0 -13 -4 -37l-82 -463q55 69 133 101t162 32t150.5 -29.5t108.5 -81.5t63.5 -119.5t21.5 -145.5q0 -154 -58.5 -281.5t-171 -204t-257.5 -76.5q-88 0 -159 37.5t-109 106.5l-70 -393 q-21 -125 -143 -125q-48 0 -76.5 26.5t-28.5 73.5zM373 383q0 -92 50 -145.5t138 -53.5q123 0 194.5 94.5t71.5 225.5q0 92 -47.5 146.5t-140.5 54.5q-78 0 -140 -47t-94 -120t-32 -155z" />
<glyph unicode="&#xff;" horiz-adv-x="948" d="M-31 -301q0 28 12.5 50t26 34t43.5 33q148 105 225 198l-170 738q-4 24 -4 30q0 123 131 123q48 0 69.5 -26.5t31.5 -69.5l123 -563l282 592q30 67 109 67q44 0 75 -27t31 -69q0 -29 -18 -66t-69.5 -145t-81 -169t-76.5 -150.5t-88 -157.5q-100 -167 -212.5 -289 t-275.5 -213q-32 -18 -67 -18q-39 0 -68 31t-29 67zM246 1139q0 60 39 99.5t106 39.5q45 0 76 -29t31 -75q0 -59 -38.5 -101.5t-105.5 -42.5q-50 0 -79 32t-29 77zM633 1139q0 60 39 99.5t106 39.5q45 0 76 -29t31 -75q0 -59 -38.5 -101.5t-105.5 -42.5q-50 0 -79 32t-29 77 z" />
<glyph unicode="&#x152;" horiz-adv-x="2320" d="M111 553q0 175 62.5 329.5t171.5 266t264 176t333 64.5q284 0 420 -199l8 49q8 52 47.5 88.5t102.5 36.5h735q44 0 72 -27t28 -73q0 -53 -38.5 -92t-100.5 -39h-614l-58 -326h336q45 0 72.5 -25.5t27.5 -74.5q0 -53 -38.5 -92.5t-100.5 -39.5h-338l-61 -344h645 q44 0 72 -27t28 -73q0 -53 -38.5 -92t-100.5 -39h-768q-51 0 -80 31.5t-29 74.5q0 6 5 31l6 37q-77 -86 -207.5 -142.5t-274.5 -56.5q-131 0 -242 44t-186.5 121t-118 183.5t-42.5 229.5zM367 584q0 -171 93 -277t279 -106q115 0 216.5 47.5t172.5 127t112.5 186.5t41.5 222 q0 169 -98 274t-275 105q-152 0 -277 -79t-195 -212t-70 -288z" />
<glyph unicode="&#x153;" horiz-adv-x="1765" d="M70 360q0 237 155 395t404 158q96 0 180 -39.5t137 -103.5q146 143 346 143q171 0 271 -107.5t100 -277.5q0 -40 -6 -84q-5 -33 -30.5 -56t-72.5 -23h-538v-17q0 -79 48 -127.5t136 -48.5q114 0 199 59q22 15 33 22t30 14t37 7q42 0 69 -25.5t27 -64.5q0 -68 -114 -135 q-130 -74 -312 -74q-209 0 -323 142q-161 -142 -383 -142q-179 0 -286 109t-107 276zM315 389q0 -89 48.5 -145t138.5 -56q88 0 153 49.5t94 119t29 143.5q0 94 -49 147t-139 53q-120 0 -197.5 -89t-77.5 -222zM1051 541h395q-2 76 -43 126t-119 50q-85 0 -143 -48.5 t-90 -127.5z" />
<glyph unicode="&#x178;" horiz-adv-x="1191" d="M143 1266q0 53 41.5 83.5t96.5 30.5q60 0 88 -51l286 -498l445 494q19 20 30 29.5t30.5 17.5t43.5 8q42 0 78.5 -32t36.5 -72q0 -46 -37 -86l-534 -590l-86 -489q-10 -57 -46.5 -92t-101.5 -35q-47 0 -75.5 29.5t-28.5 74.5q0 11 4 35l84 477l-342 614q-13 26 -13 52z M430 1612q0 60 39 99.5t106 39.5q45 0 76 -29t31 -75q0 -59 -38 -101.5t-105 -42.5q-50 0 -79.5 32t-29.5 77zM860 1612q0 60 39.5 99.5t106.5 39.5q45 0 75.5 -29t30.5 -75q0 -59 -38 -101.5t-105 -42.5q-50 0 -79.5 32t-29.5 77z" />
<glyph unicode="&#x2c6;" horiz-adv-x="753" d="M199 1087q0 39 30 62l238 180q27 21 57 21t51 -21l166 -174q29 -33 29 -65q0 -33 -25.5 -56.5t-58.5 -23.5q-38 0 -63 28l-119 123l-170 -129q-31 -22 -60 -22q-31 0 -53 23.5t-22 53.5z" />
<glyph unicode="&#x2dc;" horiz-adv-x="806" d="M195 1083q0 67 70.5 117.5t156.5 50.5q47 0 115 -30.5t96 -30.5q29 0 72 25.5t63 25.5q28 0 47 -16.5t19 -44.5q0 -60 -59.5 -110t-147.5 -50q-41 0 -110 32.5t-101 32.5q-40 0 -84 -31.5t-70 -31.5q-30 0 -48.5 17t-18.5 44z" />
<glyph unicode="&#x2000;" horiz-adv-x="901" />
<glyph unicode="&#x2001;" horiz-adv-x="1802" />
<glyph unicode="&#x2002;" horiz-adv-x="901" />
<glyph unicode="&#x2003;" horiz-adv-x="1802" />
<glyph unicode="&#x2004;" horiz-adv-x="600" />
<glyph unicode="&#x2005;" horiz-adv-x="450" />
<glyph unicode="&#x2006;" horiz-adv-x="300" />
<glyph unicode="&#x2007;" horiz-adv-x="300" />
<glyph unicode="&#x2008;" horiz-adv-x="225" />
<glyph unicode="&#x2009;" horiz-adv-x="360" />
<glyph unicode="&#x200a;" horiz-adv-x="100" />
<glyph unicode="&#x2010;" horiz-adv-x="876" d="M121 498q0 54 35.5 85t91.5 31h407q41 0 71 -25.5t30 -72.5q0 -48 -35 -80.5t-92 -32.5h-410q-43 0 -70.5 28.5t-27.5 66.5z" />
<glyph unicode="&#x2011;" horiz-adv-x="876" d="M121 498q0 54 35.5 85t91.5 31h407q41 0 71 -25.5t30 -72.5q0 -48 -35 -80.5t-92 -32.5h-410q-43 0 -70.5 28.5t-27.5 66.5z" />
<glyph unicode="&#x2012;" horiz-adv-x="876" d="M121 498q0 54 35.5 85t91.5 31h407q41 0 71 -25.5t30 -72.5q0 -48 -35 -80.5t-92 -32.5h-410q-43 0 -70.5 28.5t-27.5 66.5z" />
<glyph unicode="&#x2013;" horiz-adv-x="1236" d="M121 498q0 54 35.5 85t91.5 31h768q41 0 70.5 -25.5t29.5 -72.5q0 -48 -35 -80.5t-92 -32.5h-770q-43 0 -70.5 28.5t-27.5 66.5z" />
<glyph unicode="&#x2014;" horiz-adv-x="1777" d="M121 498q0 54 35.5 85t91.5 31h1308q41 0 71 -25.5t30 -72.5q0 -48 -35 -80.5t-92 -32.5h-1311q-43 0 -70.5 28.5t-27.5 66.5z" />
<glyph unicode="&#x2018;" horiz-adv-x="542" d="M227 905q38 201 140 404q39 73 108 73q56 0 89 -43.5t7 -101.5q-97 -215 -127 -354q-12 -61 -39 -88t-81 -27q-62 0 -84.5 39.5t-12.5 97.5z" />
<glyph unicode="&#x2019;" horiz-adv-x="542" d="M207 913q97 214 127 355q12 60 39.5 87t81.5 27q61 0 83.5 -39t12.5 -98q-38 -203 -139 -403q-39 -74 -109 -74q-56 0 -89 43.5t-7 101.5z" />
<glyph unicode="&#x201a;" horiz-adv-x="509" d="M-33 -203q97 214 127 355q12 60 39.5 87t81.5 27q61 0 83.5 -39t12.5 -98q-38 -203 -139 -403q-39 -74 -109 -74q-56 0 -89 43.5t-7 101.5z" />
<glyph unicode="&#x201c;" horiz-adv-x="972" d="M227 905q38 201 140 404q39 73 108 73q56 0 89 -43.5t7 -101.5q-97 -215 -127 -354q-12 -61 -39 -88t-81 -27q-62 0 -84.5 39.5t-12.5 97.5zM657 905q38 201 140 404q39 73 108 73q56 0 89 -43.5t7 -101.5q-97 -215 -127 -354q-12 -61 -39 -88t-81 -27q-62 0 -84.5 39.5 t-12.5 97.5z" />
<glyph unicode="&#x201d;" horiz-adv-x="972" d="M207 913q97 214 127 355q12 60 39.5 87t81.5 27q61 0 83.5 -39t12.5 -98q-38 -203 -139 -403q-39 -74 -109 -74q-56 0 -89 43.5t-7 101.5zM637 913q97 214 127 355q12 60 39.5 87t81.5 27q61 0 83.5 -39t12.5 -98q-38 -203 -139 -403q-39 -74 -109 -74q-56 0 -89 43.5 t-7 101.5z" />
<glyph unicode="&#x201e;" horiz-adv-x="940" d="M-33 -203q97 214 127 355q12 60 39.5 87t81.5 27q61 0 83.5 -39t12.5 -98q-38 -203 -139 -403q-39 -74 -109 -74q-56 0 -89 43.5t-7 101.5zM397 -203q97 214 127 355q12 60 39.5 87t81.5 27q61 0 83.5 -39t12.5 -98q-38 -203 -139 -403q-39 -74 -108 -74 q-56 0 -89.5 43.5t-7.5 101.5z" />
<glyph unicode="&#x2022;" horiz-adv-x="765" d="M143 618q0 127 86 209t226 82q97 0 157 -63t60 -156q0 -76 -33.5 -143t-106 -112.5t-170.5 -45.5q-101 0 -160 66.5t-59 162.5z" />
<glyph unicode="&#x2026;" horiz-adv-x="1579" d="M53 104q0 67 47 114.5t117 47.5q53 0 87 -33t34 -83q0 -64 -45 -114t-117 -50q-58 0 -90.5 32.5t-32.5 85.5zM580 104q0 67 46.5 114.5t116.5 47.5q53 0 87 -33t34 -83q0 -64 -45 -114t-117 -50q-58 0 -90 32.5t-32 85.5zM1106 104q0 67 47 114.5t117 47.5q53 0 87 -33 t34 -83q0 -64 -45 -114t-117 -50q-58 0 -90.5 32.5t-32.5 85.5z" />
<glyph unicode="&#x202f;" horiz-adv-x="360" />
<glyph unicode="&#x2039;" horiz-adv-x="722" d="M90 428q0 44 45 80l336 268q42 29 72 29q37 0 64.5 -26.5t27.5 -65.5q0 -51 -45 -84l-262 -209l178 -195q22 -28 22 -55q0 -40 -31.5 -69t-72.5 -29q-47 0 -76 32l-235 265q-23 26 -23 59z" />
<glyph unicode="&#x203a;" horiz-adv-x="722" d="M59 164q0 51 45 84l263 209l-179 194q-22 28 -22 56q0 40 31.5 69t72.5 29q46 0 76 -33l236 -264q22 -25 22 -59q0 -44 -45 -80l-336 -269q-40 -28 -71 -28q-38 0 -65.5 26.5t-27.5 65.5z" />
<glyph unicode="&#x205f;" horiz-adv-x="450" />
<glyph unicode="&#x20ac;" horiz-adv-x="1417" d="M98 524q0 37 25.5 58.5t62.5 21.5h119q3 88 14 156h-149q-32 0 -52 20t-20 47q0 37 25.5 58.5t62.5 21.5h166q66 222 218 352t384 130q267 0 412 -205q25 -39 25 -70q0 -45 -34.5 -77.5t-80.5 -32.5q-52 0 -94 45q-58 61 -112.5 91.5t-127.5 30.5q-118 0 -202 -71 t-132 -193h346q30 0 51 -18.5t21 -50.5q0 -34 -25 -56t-63 -22h-371q-14 -89 -14 -156h401q30 0 51 -18.5t21 -50.5q0 -34 -25 -56t-63 -22h-379q34 -269 256 -269q82 0 149.5 35.5t139.5 110.5q46 49 102 49q43 0 74 -28t31 -70q0 -51 -47 -101q-202 -209 -469 -209 q-111 0 -200 36.5t-147.5 102.5t-93.5 152.5t-45 190.5h-139q-32 0 -52 19.5t-20 47.5z" />
<glyph unicode="&#x2122;" horiz-adv-x="1499" d="M113 1309q0 23 16 39t41 16h453q25 0 41 -16t16 -39q0 -25 -16 -41.5t-41 -16.5h-168v-438q0 -26 -17.5 -42.5t-42.5 -16.5q-26 0 -43.5 16.5t-17.5 42.5v438h-164q-25 0 -41 16.5t-16 41.5zM780 809v506q0 25 16.5 41t41.5 16q36 0 53 -35l199 -405l198 405q14 35 51 35 q25 0 41.5 -16t16.5 -41v-506q0 -23 -16.5 -39t-41.5 -16q-23 0 -39 16t-16 39v268l-147 -295q-16 -28 -47 -28q-36 0 -50 28l-145 295v-268q0 -23 -16 -39t-41 -16t-41.5 16t-16.5 39z" />
<glyph unicode="&#x25fc;" horiz-adv-x="901" d="M0 0v901h901v-901h-901z" />
</font>
</defs>
</svg>
