<?xml version="1.0" encoding="UTF-8" standalone="no"?>
<svg width="111px" height="109px" viewBox="0 0 111 109" version="1.1" xmlns="http://www.w3.org/2000/svg" xmlns:xlink="http://www.w3.org/1999/xlink" xmlns:sketch="http://www.bohemiancoding.com/sketch/ns">
    <!-- Generator: Sketch 3.3.3 (12081) - http://www.bohemiancoding.com/sketch -->
    <title>Machine Washable</title>
    <desc>Created with Sketch.</desc>
    <defs></defs>
    <g id="Page-1" stroke="none" stroke-width="1" fill="none" fill-rule="evenodd" sketch:type="MSPage">
        <g id="Home" sketch:type="MSArtboardGroup" transform="translate(-1140.000000, -1159.000000)" fill="#17213D">
            <g id="Machine-Washable" sketch:type="MSLayerGroup" transform="translate(1140.565051, 1159.000000)">
                <path d="M108.487968,108.456515 L1.43976861,108.456515 C0.712531726,108.456515 0.124325423,107.876527 0.124325423,107.159449 L0.124325423,1.60543095 C0.124325423,0.888353813 0.712531726,0.30836495 1.43976861,0.30836495 L108.487968,0.30836495 C109.215205,0.30836495 109.803412,0.888353813 109.803412,1.60543095 L109.803412,107.159449 C109.803412,107.876527 109.215205,108.456515 108.487968,108.456515 L108.487968,108.456515 Z M2.7552118,105.862383 L107.172525,105.862383 L107.172525,2.9011788 L2.7552118,2.9011788 L2.7552118,105.862383 Z" id="Fill-1" sketch:type="MSShapeGroup"></path>
                <path d="M56.5841095,92.2550539 C40.09027,92.2550539 26.6724822,79.024717 26.6724822,62.7626202 C26.6724822,46.4965689 40.09027,33.2662321 56.5841095,33.2662321 C73.0766121,33.2662321 86.4944,46.4965689 86.4944,62.7626202 C86.4944,79.024717 73.0766121,92.2550539 56.5841095,92.2550539 L56.5841095,92.2550539 Z M56.5841095,35.8603641 C41.5420701,35.8603641 29.3033685,47.9280869 29.3033685,62.7626202 C29.3033685,77.5931991 41.5420701,89.6609219 56.5841095,89.6609219 C71.624812,89.6609219 83.8635136,77.5931991 83.8635136,62.7626202 C83.8635136,47.9280869 71.624812,35.8603641 56.5841095,35.8603641 L56.5841095,35.8603641 Z" id="Fill-2" sketch:type="MSShapeGroup"></path>
                <path d="M0.784720681,16.4056922 L107.336956,16.4056922 L107.336956,18.9998242 L0.784720681,18.9998242 L0.784720681,16.4056922 Z" id="Fill-3" sketch:type="MSShapeGroup"></path>
                <path d="M98.1997054,7.61622462 L102.409391,7.61622462 L102.409391,11.7381 L98.1997054,11.7381 L98.1997054,7.61622462 Z" id="Fill-4" sketch:type="MSShapeGroup"></path>
                <path d="M90.6519491,7.61622462 L94.8322243,7.61622462 L94.8322243,11.7381 L90.6519491,11.7381 L90.6519491,7.61622462 Z" id="Fill-5" sketch:type="MSShapeGroup"></path>
                <path d="M83.0747824,7.61622462 L87.284468,7.61622462 L87.284468,11.7381 L83.0747824,11.7381 L83.0747824,7.61622462 Z" id="Fill-6" sketch:type="MSShapeGroup"></path>
                <path d="M8.92469381,7.61622462 L23.1753283,7.61622462 L23.1753283,11.7381 L8.92469381,11.7381 L8.92469381,7.61622462 Z" id="Fill-7" sketch:type="MSShapeGroup"></path>
                <path d="M29.3541682,70.5160168 L20.1754762,70.5160168 C19.4482393,70.5160168 18.860033,69.9360279 18.860033,69.2189508 L18.860033,54.2381021 C18.860033,53.5210249 19.4482393,52.9410361 20.1754762,52.9410361 L29.3541682,52.9410361 L29.3541682,55.5351681 L21.4909194,55.5351681 L21.4909194,67.9218848 L29.3541682,67.9218848 L29.3541682,70.5160168" id="Fill-8" sketch:type="MSShapeGroup"></path>
            </g>
        </g>
    </g>
</svg>