<?xml version="1.0" encoding="UTF-8" standalone="no"?>
<svg width="111px" height="109px" viewBox="0 0 111 109" version="1.1" xmlns="http://www.w3.org/2000/svg" xmlns:xlink="http://www.w3.org/1999/xlink" xmlns:sketch="http://www.bohemiancoding.com/sketch/ns">
    <!-- Generator: Sketch 3.3.3 (12081) - http://www.bohemiancoding.com/sketch -->
    <title>Superior Fit</title>
    <desc>Created with Sketch.</desc>
    <defs></defs>
    <g id="Page-1" stroke="none" stroke-width="1" fill="none" fill-rule="evenodd" sketch:type="MSPage">
        <g id="Home" sketch:type="MSArtboardGroup" transform="translate(-1140.000000, -1343.000000)" fill="#17213D">
            <g id="Superior-Fit" sketch:type="MSLayerGroup" transform="translate(1140.198204, 1343.055247)">
                <path d="M108.920271,108.480506 L1.87207099,108.480506 C1.14483411,108.480506 0.556627809,107.945627 0.556627809,107.284323 L0.556627809,9.94006131 C0.556627809,9.27875684 1.14483411,8.74387822 1.87207099,8.74387822 L25.3267973,8.74387822 C26.0540342,8.74387822 26.6422405,9.27875684 26.6422405,9.94006131 C26.6422405,10.6013658 26.0540342,11.1362444 25.3267973,11.1362444 L3.18751418,11.1362444 L3.18751418,106.08814 L107.604828,106.08814 L107.604828,11.1362444 L85.3131455,11.1362444 C84.5859086,11.1362444 83.9990392,10.6013658 83.9990392,9.94006131 C83.9990392,9.27875684 84.5859086,8.74387822 85.3131455,8.74387822 L108.920271,8.74387822 C109.647508,8.74387822 110.235714,9.27875684 110.235714,9.94006131 L110.235714,107.284323 C110.235714,107.945627 109.647508,108.480506 108.920271,108.480506" id="Fill-1" sketch:type="MSShapeGroup"></path>
                <path d="M54.0793909,46.5610121 L56.7102772,46.5610121 L56.7102772,107.285538 L54.0793909,107.285538 L54.0793909,46.5610121 Z" id="Fill-2" sketch:type="MSShapeGroup"></path>
                <path d="M63.87971,69.3857415 C63.87971,70.5977278 62.7995493,71.5787438 61.4680641,71.5787438 C60.1365789,71.5787438 59.0564183,70.5977278 59.0564183,69.3857415 C59.0564183,68.1749708 60.1365789,67.1927392 61.4680641,67.1927392 C62.7995493,67.1927392 63.87971,68.1749708 63.87971,69.3857415" id="Fill-3" sketch:type="MSShapeGroup"></path>
                <path d="M63.87971,97.3927153 C63.87971,98.6047016 62.7995493,99.5857176 61.4680641,99.5857176 C60.1365789,99.5857176 59.0564183,98.6047016 59.0564183,97.3927153 C59.0564183,96.1819446 60.1365789,95.199713 61.4680641,95.199713 C62.7995493,95.199713 63.87971,96.1819446 63.87971,97.3927153" id="Fill-4" sketch:type="MSShapeGroup"></path>
                <path d="M74.9553673,60.972344 C74.6960218,60.972344 74.4366763,60.9018373 74.2187726,60.7656863 L55.0766679,48.9691815 L35.9345633,60.7656863 C35.6083761,60.9650502 35.1979685,61.0209693 34.8223186,60.922503 C34.4453318,60.8203898 34.1365235,60.5675381 33.9854615,60.2356702 C33.4253286,59.0188214 20.2815914,30.3128585 20.2815914,20.8114692 C20.2815914,6.93987852 31.4387955,0.47878794 55.394834,0.47878794 C85.7756896,0.47878794 89.8717444,10.7569668 89.8717444,20.8114692 C89.8717444,31.0094163 76.7253335,59.056506 76.1652007,60.2453953 C76.011465,60.5748319 75.7026566,60.8228211 75.3256699,60.922503 C75.2040181,60.9553251 75.0783559,60.972344 74.9553673,60.972344 L74.9553673,60.972344 Z M57.5244082,47.5857909 L74.3644873,57.9672987 C77.0127525,52.1881783 87.240858,29.3087454 87.240858,20.8114692 C87.240858,11.4936406 83.3814226,2.87115412 55.394834,2.87115412 C26.2799589,2.87115412 22.9124778,13.1092171 22.9124778,20.8114692 C22.9124778,28.7155164 33.1606358,52.0787713 35.7982063,57.9600049 L52.5634228,47.6259068 C46.6572968,44.4810637 29.4896937,33.917211 31.187471,18.2027203 C31.3826486,16.4084457 34.4065637,9.56078374 41.3046194,9.05386469 C42.0385405,9.00280809 42.6655149,9.49149265 42.7189882,10.1503659 C42.7791457,10.8068078 42.2390654,11.3830179 41.5145021,11.4377214 C36.4144861,11.8133521 33.925304,17.3359738 33.8076627,18.4361219 C32.1459799,33.807804 51.3255159,44.2731904 55.0512681,46.1513437 C58.5270326,44.2549559 75.716025,34.1421031 75.2895754,20.0127982 C75.1371765,14.992233 72.9407607,12.1634545 68.3781513,11.1058536 C67.6749774,10.9417431 67.2485279,10.2925949 67.4276634,9.65195624 C67.6054622,9.01496443 68.3099729,8.61745236 69.0265151,8.78764101 C74.7414741,10.11025 77.7346421,13.8665566 77.9204618,19.947154 C78.3549323,34.3657796 62.937243,44.4859262 57.5244082,47.5857909 L57.5244082,47.5857909 Z" id="Fill-5" sketch:type="MSShapeGroup"></path>
                <path d="M75.060977,28.2997699 C74.3337402,28.2997699 73.7455339,27.7636756 73.7455339,27.1035868 C73.7455339,22.479318 70.6320509,19.7186149 68.0172066,18.2160923 C64.5534735,16.2236694 59.8371285,15.1283839 54.7371125,15.1283839 C45.1186026,15.1283839 35.3797778,19.2420867 35.3797778,27.1035868 C35.3797778,27.7636756 34.7915715,28.2997699 34.0643346,28.2997699 C33.3370977,28.2997699 32.7488914,27.7636756 32.7488914,27.1035868 C32.7488914,17.670273 43.8111804,12.7360177 54.7371125,12.7360177 C60.327746,12.7360177 65.5427296,13.9650229 69.4248912,16.1957099 C73.9714585,18.8105369 76.3764202,22.5826468 76.3764202,27.1035868 C76.3764202,27.7636756 75.7882139,28.2997699 75.060977,28.2997699" id="Fill-6" sketch:type="MSShapeGroup"></path>
            </g>
        </g>
    </g>
</svg>