<?xml version="1.0" encoding="UTF-8" standalone="no"?>
<svg width="111px" height="109px" viewBox="0 0 111 109" version="1.1" xmlns="http://www.w3.org/2000/svg" xmlns:xlink="http://www.w3.org/1999/xlink" xmlns:sketch="http://www.bohemiancoding.com/sketch/ns">
    <!-- Generator: Sketch 3.3.3 (12081) - http://www.bohemiancoding.com/sketch -->
    <title>Fourway Stretch</title>
    <desc>Created with Sketch.</desc>
    <defs></defs>
    <g id="Page-1" stroke="none" stroke-width="1" fill="none" fill-rule="evenodd" sketch:type="MSPage">
        <g id="Home" sketch:type="MSArtboardGroup" transform="translate(-947.000000, -1343.000000)" fill="#17213D">
            <g id="Fourway-Stretch" sketch:type="MSLayerGroup" transform="translate(947.000000, 1343.055247)">
                <path d="M108.856934,108.456515 C108.728598,108.456515 108.597589,108.439379 108.471926,108.398517 C108.199213,108.318109 81.1403858,100.216719 55.3328343,100.216719 C29.5239459,100.216719 2.46779281,108.318109 2.19507898,108.398517 C1.73520859,108.543514 1.2338964,108.418289 0.893004114,108.087432 C0.545427663,107.757893 0.411744412,107.26622 0.542753998,106.810138 C0.6456901,106.450281 10.7294177,70.7572394 10.7294177,54.3830993 C10.7294177,38.0063229 0.6456901,2.31459915 0.542753998,1.95474243 C0.419765407,1.52106894 0.53339617,1.058396 0.840867646,0.726220563 C1.14967596,0.399317749 1.60954634,0.25168422 2.05872206,0.330773611 C2.38223553,0.394045123 34.6667405,6.51160947 55.3328343,6.51160947 C75.9975911,6.51160947 108.28477,0.394045123 108.608283,0.330773611 C109.029386,0.25563869 109.478561,0.384818028 109.784696,0.685357711 C110.096178,0.989851864 110.232535,1.42484351 110.149651,1.84797175 C110.077462,2.21837373 103.002945,39.0041673 103.002945,54.3830993 C103.002945,69.7607131 110.077462,106.546507 110.149651,106.916909 C110.236545,107.362446 110.077462,107.8238 109.73657,108.125658 C109.489256,108.343154 109.176437,108.456515 108.856934,108.456515 L108.856934,108.456515 Z M55.3328343,97.6225872 C77.379876,97.6225872 100.290511,103.436976 107.172525,105.331166 C105.656557,97.2350492 100.372058,68.0537004 100.372058,54.3830993 C100.372058,40.5925459 105.748799,11.0210229 107.211293,3.22676345 C99.9322403,4.54096549 73.333284,9.10574147 55.3328343,9.10574147 C37.472752,9.10574147 11.1558673,4.61214594 3.63351075,3.25971737 C5.79650575,11.139657 13.3603041,39.7331079 13.3603041,54.3830993 C13.3603041,68.892048 5.94088366,97.0860975 3.69767871,105.275804 C10.8163118,103.324932 33.4956753,97.6225872 55.3328343,97.6225872 L55.3328343,97.6225872 Z" id="Fill-1" sketch:type="MSShapeGroup"></path>
                <path d="M50.5697,47.6895006 C50.2328183,47.6895006 49.8959365,47.5629575 49.6392646,47.3098715 L17.4109066,15.5317544 C16.8975629,15.0255823 16.8975629,14.2043708 17.4109066,13.6981987 C17.9255871,13.1920266 18.7570969,13.1920266 19.2717774,13.6981987 L51.4987986,45.4763158 C52.0134791,45.9824879 52.0134791,46.8036994 51.4987986,47.3098715 C51.2421268,47.5629575 50.9065818,47.6895006 50.5697,47.6895006" id="Fill-2" sketch:type="MSShapeGroup"></path>
                <path d="M20.1982023,25.4390187 C19.5819226,25.4390187 19.0298107,25.0079816 18.9094958,24.388448 L16.680996,12.9784853 L28.2526182,15.1771703 C28.9664867,15.3142586 29.4317045,15.9931092 29.2953475,16.6970048 C29.156317,17.4035367 28.4504694,17.8424828 27.7539797,17.726485 L20.0003511,16.2514679 L21.493593,23.8967756 C21.6299499,24.6006712 21.1620586,25.2795218 20.4508637,25.4166101 C20.3653064,25.4311098 20.2837596,25.4390187 20.1982023,25.4390187" id="Fill-3" sketch:type="MSShapeGroup"></path>
                <path d="M62.8698959,47.6895006 C62.5330141,47.6895006 62.1961323,47.5629575 61.9394605,47.3098715 C61.4261168,46.8036994 61.4261168,45.9824879 61.9394605,45.4763158 L94.1678186,13.6981987 C94.6811622,13.1920266 95.5140089,13.1920266 96.0273526,13.6981987 C96.5420331,14.2043708 96.5420331,15.0255823 96.0273526,15.5317544 L63.7989945,47.3098715 C63.5423227,47.5629575 63.2067777,47.6895006 62.8698959,47.6895006" id="Fill-4" sketch:type="MSShapeGroup"></path>
                <path d="M93.2373831,25.4390187 C93.1531627,25.4390187 93.0716159,25.4311098 92.9860586,25.4166101 C92.2721901,25.2795218 91.8069724,24.6006712 91.9433293,23.8967756 L93.437908,16.2514679 L85.6856163,17.726485 C84.9891266,17.8503917 84.2819422,17.4035367 84.1442484,16.6970048 C84.0078915,15.9931092 84.4717724,15.3142586 85.1869778,15.1771703 L96.7572631,12.9784853 L94.5274265,24.388448 C94.4071116,25.0079816 93.8549998,25.4390187 93.2373831,25.4390187" id="Fill-5" sketch:type="MSShapeGroup"></path>
                <path d="M95.098254,92.761226 C94.7613722,92.761226 94.4244904,92.6346829 94.1678186,92.3815969 L61.9394605,60.6034798 C61.4261168,60.0973078 61.4261168,59.2760962 61.9394605,58.7699241 C62.454141,58.2637521 63.2856508,58.2637521 63.7989945,58.7699241 L96.0273526,90.5480412 C96.5420331,91.0542133 96.5420331,91.8754248 96.0273526,92.3815969 C95.7706807,92.6346829 95.433799,92.761226 95.098254,92.761226" id="Fill-6" sketch:type="MSShapeGroup"></path>
                <path d="M96.7572631,93.1013103 L85.1869778,90.9026253 C84.4717724,90.765537 84.0078915,90.0866864 84.1442484,89.3827908 C84.2819422,88.676259 84.9837792,88.2122679 85.6856163,88.3546288 L93.437908,89.8283277 L91.9433293,82.18302 C91.8069724,81.4791244 92.2721901,80.8002738 92.9860586,80.6631856 C93.6798747,80.5274154 94.3883959,80.9848157 94.5274265,81.6913476 L96.7572631,93.1013103" id="Fill-7" sketch:type="MSShapeGroup"></path>
                <path d="M18.341342,92.761226 C18.0044602,92.761226 17.6675784,92.6346829 17.4109066,92.3815969 C16.8975629,91.8754248 16.8975629,91.0542133 17.4109066,90.5480412 L49.6392646,58.7699241 C50.1526083,58.2637521 50.985455,58.2637521 51.4987986,58.7699241 C52.0134791,59.2760962 52.0134791,60.0973078 51.4987986,60.6034798 L19.2717774,92.3815969 C19.0137687,92.6346829 18.6782238,92.761226 18.341342,92.761226" id="Fill-8" sketch:type="MSShapeGroup"></path>
                <path d="M16.680996,93.1013103 L18.9094958,81.6913476 C19.0445159,80.9848157 19.7356583,80.5221428 20.4508637,80.6631856 C21.1620586,80.8002738 21.6299499,81.4791244 21.493593,82.18302 L20.0003511,89.8283277 L27.7539797,88.3546288 C28.4558167,88.2175405 29.156317,88.676259 29.2953475,89.3827908 C29.4317045,90.0866864 28.9664867,90.765537 28.2526182,90.9026253 L16.680996,93.1013103" id="Fill-9" sketch:type="MSShapeGroup"></path>
            </g>
        </g>
    </g>
</svg>