<?xml version="1.0" encoding="UTF-8" standalone="no"?>
<svg width="111px" height="109px" viewBox="0 0 111 109" version="1.1" xmlns="http://www.w3.org/2000/svg" xmlns:xlink="http://www.w3.org/1999/xlink" xmlns:sketch="http://www.bohemiancoding.com/sketch/ns">
    <!-- Generator: Sketch 3.3.3 (12081) - http://www.bohemiancoding.com/sketch -->
    <title>Moisturewick</title>
    <desc>Created with Sketch.</desc>
    <defs></defs>
    <g id="Page-1" stroke="none" stroke-width="1" fill="none" fill-rule="evenodd" sketch:type="MSPage">
        <g id="Home" sketch:type="MSArtboardGroup" transform="translate(-948.000000, -1159.000000)" fill="#17213D">
            <g id="Moisturewick" sketch:type="MSLayerGroup" transform="translate(948.000000, 1159.000000)">
                <path d="M26.7901234,63.763101 C26.0628865,63.763101 25.4746802,63.1831121 25.4746802,62.466035 L25.4746802,11.1976558 C25.4746802,10.4805787 26.0628865,9.90058984 26.7901234,9.90058984 C27.5160235,9.90058984 28.1042298,10.4805787 28.1042298,11.1976558 L28.1042298,62.466035 C28.1042298,63.1831121 27.5160235,63.763101 26.7901234,63.763101" id="Fill-1" sketch:type="MSShapeGroup"></path>
                <path d="M20.4949792,21.6625003 C20.240981,21.6625003 19.9843091,21.5913199 19.7583844,21.4397319 C19.1568098,21.036376 18.9977267,20.2309824 19.4067975,19.637812 L26.7901234,8.88560933 L34.1707757,19.637812 C34.5785096,20.2309824 34.4194265,21.0390123 33.8178519,21.4397319 C33.2202878,21.8470423 32.4008095,21.684909 31.9917387,21.0930567 L26.7901234,13.5110205 L21.5844976,21.0930567 C21.3304995,21.4621406 20.9174182,21.6625003 20.4949792,21.6625003" id="Fill-2" sketch:type="MSShapeGroup"></path>
                <path d="M54.9718895,63.763101 C54.2446526,63.763101 53.6564463,63.1831121 53.6564463,62.466035 L53.6564463,11.1976558 C53.6564463,10.4805787 54.2446526,9.90058984 54.9718895,9.90058984 C55.6991264,9.90058984 56.2873327,10.4805787 56.2873327,11.1976558 L56.2873327,62.466035 C56.2873327,63.1831121 55.6991264,63.763101 54.9718895,63.763101" id="Fill-3" sketch:type="MSShapeGroup"></path>
                <path d="M61.2656969,21.6625003 C60.8445947,21.6625003 60.4301766,21.4621406 60.1761784,21.0930567 L54.9718895,13.5110205 L49.7689374,21.0930567 C49.3612035,21.684909 48.5470725,21.8496786 47.9428242,21.4397319 C47.3412495,21.0390123 47.1821665,20.2309824 47.5912372,19.637812 L54.9718895,8.88560933 L62.3552154,19.637812 C62.7629493,20.2309824 62.6038663,21.036376 62.0022916,21.4397319 C61.7763669,21.5913199 61.5196951,21.6625003 61.2656969,21.6625003" id="Fill-4" sketch:type="MSShapeGroup"></path>
                <path d="M83.1563292,63.763101 C82.4290923,63.763101 81.840886,63.1831121 81.840886,62.466035 L81.840886,11.1976558 C81.840886,10.4805787 82.4290923,9.90058984 83.1563292,9.90058984 C83.8835661,9.90058984 84.4717724,10.4805787 84.4717724,11.1976558 L84.4717724,62.466035 C84.4717724,63.1831121 83.8835661,63.763101 83.1563292,63.763101" id="Fill-5" sketch:type="MSShapeGroup"></path>
                <path d="M89.447463,21.6625003 C89.0263607,21.6625003 88.6119427,21.4621406 88.3579445,21.0930567 L83.1563292,13.5136568 L77.9533771,21.0930567 C77.5483169,21.684909 76.7315122,21.8496786 76.1272639,21.4397319 C75.5256893,21.0390123 75.3666062,20.2309824 75.7756769,19.637812 L83.1563292,8.88297302 L90.5369815,19.637812 C90.9447154,20.2309824 90.7856323,21.0390123 90.1853945,21.4397319 C89.958133,21.5913199 89.7014612,21.6625003 89.447463,21.6625003" id="Fill-6" sketch:type="MSShapeGroup"></path>
                <path d="M108.802124,72.2138024 L1.75392425,72.2138024 C1.0280242,72.2138024 0.439817895,71.6324953 0.439817895,70.9167364 C0.439817895,70.1996592 1.0280242,69.6196704 1.75392425,69.6196704 L108.802124,69.6196704 C109.529361,69.6196704 110.117567,70.1996592 110.117567,70.9167364 C110.117567,71.6324953 109.529361,72.2138024 108.802124,72.2138024" id="Fill-7" sketch:type="MSShapeGroup"></path>
                <path d="M26.7901234,99.9530879 C23.7327875,99.9530879 22.283661,98.5835233 21.605887,97.4327726 C18.5686035,92.2748262 24.9145474,81.0177697 25.6457948,79.7523394 L26.7901234,77.7790591 L27.9331152,79.7523394 C28.6643626,81.0177697 35.0103065,92.2748262 31.9743599,97.4327726 C31.295249,98.5835233 29.8461225,99.9530879 26.7901234,99.9530879 L26.7901234,99.9530879 Z M26.7901234,83.1637284 C24.583013,87.5610986 22.4173443,93.645709 23.8811759,96.130434 C24.0589746,96.4349282 24.6057391,97.3589559 26.7901234,97.3589559 C28.9758446,97.3589559 29.5199354,96.4349282 29.6977341,96.1277977 C31.1642394,93.6404364 28.9958971,87.5584622 26.7901234,83.1637284 L26.7901234,83.1637284 Z" id="Fill-8" sketch:type="MSShapeGroup"></path>
                <path d="M54.9718895,99.9530879 C51.9145535,99.9530879 50.4654271,98.5835233 49.787653,97.4327726 C46.7503696,92.2748262 53.0963135,81.0177697 53.8288977,79.7523394 L54.9718895,77.7790591 L56.1148813,79.7523394 C56.8474655,81.0177697 63.1920726,92.2748262 60.1561259,97.4327726 C59.477015,98.5835233 58.0292254,99.9530879 54.9718895,99.9530879 L54.9718895,99.9530879 Z M54.9718895,83.1637284 C52.764779,87.5610986 50.5991104,93.645709 52.062942,96.130434 C52.2407407,96.4349282 52.7875052,97.3589559 54.9718895,97.3589559 C57.1576106,97.3589559 57.7017015,96.4349282 57.8795002,96.1277977 C59.3460054,93.6404364 57.1776631,87.5584622 54.9718895,83.1637284 L54.9718895,83.1637284 Z" id="Fill-9" sketch:type="MSShapeGroup"></path>
                <path d="M83.1563292,99.9530879 C80.0989933,99.9530879 78.6498668,98.5835233 77.9720928,97.4327726 C74.9348093,92.2748262 81.2807532,81.0177697 82.0133374,79.7523394 L83.1563292,77.7790591 L84.299321,79.7523394 C85.0319052,81.0177697 91.3765123,92.2748262 88.3405657,97.4327726 C87.6614548,98.5835233 86.2136652,99.9530879 83.1563292,99.9530879 L83.1563292,99.9530879 Z M83.1563292,83.1637284 C80.9492187,87.5610986 78.7835501,93.645709 80.2473817,96.130434 C80.4251804,96.4349282 80.9719449,97.3589559 83.1563292,97.3589559 C85.3420504,97.3589559 85.887478,96.4349282 86.0639399,96.1277977 C87.5304452,93.6404364 85.3634397,87.5584622 83.1563292,83.1637284 L83.1563292,83.1637284 Z" id="Fill-10" sketch:type="MSShapeGroup"></path>
                <path d="M108.802124,108.456515 L1.75392425,108.456515 C1.0280242,108.456515 0.439817895,107.876527 0.439817895,107.159449 L0.439817895,1.60543095 C0.439817895,0.888353813 1.0280242,0.30836495 1.75392425,0.30836495 L108.802124,0.30836495 C109.529361,0.30836495 110.117567,0.888353813 110.117567,1.60543095 L110.117567,107.159449 C110.117567,107.876527 109.529361,108.456515 108.802124,108.456515 L108.802124,108.456515 Z M3.06936743,105.862383 L107.486681,105.862383 L107.486681,2.9011788 L3.06936743,2.9011788 L3.06936743,105.862383 Z" id="Fill-11" sketch:type="MSShapeGroup"></path>
            </g>
        </g>
    </g>
</svg>