<?xml version="1.0" encoding="UTF-8" standalone="no"?>
<svg width="341px" height="46px" viewBox="0 0 341 46" version="1.1" xmlns="http://www.w3.org/2000/svg" xmlns:xlink="http://www.w3.org/1999/xlink" xmlns:sketch="http://www.bohemiancoding.com/sketch/ns">
    <!-- Generator: Sketch 3.3.3 (12081) - http://www.bohemiancoding.com/sketch -->
    <title>Imported Layers</title>
    <desc>Created with Sketch.</desc>
    <defs></defs>
    <g id="Page-1" stroke="none" stroke-width="1" fill="none" fill-rule="evenodd" sketch:type="MSPage">
        <g id="Home" sketch:type="MSArtboardGroup" transform="translate(-549.000000, -48.000000)" fill="#17213D">
            <g id="Imported-Layers" sketch:type="MSLayerGroup" transform="translate(549.685611, 47.953626)">
                <path d="M233.131486,20.9133795 L228.436772,20.9133795 L228.436772,16.2236415 C228.436772,15.1504893 227.527827,14.2443121 226.453536,14.2443121 C225.37789,14.2443121 224.472558,15.1504893 224.472558,16.2236415 L224.472558,20.9133795 L219.777844,20.9133795 C218.773577,20.9133795 217.985703,21.6995154 217.985703,22.7031698 C217.985703,23.6905781 218.789388,24.4925089 219.777844,24.4925089 L224.472558,24.4925089 L224.472558,29.184052 C224.472558,30.2572042 225.37789,31.1633814 226.453536,31.1633814 C227.527827,31.1633814 228.436772,30.2572042 228.436772,29.184052 L228.436772,24.4925089 L233.131486,24.4925089 C234.10142,24.4925089 234.923627,23.6729781 234.923627,22.7031698 C234.923627,21.7329103 234.10142,20.9133795 233.131486,20.9133795" id="Fill-1" sketch:type="MSShapeGroup"></path>
                <path d="M97.8584919,9.99322161 C96.7516742,9.99322161 95.8129122,10.9264759 95.8129122,12.033023 L95.8129122,33.3755731 C95.8129122,34.4807664 96.7516742,35.4144719 97.8584919,35.4144719 C98.9653095,35.4144719 99.8629612,34.4979151 99.8629612,33.3755731 L99.8629612,12.033023 C99.8629612,10.9079732 98.9653095,9.99322161 97.8584919,9.99322161 L97.8584919,9.99322161 Z M126.667826,31.2658228 L114.805903,31.2658228 L127.954445,13.4590788 C128.219178,13.1350573 128.362838,12.7018251 128.362838,12.2419672 C128.362838,11.1548253 127.511266,10.3028021 126.423422,10.3028021 L111.498551,10.3028021 C110.393541,10.3028021 109.528416,11.1548253 109.528416,12.2419672 C109.528416,13.2893962 110.430133,14.1761683 111.498551,14.1761683 L122.498963,14.1761683 L109.383852,31.9811071 C109.12183,32.302421 108.971845,32.733848 108.971845,33.1675314 C108.971845,33.7943642 109.281302,34.4112687 109.760622,34.7686852 C110.220967,35.13603 110.792447,35.13603 110.979928,35.13603 L126.667826,35.13603 C127.73534,35.13603 128.606338,34.2677606 128.606338,33.2013777 C128.606338,32.1516923 127.718625,31.2658228 126.667826,31.2658228 L126.667826,31.2658228 Z M153.850816,31.2658228 L141.987086,31.2658228 L155.141952,13.4590788 C155.403071,13.1350573 155.547635,12.7018251 155.547635,12.2419672 C155.547635,11.1548253 154.694708,10.3028021 153.607316,10.3028021 L138.682444,10.3028021 C137.577434,10.3028021 136.712309,11.1548253 136.712309,12.2419672 C136.712309,13.2893962 137.61222,14.1761683 138.682444,14.1761683 L149.682857,14.1761683 L136.566842,31.9811071 C136.303916,32.302421 136.153027,32.733848 136.153027,33.1675314 C136.153027,33.7907539 136.464291,34.4094636 136.944515,34.7686852 C137.408926,35.13603 137.977695,35.13603 138.165177,35.13603 L153.850816,35.13603 C154.919233,35.13603 155.790231,34.2677606 155.790231,33.2013777 C155.790231,32.1516923 154.901615,31.2658228 153.850816,31.2658228 L153.850816,31.2658228 Z M180.759586,31.2658228 L168.950067,31.2658228 L168.950067,24.1739027 L174.943598,24.1739027 C176.028731,24.1739027 176.878044,23.3236846 176.878044,22.236994 C176.878044,21.1525598 176.028731,20.3023417 174.943598,20.3023417 L168.950067,20.3023417 L168.950067,14.1761683 L180.2378,14.1761683 C181.344166,14.1761683 182.213357,13.3259502 182.213357,12.2419672 C182.213357,11.1548253 181.344166,10.3028021 180.2378,10.3028021 L166.939725,10.3028021 C165.815289,10.3028021 164.897759,11.2013075 164.897759,12.3087572 L164.897759,33.0989363 C164.897759,34.2045809 165.832907,35.13603 166.939725,35.13603 L180.759586,35.13603 C181.84517,35.13603 182.694484,34.2853606 182.694484,33.2013777 C182.694484,32.1160409 181.84517,31.2658228 180.759586,31.2658228 L180.759586,31.2658228 Z M208.111534,9.99322161 C207.042213,9.99322161 206.137785,10.9115835 206.137785,11.9978229 L206.137785,27.6763139 C202.786612,23.066453 196.393272,13.9563932 194.309292,10.9815325 L194.196352,10.8186191 C193.830876,10.3005457 193.231388,9.99322161 192.598469,9.99322161 C191.356574,9.99322161 190.589933,11.0338813 190.589933,11.9978229 L190.589933,33.4441682 C190.589933,34.529505 191.475839,35.4144719 192.565942,35.4144719 C193.652882,35.4144719 194.572218,34.5137101 194.572218,33.4441682 L194.572218,17.8198312 L206.533077,34.6066745 C206.894939,35.1396403 207.41311,35.4216925 208.03609,35.4216925 C208.111534,35.4216925 208.183365,35.4180822 208.199176,35.4144719 C209.278888,35.3481332 210.12007,34.4848279 210.12007,33.4441682 L210.12007,11.9978229 C210.12007,10.9115835 209.201637,9.99322161 208.111534,9.99322161 L208.111534,9.99322161 Z M80.7945261,11.3953594 C80.7741968,11.3308259 80.7425734,11.2712565 80.7118536,11.2152973 C80.5008806,10.7161778 80.1082991,10.3434176 79.6009701,10.1534273 L79.5449515,10.1304118 C79.3633431,10.0613654 79.1984498,10.0378987 79.0575,10.0342884 L79.0416883,10.0279704 L78.7570781,10.0297756 L78.7480428,10.0342884 C78.6436857,10.0401551 78.5325522,10.052791 78.4069623,10.0902476 L78.3044122,10.1191297 C77.6918226,10.3127303 77.2115992,10.7861267 77.0259249,11.3791132 L71.789548,27.1920867 L66.5662722,11.4061902 C66.5427806,11.3362413 66.5120608,11.2748667 66.4777268,11.2089793 C66.2685609,10.7301676 65.8949535,10.3668843 65.3876244,10.1656119 L65.310373,10.1304118 C65.0844919,10.0437654 64.8924929,10.0297756 64.723082,10.0297756 L64.66616,10.0324833 L64.66616,10.0279704 L64.5017185,10.0297756 L64.4899727,10.0360935 C64.3472158,10.0437654 64.1958754,10.068586 64.0336928,10.1322169 L64.0300787,10.1349246 C63.4333007,10.3334894 62.9706961,10.7992139 62.7908947,11.3791132 L55.6666031,32.9170691 L55.6413044,33.0095822 C55.6087775,33.117439 55.5658601,33.2645574 55.5658601,33.4545477 C55.5658601,34.3052171 56.1522476,35.1048914 56.9008177,35.3409127 C57.1660022,35.4532823 57.4063397,35.4487695 57.628155,35.4505746 C58.4824375,35.4031898 59.1939632,34.8693215 59.4361078,34.098078 L64.6742917,18.2783352 L69.9002781,34.0691958 L69.907958,34.0899549 C70.0823383,34.6486438 70.502929,35.0872914 71.0595001,35.3061639 L71.1367515,35.3409127 C71.3147458,35.4144719 71.4818979,35.4374874 71.6309795,35.4451592 L71.6458876,35.4532823 L72.0095563,35.4487695 L72.0217539,35.4410976 C72.1437297,35.4338771 72.2688678,35.4144719 72.3836155,35.3639282 C72.5887155,35.3025536 72.778004,35.2055277 72.9523842,35.0760093 C73.1285715,34.9541628 73.2794601,34.8034341 73.3856243,34.6486438 C73.52296,34.4708381 73.62551,34.2564785 73.6878532,34.037606 L78.9066114,18.2783352 L84.1407295,34.09176 C84.3946199,34.8927882 85.1648746,35.4532823 86.0178018,35.4532823 C86.1939891,35.4532823 86.4121903,35.4532823 86.6249704,35.3603179 C87.4435637,35.1030863 88.015043,34.3318428 88.015043,33.485235 C88.015043,33.2532753 87.9685115,33.0253771 87.8930672,32.8435099 L80.7945261,11.3953594 L80.7945261,11.3953594 Z" id="Fill-2" sketch:type="MSShapeGroup"></path>
                <path d="M308.762821,9.99322161 C307.658262,9.99322161 306.724018,10.9264759 306.724018,12.033023 L306.724018,33.3755731 C306.724018,34.4807664 307.658262,35.4144719 308.762821,35.4144719 C309.874608,35.4144719 310.77226,34.4979151 310.77226,33.3755731 L310.77226,12.033023 C310.77226,10.9079732 309.874608,9.99322161 308.762821,9.99322161 L308.762821,9.99322161 Z M338.261092,9.99322161 C337.190867,9.99322161 336.287343,10.9115835 336.287343,11.9978229 L336.287343,27.678119 C333.120037,23.3173667 327.200144,14.8932578 324.553269,11.1164662 L324.344103,10.8186191 C323.978627,10.3005457 323.380946,9.99322161 322.749834,9.99322161 C321.509746,9.99322161 320.739491,11.0338813 320.739491,11.9978229 L320.739491,33.4441682 C320.739491,34.529505 321.625397,35.4144719 322.713693,35.4144719 C323.80244,35.4144719 324.719969,34.5137101 324.719969,33.4441682 L324.719969,17.8198312 L336.682635,34.6021616 C337.042689,35.1378351 337.560861,35.4216925 338.185648,35.4216925 C338.261092,35.4216925 338.332923,35.4180822 338.347831,35.4144719 C339.425736,35.3481332 340.269628,34.4848279 340.269628,33.4441682 L340.269628,11.9978229 C340.269628,10.9115835 339.348484,9.99322161 338.261092,9.99322161 L338.261092,9.99322161 Z M289.356919,11.1512151 C289.145494,10.7224957 288.531098,9.99322161 287.579686,9.99322161 C286.622402,9.99322161 285.963281,10.7067008 285.758181,11.1742305 L276.006891,32.5957552 C275.846516,32.9229358 275.846516,33.249665 275.846516,33.4441682 C275.846516,34.2099963 276.289695,34.9112908 276.960562,35.2168097 C277.212645,35.3409127 277.523909,35.4144719 277.815748,35.4144719 C278.56748,35.4144719 279.284427,34.9392704 279.606082,34.2294015 L282.242115,28.3934034 L292.8897,28.3934034 L295.546966,34.2370733 C295.846485,34.9613833 296.537229,35.4144719 297.348594,35.4144719 C297.625525,35.4144719 297.895679,35.3481332 298.136468,35.2307995 C298.834892,34.9112908 299.283492,34.2099963 299.283492,33.4441682 C299.283492,33.249665 299.283492,32.9206793 299.136218,32.6246374 L289.356919,11.1512151 L289.356919,11.1512151 Z M283.953842,24.6265401 L287.579686,16.6370172 L291.177973,24.6265401 L283.953842,24.6265401 L283.953842,24.6265401 Z M264.462106,11.3953594 C264.438614,11.3308259 264.411508,11.2712565 264.380788,11.2152973 C264.166201,10.7161778 263.772716,10.3434176 263.266743,10.1534273 L263.210724,10.1304118 C263.030923,10.0613654 262.867836,10.0378987 262.723273,10.0342884 L262.707009,10.0279704 L262.424658,10.0297756 L262.41246,10.0342884 C262.308103,10.0401551 262.198325,10.052791 262.070476,10.0902476 L261.967926,10.1191297 C261.35624,10.3127303 260.878727,10.7861267 260.690342,11.3791132 L255.456676,27.1920867 L250.231593,11.4061902 C250.208553,11.3362413 250.17964,11.2748667 250.143048,11.2089793 C249.934333,10.7301676 249.562081,10.3668843 249.052945,10.1656119 L248.975694,10.1304118 C248.749361,10.0437654 248.558265,10.0297756 248.387499,10.0297756 L248.331481,10.0324833 L248.331481,10.0279704 L248.171105,10.0297756 L248.1571,10.0360935 C248.012537,10.0437654 247.861648,10.068586 247.699465,10.1322169 L247.694948,10.1349246 C247.10088,10.3334894 246.640083,10.7992139 246.458474,11.3791132 L239.333731,32.9170691 L239.308884,33.0095822 C239.277712,33.117439 239.231181,33.2645574 239.231181,33.4545477 C239.231181,34.3052171 239.817568,35.1048914 240.56659,35.3409127 C240.831323,35.4532823 241.070757,35.4487695 241.293928,35.4505746 C242.148662,35.4031898 242.859284,34.8693215 243.105494,34.098078 L248.339161,18.2783352 L253.566051,34.0691958 L253.567858,34.0691958 L253.573279,34.0899549 C253.747659,34.6486438 254.167346,35.0872914 254.724821,35.3061639 L254.802524,35.3409127 C254.982325,35.4144719 255.149026,35.4374874 255.297655,35.4451592 L255.31166,35.4532823 L255.675329,35.4487695 L255.688882,35.4410976 C255.80634,35.4338771 255.935996,35.4144719 256.048936,35.3639282 C256.254036,35.3025536 256.445132,35.2055277 256.617705,35.0760093 C256.795699,34.9541628 256.94704,34.8034341 257.051397,34.6486438 C257.188281,34.4708381 257.290831,34.2564785 257.35227,34.037606 L262.570125,18.2783352 L267.805598,34.09176 C268.059037,34.8927882 268.829292,35.4532823 269.685381,35.4532823 C269.858858,35.4532823 270.07977,35.4532823 270.290291,35.3603179 C271.108884,35.1030863 271.679912,34.3318428 271.679912,33.485235 C271.679912,33.2532753 271.633832,33.0253771 271.560195,32.8435099 L264.462106,11.3953594 L264.462106,11.3953594 Z" id="Fill-3" sketch:type="MSShapeGroup"></path>
                <path d="M0.29183845,0.164718474 L45.7883685,0.164718474 L45.7883685,45.612125 L0.29183845,45.612125 L0.29183845,0.164718474 Z M2.15038858,43.7555447 L43.9289149,43.7555447 L43.9289149,2.0226526 L2.15038858,2.0226526 L2.15038858,43.7555447 Z" id="Fill-4" sketch:type="MSShapeGroup"></path>
                <path d="M39.473635,33.8647644 L31.9445644,11.1214303 C31.9002917,10.9476862 31.8234921,10.78026 31.7164244,10.6335929 C31.6337519,10.5221259 31.5361713,10.426905 31.426393,10.345674 C31.4191648,10.3411612 31.4114849,10.3325868 31.4033532,10.3262688 C31.3766992,10.3082175 31.3477864,10.2937764 31.3197771,10.2752738 C31.2217447,10.2138992 31.1169359,10.1601965 31.0039953,10.1249964 C30.9299063,10.095663 30.863949,10.0803193 30.7984434,10.0740014 C30.7311309,10.0649757 30.6647218,10.0649757 30.5924398,10.0640731 L30.5829528,10.0640731 L30.5802422,10.0640731 L30.571207,10.0640731 C30.563527,10.0640731 30.5567506,10.0649757 30.5481671,10.0649757 C30.4826616,10.0649757 30.4198666,10.0667808 30.3575234,10.0740014 C30.3642999,10.0740014 30.3715281,10.0767091 30.3760457,10.0776116 C29.8669096,10.149817 29.4083708,10.4986591 29.2443811,11.0198916 L25.3989804,22.8895499 L25.3980768,22.8895499 L23.0868609,29.8722594 L16.8462164,11.0198916 C16.6804196,10.4945976 16.2191703,10.1448529 15.7037095,10.0767091 C15.7091307,10.0767091 15.7159071,10.0740014 15.7222318,10.0740014 C15.6662132,10.0667808 15.6083877,10.0667808 15.5496586,10.0649757 C15.5397198,10.0649757 15.529781,10.0640731 15.5189387,10.0640731 L15.5067411,10.0640731 L15.4949953,10.0640731 C15.4850566,10.0640731 15.474666,10.0649757 15.4647273,10.0649757 C15.4050946,10.0667808 15.3486243,10.0667808 15.2926058,10.0740014 C15.2266485,10.0803193 15.1588842,10.095663 15.0856987,10.1249964 L15.0838916,10.1249964 C14.6646562,10.2540635 14.3082158,10.5744747 14.169073,11.0198916 L6.60657196,33.8647644 C6.57540036,34.0186521 6.51396069,34.142755 6.51396069,34.2975453 C6.51396069,34.8819574 6.91602914,35.4672721 7.50286838,35.6522983 C7.65646756,35.7163806 7.81142203,35.7163806 7.96502121,35.7163806 C8.55186045,35.6847907 9.07454944,35.3454255 9.26067551,34.7610134 L15.5067411,15.890143 L17.8251853,22.8877448 L14.1921128,33.8647644 C14.1600377,34.0186521 14.0995016,34.142755 14.0995016,34.2975453 C14.0995016,34.8819574 14.5006665,35.4672721 15.0856987,35.6522983 C15.2411049,35.7163806 15.3951559,35.7163806 15.5496586,35.7163806 C16.136046,35.6847907 16.6605421,35.3454255 16.8462164,34.7610134 L19.3001892,27.3446205 L19.3001892,27.3455231 L21.7550656,34.7610134 C21.8648438,35.1134658 22.1029226,35.3761128 22.4006339,35.5349646 C22.4828547,35.5828007 22.567786,35.6252213 22.6603973,35.6522983 C22.7814696,35.7023908 22.900283,35.7105139 23.0213553,35.7145754 C23.0299388,35.7145754 23.0394258,35.7163806 23.0502681,35.7163806 L23.0868609,35.7163806 L23.1239054,35.7163806 C23.1329406,35.7163806 23.1419759,35.7145754 23.1523664,35.7145754 C23.2720834,35.7105139 23.392704,35.7023908 23.5128727,35.6522983 C23.6059358,35.6252213 23.6931259,35.5809955 23.7771537,35.534062 C24.0721545,35.3725026 24.3075226,35.1125633 24.4200114,34.7610134 L26.8721772,27.3473282 L29.2443811,34.7610134 C29.4305072,35.3454255 29.9540997,35.6847907 30.5409389,35.7163806 C30.6936346,35.7163806 30.8494926,35.7163806 31.0039953,35.6522983 C31.5912863,35.4672721 31.9919995,34.8819574 31.9919995,34.2975453 C31.9919995,34.142755 31.9292045,34.0186521 31.8984847,33.8647644 L28.2929697,22.9698784 L30.5802422,15.9122559 L36.8181762,34.7610134 C37.0038505,35.3454255 37.527443,35.6847907 38.114734,35.7163806 C38.2692367,35.7163806 38.4232876,35.7163806 38.5791456,35.6522983 C39.1637261,35.4695285 39.564891,34.8837625 39.564891,34.2975453 C39.564891,34.142755 39.5043548,34.0186521 39.473635,33.8647644" id="Fill-5" sketch:type="MSShapeGroup"></path>
            </g>
        </g>
    </g>
</svg>