<?xml version="1.0" encoding="UTF-8" standalone="no"?>
<svg width="74px" height="75px" viewBox="0 0 74 75" version="1.1" xmlns="http://www.w3.org/2000/svg" xmlns:xlink="http://www.w3.org/1999/xlink" xmlns:sketch="http://www.bohemiancoding.com/sketch/ns">
    <!-- Generator: Sketch 3.3.2 (12043) - http://www.bohemiancoding.com/sketch -->
    <title>Mizzen Glyph</title>
    <desc>Created with Sketch.</desc>
    <defs></defs>
    <g id="Page-1" stroke="none" stroke-width="1" fill="none" fill-rule="evenodd" sketch:type="MSPage">
        <g id="Home" sketch:type="MSArtboardGroup" transform="translate(-527.000000, -50.000000)" fill="#17213D">
            <g id="Mizzen-Glyph" sketch:type="MSLayerGroup" transform="translate(527.000000, 50.000000)">
                <path d="M0,0.237857143 L74,0.237857143 L74,74.5242857 L0,74.5242857 L0,0.237857143 Z M3.02403846,71.4885714 L70.9759615,71.4885714 L70.9759615,3.27642857 L3.02403846,3.27642857 L3.02403846,71.4885714 Z" id="Fill-1" sketch:type="MSShapeGroup"></path>
                <path d="M63.7289423,55.3207143 L51.4833654,18.1457143 C51.4122115,17.8621429 51.2869808,17.59 51.1126538,17.35 C50.9781731,17.1671429 50.8187885,17.01 50.6409038,16.8778571 C50.6280962,16.87 50.6174231,16.8585714 50.6046154,16.8478571 C50.5597885,16.8171429 50.5135385,16.7928571 50.4687115,16.7642857 C50.3086154,16.6628571 50.1371346,16.5757143 49.9549808,16.5185714 C49.8333077,16.4721429 49.7258654,16.445 49.6184231,16.435 C49.5109808,16.4214286 49.4021154,16.4214286 49.2847115,16.4192857 L49.2683462,16.4192857 C49.2683462,16.4192857 49.2683462,16.4192857 49.2647885,16.4192857 L49.2505577,16.4192857 C49.2384615,16.4192857 49.2256538,16.4214286 49.2121346,16.4214286 C49.1046923,16.4214286 49.0036538,16.4228571 48.9019038,16.435 C48.9147115,16.435 48.9246731,16.4392857 48.9325,16.4414286 C48.1042692,16.5592857 47.3578654,17.1285714 47.0924615,17.9814286 L40.8380385,37.3835714 L40.8359038,37.3835714 L37.0768462,48.7971429 L26.9274615,17.9814286 C26.6563654,17.1221429 25.9078269,16.5528571 25.0675,16.4392857 C25.0774615,16.4392857 25.0881346,16.435 25.0980962,16.435 C25.0063077,16.4228571 24.9138077,16.4228571 24.8184615,16.4214286 C24.8020962,16.4214286 24.7857308,16.4192857 24.7679423,16.4192857 L24.7480192,16.4192857 L24.7295192,16.4192857 C24.7131538,16.4192857 24.6975,16.4214286 24.679,16.4214286 C24.5836538,16.4228571 24.4904423,16.4228571 24.3993654,16.435 C24.2926346,16.445 24.1830577,16.4721429 24.0635192,16.5185714 L24.05925,16.5185714 C23.3768846,16.73 22.7984038,17.2521429 22.5714231,17.9814286 L10.2724808,55.3207143 C10.2219615,55.5735714 10.1209231,55.7771429 10.1209231,56.0292857 C10.1209231,56.9835714 10.7748269,57.9407143 11.7304231,58.2435714 C11.97875,58.3471429 12.2320577,58.3471429 12.4810962,58.3471429 C13.4366923,58.2964286 14.2869808,57.7414286 14.5879615,56.7871429 L24.7480192,25.9414286 L28.5191731,37.3785714 L22.6098462,55.3207143 C22.5579038,55.5735714 22.4604231,55.7771429 22.4604231,56.0292857 C22.4604231,56.9835714 23.1121923,57.9407143 24.0635192,58.2435714 C24.3168269,58.3471429 24.5672885,58.3471429 24.8184615,58.3471429 C25.7719231,58.2964286 26.6243462,57.7414286 26.9274615,56.7871429 L30.9170577,44.6635714 L30.9170577,44.665 L34.9109231,56.7871429 C35.0888077,57.3621429 35.4751731,57.79 35.9597308,58.0507143 C36.0949231,58.1278571 36.2329615,58.1985714 36.3823846,58.2435714 C36.5787692,58.3242857 36.7730192,58.3371429 36.9694038,58.3428571 C36.9857692,58.3428571 37,58.3471429 37.0177885,58.3471429 L37.0768462,58.3471429 L37.1373269,58.3471429 C37.1515577,58.3471429 37.1657885,58.3428571 37.1821538,58.3428571 C37.3785385,58.3371429 37.5749231,58.3242857 37.7691731,58.2435714 C37.9207308,58.1985714 38.0623269,58.1264286 38.1996538,58.0507143 C38.6799423,57.7842857 39.06275,57.3592857 39.2449038,56.7871429 L43.2345,44.6678571 L47.0924615,56.7871429 C47.3941538,57.7414286 48.2465769,58.2964286 49.2021731,58.3471429 C49.4483654,58.3471429 49.7023846,58.3471429 49.9549808,58.2435714 C50.9084423,57.9407143 51.5623462,56.9835714 51.5623462,56.0292857 C51.5623462,55.7771429 51.4584615,55.5735714 51.4100769,55.3207143 L45.5441538,37.5128571 L49.2647885,25.9778571 L59.4113269,56.7871429 C59.7130192,57.7414286 60.5654423,58.2964286 61.5189038,58.3471429 C61.7715,58.3471429 62.0205385,58.3471429 62.2738462,58.2435714 C63.2251731,57.945 63.8790769,56.9878571 63.8790769,56.0292857 C63.8790769,55.7771429 63.7794615,55.5735714 63.7289423,55.3207143" id="Fill-2" sketch:type="MSShapeGroup"></path>
            </g>
        </g>
    </g>
</svg>