<?xml version="1.0" encoding="UTF-8" standalone="no"?>
<svg width="293px" height="27px" viewBox="0 0 293 27" version="1.1" xmlns="http://www.w3.org/2000/svg" xmlns:xlink="http://www.w3.org/1999/xlink" xmlns:sketch="http://www.bohemiancoding.com/sketch/ns">
    <!-- Generator: Sketch 3.3.2 (12043) - http://www.bohemiancoding.com/sketch -->
    <title>Mizzen Text</title>
    <desc>Created with Sketch.</desc>
    <defs></defs>
    <g id="Page-1" stroke="none" stroke-width="1" fill="none" fill-rule="evenodd" sketch:type="MSPage">
        <g id="Home" sketch:type="MSArtboardGroup" transform="translate(-624.000000, -74.000000)" fill="#17213D">
            <g id="Mizzen-Text" sketch:type="MSLayerGroup" transform="translate(624.500000, 73.730916)">
                <path d="M182.027576,11.8650164 L177.22053,11.8650164 L177.22053,7.05862255 C177.22053,5.96102985 176.289848,5.03161668 175.190758,5.03161668 C174.091667,5.03161668 173.159015,5.96102985 173.159015,7.05862255 L173.159015,11.8650164 L168.349015,11.8650164 C167.320833,11.8650164 166.515227,12.6675573 166.515227,13.6943375 C166.515227,14.7073487 167.336591,15.5275927 168.349015,15.5275927 L173.159015,15.5275927 L173.159015,20.333003 C173.159015,21.4305957 174.091667,22.3570583 175.190758,22.3570583 C176.289848,22.3570583 177.22053,21.4305957 177.22053,20.333003 L177.22053,15.5275927 L182.027576,15.5275927 C183.026212,15.5275927 183.866288,14.6866951 183.866288,13.6943375 C183.866288,12.7009965 183.026212,11.8650164 182.027576,11.8650164" id="Fill-1" sketch:type="MSShapeGroup"></path>
                <path d="M43.4456061,0.676652126 C42.3100758,0.676652126 41.3537879,1.63557047 41.3537879,2.76365185 L41.3537879,24.6240397 C41.3537879,25.7560551 42.3100758,26.7149734 43.4456061,26.7149734 C44.5801515,26.7149734 45.4990152,25.7767087 45.4990152,24.6240397 L45.4990152,2.76365185 C45.4990152,1.61491685 44.5801515,0.676652126 43.4456061,0.676652126 L43.4456061,0.676652126 Z M72.9625,22.4622935 L60.8104545,22.4622935 L74.2792424,4.22809228 C74.5481061,3.89566726 74.6968182,3.44915553 74.6968182,2.97707266 C74.6968182,1.86669438 73.8242424,0.997275082 72.7074242,0.997275082 L57.4235606,0.997275082 C56.2870455,0.997275082 55.4016667,1.86669438 55.4016667,2.97707266 C55.4016667,4.05499523 56.3264394,4.96375477 57.4235606,4.96375477 L68.6882576,4.96375477 L55.2539394,23.1940219 C54.9880303,23.5225129 54.8343939,23.9680412 54.8343939,24.4135694 C54.8343939,25.0538318 55.1495455,25.6852426 55.6380303,26.0501234 C56.1127273,26.4297567 56.6977273,26.4297567 56.8907576,26.4297567 L72.9625,26.4297567 C74.0556818,26.4297567 74.9489394,25.5377167 74.9489394,24.4470086 C74.9489394,23.371053 74.0389394,22.4622935 72.9625,22.4622935 L72.9625,22.4622935 Z M100.808106,22.4622935 L88.6570455,22.4622935 L102.131742,4.22809228 C102.399621,3.89566726 102.548333,3.44915553 102.548333,2.97707266 C102.548333,1.86669438 101.673788,0.997275082 100.559924,0.997275082 L85.2681818,0.997275082 C84.1375758,0.997275082 83.2502273,1.86669438 83.2502273,2.97707266 C83.2502273,4.05499523 84.1759848,4.96375477 85.2681818,4.96375477 L96.5397727,4.96375477 L83.1005303,23.1940219 C82.8306818,23.5225129 82.6790152,23.9680412 82.6790152,24.4135694 C82.6790152,25.0498978 82.9951515,25.6803251 83.4905303,26.0501234 C83.9652273,26.4297567 84.5492424,26.4297567 84.7422727,26.4297567 L100.808106,26.4297567 C101.905227,26.4297567 102.79553,25.5377167 102.79553,24.4470086 C102.79553,23.371053 101.88553,22.4622935 100.808106,22.4622935 L100.808106,22.4622935 Z M128.37697,22.4622935 L116.279091,22.4622935 L116.279091,15.2000852 L122.417652,15.2000852 C123.531515,15.2000852 124.402121,14.3296824 124.402121,13.2183206 C124.402121,12.1040083 123.531515,11.232622 122.417652,11.232622 L116.279091,11.232622 L116.279091,4.96375477 L127.844167,4.96375477 C128.976742,4.96375477 129.866061,4.09236846 129.866061,2.97707266 C129.866061,1.86669438 128.976742,0.997275082 127.844167,0.997275082 L114.221742,0.997275082 C113.06947,0.997275082 112.12697,1.9178367 112.12697,3.0498521 L112.12697,24.342757 C112.12697,25.4737888 113.085227,26.4297567 114.221742,26.4297567 L128.37697,26.4297567 C129.490833,26.4297567 130.361439,25.5583704 130.361439,24.4470086 C130.361439,23.3376138 129.490833,22.4622935 128.37697,22.4622935 L128.37697,22.4622935 Z M156.397879,0.676652126 C155.303712,0.676652126 154.377955,1.61983438 154.377955,2.72922914 L154.377955,18.7888986 C150.944773,14.0641358 144.394545,4.73656489 142.256439,1.68572928 L142.143182,1.52246728 C141.765985,0.997275082 141.156364,0.676652126 140.506364,0.676652126 C139.235909,0.676652126 138.44803,1.74080562 138.44803,2.72922914 L138.44803,24.6958356 C138.44803,25.8062139 139.354091,26.7149734 140.469924,26.7149734 C141.586742,26.7149734 142.524318,25.7904778 142.524318,24.6958356 L142.524318,8.69222601 L154.780758,25.8868614 C155.148106,26.4297567 155.683864,26.7198909 156.32303,26.7198909 C156.395909,26.7198909 156.473712,26.7149734 156.488485,26.7110394 C157.59447,26.644161 158.456212,25.7599891 158.456212,24.6958356 L158.456212,2.72922914 C158.456212,1.61983438 157.511742,0.676652126 156.397879,0.676652126 L156.397879,0.676652126 Z M25.9655303,2.11158738 C25.9428788,2.04765949 25.9133333,1.98569861 25.8808333,1.92963877 C25.6651515,1.42018266 25.2593939,1.03464831 24.7443182,0.843848146 L24.6822727,0.820244002 C24.5000758,0.748448064 24.3287121,0.722876908 24.1859091,0.717959378 L24.1691667,0.714025354 L23.8786364,0.714025354 L23.8668182,0.717959378 C23.7594697,0.726810932 23.6462121,0.73959651 23.5181818,0.776969738 L23.412803,0.806474918 C22.7844697,1.00514313 22.2940152,1.48804457 22.1019697,2.09486778 L16.7404545,18.2932116 L11.3868182,2.12338945 C11.3651515,2.05257702 11.3336364,1.98963263 11.2991667,1.92177072 C11.0834848,1.42903421 10.7013636,1.05923596 10.1813636,0.8526997 L10.1015909,0.815326472 C9.86916667,0.726810932 9.67613636,0.714025354 9.49886364,0.714025354 L9.44272727,0.717959378 L9.44272727,0.714025354 L9.27530303,0.714025354 L9.26348485,0.717959378 C9.11575758,0.726810932 8.96015152,0.752382088 8.79371212,0.820244002 L8.78878788,0.820244002 C8.18113636,1.02579676 7.70348485,1.50083015 7.52325758,2.09486778 L0.222575758,24.1539238 L0.195984848,24.2453899 C0.163484848,24.3594766 0.121136364,24.5109365 0.121136364,24.7086212 C0.121136364,25.5760735 0.718939394,26.4002515 1.48613636,26.6362929 C1.75795455,26.7493961 2.00416667,26.7493961 2.23166667,26.7493961 C3.10818182,26.7031713 3.83598485,26.1514245 4.08515152,25.3646197 L9.44863636,9.16135837 L14.8032576,25.3311805 L14.8052273,25.3311805 L14.8111364,25.3557681 C14.9903788,25.9242346 15.4207576,26.3786144 15.9909848,26.6018702 L16.0707576,26.6392435 C16.2519697,26.7149734 16.425303,26.7366106 16.5769697,26.7444786 L16.594697,26.7493961 L16.965,26.7493961 L16.9768182,26.7415281 C17.1038636,26.7326765 17.2318939,26.7110394 17.3500758,26.6598971 C17.5559091,26.5940022 17.7518939,26.4966351 17.9311364,26.3668123 C18.1103788,26.2409235 18.2659848,26.0874966 18.375303,25.9291521 C18.5151515,25.744253 18.6195455,25.5298487 18.6835606,25.3026588 L24.0293182,9.16135837 L29.3937879,25.3557681 C29.6518182,26.1760121 30.4416667,26.7493961 31.3142424,26.7493961 C31.4954545,26.7493961 31.7190152,26.7493961 31.9386364,26.6598971 C32.7767424,26.3913999 33.3617424,25.5996776 33.3617424,24.7371429 C33.3617424,24.4981509 33.3134848,24.263093 33.2376515,24.0772103 L25.9655303,2.11158738 L25.9655303,2.11158738 Z" id="Fill-2" sketch:type="MSShapeGroup"></path>
                <path d="M259.513485,0.676652126 C258.380909,0.676652126 257.425606,1.63557047 257.425606,2.76365185 L257.425606,24.6240397 C257.425606,25.7560551 258.380909,26.7149734 259.513485,26.7149734 C260.65,26.7149734 261.570833,25.7767087 261.570833,24.6240397 L261.570833,2.76365185 C261.570833,1.61491685 260.65,0.676652126 259.513485,0.676652126 L259.513485,0.676652126 Z M289.732576,0.676652126 C288.639394,0.676652126 287.715606,1.61983438 287.715606,2.72922914 L287.715606,18.7888986 C284.466591,14.3247649 278.403864,5.69646674 275.688636,1.82932116 L275.477879,1.52246728 C275.100682,0.997275082 274.492045,0.676652126 273.839091,0.676652126 C272.571591,0.676652126 271.783712,1.74080562 271.783712,2.72922914 L271.783712,24.6958356 C271.783712,25.8062139 272.692727,26.7149734 273.805606,26.7149734 C274.921439,26.7149734 275.860985,25.7904778 275.860985,24.6958356 L275.860985,8.69222601 L288.11447,25.8819438 C288.487727,26.4297567 289.016591,26.7198909 289.656742,26.7198909 C289.732576,26.7198909 289.806439,26.7149734 289.824167,26.7110394 C290.927197,26.644161 291.790909,25.7599891 291.790909,24.6958356 L291.790909,2.72922914 C291.790909,1.61983438 290.851364,0.676652126 289.732576,0.676652126 L289.732576,0.676652126 Z M239.633333,1.86276036 C239.416667,1.42018266 238.789318,0.676652126 237.813333,0.676652126 C236.82947,0.676652126 236.157803,1.40936409 235.942121,1.88833152 L225.952803,23.8254328 C225.792273,24.1608083 225.792273,24.4932334 225.792273,24.6958356 C225.792273,25.4787064 226.248258,26.1946987 226.932727,26.5094207 C227.191742,26.6392435 227.508864,26.7149734 227.811212,26.7149734 C228.580379,26.7149734 229.313106,26.2232204 229.644015,25.5003435 L232.34447,19.520627 L243.251667,19.520627 L245.974773,25.5082116 C246.280076,26.2487916 246.994091,26.7149734 247.819394,26.7149734 C248.105985,26.7149734 248.380758,26.644161 248.627955,26.5222062 C249.34,26.1976493 249.804848,25.4787064 249.804848,24.6958356 C249.804848,24.4932334 249.804848,24.1568743 249.651212,23.854938 L239.633333,1.86276036 L239.633333,1.86276036 Z M234.101439,15.662333 L237.813333,7.47956311 L241.497652,15.662333 L234.101439,15.662333 L234.101439,15.662333 Z M214.125758,2.11158738 C214.106061,2.04765949 214.076515,1.98569861 214.041061,1.92963877 C213.823409,1.42018266 213.422576,1.03464831 212.902576,0.843848146 L212.846439,0.820244002 C212.663258,0.748448064 212.494848,0.722876908 212.345152,0.717959378 L212.333333,0.714025354 L212.039848,0.714025354 L212.029015,0.717959378 C211.920682,0.726810932 211.809394,0.73959651 211.677424,0.776969738 L211.574015,0.806474918 C210.945682,1.00514313 210.457197,1.48804457 210.264167,2.09486778 L204.904621,18.2932116 L199.54803,2.12338945 C199.527348,2.05257702 199.494848,1.98963263 199.459394,1.92177072 C199.246667,1.42903421 198.86553,1.05923596 198.341591,0.8526997 L198.259848,0.815326472 C198.029394,0.726810932 197.837348,0.714025354 197.658106,0.714025354 L197.6,0.717959378 L197.6,0.714025354 L197.43553,0.714025354 L197.422727,0.717959378 C197.278939,0.726810932 197.118409,0.752382088 196.95197,0.820244002 L196.95,0.820244002 C196.344318,1.02579676 195.867652,1.50083015 195.681515,2.09486778 L188.382803,24.1539238 L188.356212,24.2453899 C188.328636,24.3594766 188.276439,24.5109365 188.276439,24.7086212 C188.276439,25.5760735 188.880152,26.4002515 189.649318,26.6362929 C189.919167,26.7493961 190.168333,26.7493961 190.394848,26.7493961 C191.267424,26.7031713 191.996212,26.1514245 192.244394,25.3646197 L197.609848,9.16135837 L202.96447,25.3311805 L202.975303,25.3557681 C203.151591,25.9242346 203.580985,26.3786144 204.150227,26.6018702 L204.23,26.6392435 C204.416136,26.7149734 204.58947,26.7366106 204.740152,26.7444786 L204.755909,26.7493961 L205.125227,26.7493961 L205.137045,26.7415281 C205.263106,26.7326765 205.394091,26.7110394 205.509318,26.6598971 C205.718106,26.5940022 205.912121,26.4966351 206.092348,26.3668123 C206.274545,26.2409235 206.425227,26.0874966 206.5375,25.9291521 C206.673409,25.744253 206.784697,25.5298487 206.846742,25.3026588 L212.193485,9.16135837 L217.552045,25.3557681 C217.815985,26.1760121 218.600909,26.7493961 219.478409,26.7493961 C219.658636,26.7493961 219.883182,26.7493961 220.097879,26.6598971 C220.939924,26.3913999 221.525909,25.5996776 221.525909,24.7371429 C221.525909,24.4981509 221.475682,24.263093 221.398864,24.0772103 L214.125758,2.11158738 L214.125758,2.11158738 Z" id="Fill-3" sketch:type="MSShapeGroup"></path>
            </g>
        </g>
    </g>
</svg>